{"glyphs":{"0":{"ha":703,"x_min":24,"x_max":679,"o":"m 117 94 q 139 53 126 75 q 175 17 151 32 q 188 5 186 11 q 189 -10 189 -1 q 181 -17 189 -15 q 168 -17 174 -19 q 151 -3 160 -10 q 135 11 142 4 q 29 226 50 111 l 29 236 q 26 338 28 288 q 24 439 24 388 q 28 510 24 475 q 36 579 33 544 q 36 597 38 589 q 36 701 26 650 q 69 799 46 751 q 106 856 83 831 q 158 904 129 882 q 226 924 186 928 q 253 915 247 921 q 258 889 258 908 q 353 911 303 915 q 297 932 328 931 l 250 932 l 217 932 q 217 951 217 942 q 218 969 217 960 q 231 982 218 976 q 251 989 239 988 q 274 990 263 990 q 321 989 297 988 q 367 992 344 990 q 397 992 382 992 q 425 999 411 992 q 447 999 436 1001 q 464 992 457 997 q 519 960 496 979 q 601 868 574 925 q 616 834 608 851 q 633 799 624 817 q 653 753 643 776 q 674 708 663 731 q 670 702 671 706 q 667 694 669 699 q 651 674 653 685 q 651 649 649 663 q 667 363 679 504 q 648 241 661 300 q 610 124 635 182 q 598 99 606 110 q 583 74 590 88 q 570 52 578 63 q 556 28 563 42 q 540 7 549 17 q 517 -10 532 -3 q 503 -17 508 -11 q 490 -28 497 -22 q 369 -62 442 -60 q 331 -58 350 -64 q 293 -46 313 -53 q 262 -28 278 -36 q 232 -10 246 -19 q 203 15 217 1 q 182 46 190 29 q 163 74 176 63 q 135 100 149 86 q 125 102 131 103 q 117 94 119 101 m 311 779 q 324 785 318 782 q 338 792 331 789 q 353 797 344 794 q 371 801 363 799 q 361 812 365 808 q 346 815 357 815 q 333 806 339 811 q 319 797 326 801 q 316 789 318 793 q 311 782 314 785 q 272 721 275 764 q 294 753 283 739 q 311 779 304 768 m 222 382 q 219 328 218 354 q 231 274 221 301 q 269 171 247 222 q 280 146 272 158 q 293 121 288 133 q 308 103 300 110 q 328 89 317 96 q 367 85 344 76 q 407 104 388 92 q 439 136 426 117 q 463 199 457 167 q 472 263 468 231 q 478 338 475 300 q 482 411 481 375 q 478 531 485 472 q 454 647 471 589 q 440 688 449 668 q 419 731 431 708 q 379 769 407 754 q 343 767 360 783 q 331 757 336 761 q 321 746 326 753 q 307 722 314 735 q 296 699 300 710 q 272 615 279 657 q 263 532 264 572 q 258 427 257 479 q 269 325 258 375 q 287 247 276 285 q 319 171 297 208 q 338 141 331 156 q 369 118 346 126 q 371 115 371 118 q 371 111 371 113 q 364 104 371 107 q 329 114 343 100 q 304 142 315 128 q 286 171 293 156 q 272 203 279 186 q 263 236 265 219 q 222 382 240 308 m 476 797 q 501 729 486 761 q 522 661 515 697 q 540 593 533 626 q 554 526 547 560 l 554 529 q 555 531 554 531 q 556 532 556 531 q 544 645 556 590 q 514 757 533 700 q 508 767 514 763 q 494 782 501 775 q 476 797 486 789 m 415 -1 q 460 8 444 -4 q 485 36 475 21 q 494 48 489 43 q 504 60 500 53 q 496 79 510 69 q 472 60 485 69 q 449 43 460 51 q 421 28 435 36 q 393 14 407 21 q 405 5 400 8 q 415 -1 410 1 m 593 269 q 608 306 607 289 q 611 338 610 322 q 617 369 617 353 q 618 401 618 385 q 618 432 618 417 q 611 461 618 447 q 609 452 610 457 q 606 443 608 447 l 593 318 q 592 297 592 307 q 593 269 593 286 m 449 82 q 490 122 474 100 q 517 167 507 143 q 518 172 517 169 q 517 176 519 174 q 512 201 508 188 q 508 228 515 214 q 499 205 506 215 q 499 183 493 194 q 500 170 503 175 q 492 158 497 165 q 481 140 486 149 q 472 124 475 131 q 449 82 460 99 m 78 282 q 94 217 82 247 q 129 160 106 188 q 124 178 126 169 q 119 196 121 186 q 115 216 117 207 q 111 236 113 225 q 103 261 107 250 q 94 274 99 268 q 78 282 89 279 m 310 879 q 226 814 258 869 q 269 848 250 833 q 310 879 289 863 m 579 711 q 589 663 582 685 q 610 617 596 640 q 600 665 607 642 q 579 711 593 688 m 443 765 q 417 815 439 797 q 388 826 407 828 q 416 795 403 810 q 443 765 429 781 m 226 864 q 185 839 194 857 q 172 799 175 821 q 199 833 186 817 q 226 864 213 849 m 392 -24 q 351 -11 372 -11 q 333 -7 340 -11 q 314 -8 325 -3 q 323 -19 318 -15 q 339 -24 328 -24 l 392 -24 m 256 68 q 268 58 263 61 q 279 50 274 54 q 292 44 286 47 q 306 39 299 42 q 319 43 313 35 q 294 60 308 54 q 256 68 279 67 m 75 499 q 74 456 72 475 q 79 417 76 436 q 81 451 79 435 q 83 488 83 468 q 81 491 83 489 q 75 499 78 493 m 226 572 q 238 596 231 585 q 238 622 244 607 q 233 596 235 607 q 226 572 231 585 m 256 799 q 276 806 267 801 q 301 815 286 810 q 283 816 290 815 q 269 814 276 817 q 259 810 264 814 q 256 799 254 806 m 514 93 q 535 117 532 111 q 536 136 538 122 q 523 117 529 126 q 514 93 517 108 m 193 778 q 208 776 200 776 q 213 788 208 782 q 214 804 217 794 q 203 791 208 797 q 193 778 199 785 m 394 68 q 388 65 392 67 q 379 63 383 63 q 369 54 369 60 q 372 52 371 54 q 375 50 372 50 q 381 51 378 50 q 388 54 385 51 q 394 58 392 56 q 394 68 397 61 m 213 714 q 199 694 200 699 q 207 679 199 690 q 213 714 214 696 m 297 960 q 242 960 275 969 q 271 956 258 954 q 297 960 283 957 z "},"1":{"ha":467,"x_min":0,"x_max":517,"o":"m 482 892 q 492 887 489 889 q 499 883 494 885 q 506 877 506 879 q 501 864 507 875 q 508 855 504 858 q 514 847 511 851 q 511 840 511 846 q 504 836 507 838 q 499 833 501 835 q 480 817 486 826 q 469 797 474 808 q 444 713 458 754 q 422 628 431 671 q 400 519 408 574 q 381 408 392 464 q 369 327 375 368 q 356 246 363 286 q 352 227 353 236 q 351 208 351 218 q 349 143 350 176 q 343 78 347 110 q 343 70 343 75 q 340 63 343 65 q 330 37 333 46 q 325 21 326 28 q 324 7 324 14 q 326 -12 325 0 q 309 -25 321 -22 q 286 -36 297 -28 q 284 -56 285 -46 q 283 -76 283 -65 q 280 -83 281 -79 q 278 -89 279 -86 q 275 -92 278 -92 q 272 -92 272 -93 q 261 -89 263 -92 q 258 -79 258 -83 q 256 -69 257 -75 q 256 -46 256 -58 q 254 -21 256 -33 q 247 -7 254 -11 q 237 9 236 0 q 238 28 238 18 q 240 55 239 42 q 244 82 242 68 l 244 103 q 238 99 240 101 q 232 96 236 96 q 225 95 228 96 q 218 96 222 94 q 213 108 213 104 q 220 140 217 125 q 225 171 224 156 q 227 187 226 178 q 231 206 228 196 q 224 219 231 218 q 213 207 213 222 q 208 149 208 179 q 205 75 206 113 q 203 1 204 38 q 200 -5 203 -3 q 196 -10 197 -7 q 186 -9 192 -11 q 179 -4 181 -7 q 175 12 176 4 q 176 25 174 19 q 181 123 179 74 q 186 219 183 172 q 189 258 189 239 q 189 296 189 276 q 194 392 193 344 q 197 489 196 440 q 203 560 200 525 q 210 631 206 594 q 211 650 210 640 q 210 671 213 660 q 198 667 203 668 q 189 663 193 665 q 152 644 171 653 q 115 625 133 635 q 106 621 111 621 q 92 628 96 624 q 91 631 90 628 q 94 638 92 635 q 113 650 101 640 q 95 668 96 663 q 108 682 94 674 q 121 688 114 685 q 131 696 128 692 q 140 706 136 700 q 147 715 144 711 q 93 709 118 718 q 43 685 68 700 q 30 676 38 681 q 15 669 22 672 q 10 670 13 669 q 6 671 8 671 q 3 683 0 681 q 9 690 6 686 q 15 696 13 693 q 33 705 24 700 q 50 714 42 710 q 42 734 42 729 q 54 744 43 739 q 85 763 71 754 q 114 782 99 772 q 203 831 158 806 q 292 882 247 856 q 356 920 325 901 q 419 958 386 939 q 435 967 428 963 q 451 976 442 971 q 460 970 457 974 q 469 965 464 967 q 481 970 476 967 q 492 976 486 974 q 511 967 506 979 q 504 951 517 960 q 474 935 489 943 q 444 919 458 926 q 437 913 440 917 q 431 907 433 910 q 442 906 438 904 q 449 908 446 907 q 467 917 458 914 q 485 922 476 919 q 490 924 486 925 q 497 921 494 922 q 497 908 500 918 q 490 901 494 906 q 482 892 485 896 m 331 468 q 325 461 328 464 q 322 456 322 458 q 321 440 321 447 q 321 425 321 432 q 315 405 314 415 q 319 383 315 394 l 319 426 q 324 432 322 429 q 326 439 326 435 q 328 453 328 446 q 331 469 328 461 q 331 503 339 483 l 331 468 m 249 694 q 238 670 238 682 q 238 644 239 658 q 234 620 235 632 q 233 596 233 608 q 232 569 232 582 q 231 543 232 557 q 232 494 225 521 q 244 591 238 544 q 256 683 250 638 l 256 685 q 254 690 256 688 l 249 694 m 297 206 q 288 179 292 194 q 286 149 285 164 q 298 178 296 168 q 297 206 300 189 m 313 363 q 308 364 308 363 l 308 339 l 313 339 l 313 363 z "},"2":{"ha":626,"x_min":-56,"x_max":664,"o":"m 288 121 q 352 126 324 124 q 411 133 381 129 q 477 140 443 138 q 546 149 511 143 q 568 142 560 149 q 584 135 581 139 q 586 125 588 131 q 575 119 581 118 q 564 119 569 119 q 538 115 550 117 q 511 111 526 114 q 528 103 521 104 q 546 103 536 103 q 553 103 549 103 q 561 101 558 103 q 568 90 568 97 q 568 86 571 89 q 564 83 565 83 q 544 78 553 79 q 525 74 535 76 q 525 49 515 58 q 578 49 549 46 q 612 53 594 51 q 649 57 629 54 l 650 57 q 660 53 656 57 q 663 44 664 49 q 660 39 663 42 q 656 36 657 36 q 633 31 644 33 q 611 29 622 29 q 585 26 597 28 q 561 21 574 25 q 535 15 550 17 q 507 11 521 13 q 468 6 488 8 q 429 -1 449 3 q 449 -3 435 -3 l 469 -3 q 490 -2 481 -3 q 511 -3 500 -1 q 526 -8 521 -3 q 532 -15 532 -10 q 529 -21 532 -19 q 525 -25 526 -22 l 513 -25 q 401 -28 457 -26 q 286 -32 344 -29 q 240 -34 263 -32 q 193 -37 217 -36 q 189 -46 190 -42 q 183 -53 188 -50 q 174 -62 181 -62 q 161 -53 165 -64 q 158 -43 161 -53 q 138 -47 147 -46 q 121 -49 129 -49 q 88 -55 103 -50 q 67 -75 74 -60 q 56 -80 61 -81 q 47 -72 50 -79 q 42 -60 44 -65 q 32 -50 39 -54 q -12 -62 6 -50 q -39 -62 -28 -74 q -50 -53 -44 -57 q -53 -42 -56 -49 q -42 -33 -50 -35 q -28 -32 -35 -32 q -6 -28 -17 -31 q 19 -21 6 -25 q 37 -13 26 -15 q 60 -8 47 -11 q 77 24 67 7 q 100 61 88 42 q 80 56 86 61 q 68 47 74 51 q 47 18 57 31 q 41 13 44 15 q 32 7 38 10 q 26 6 29 4 q 19 11 22 8 q 18 14 18 13 q 19 18 18 17 q 29 31 22 25 q 39 44 36 38 q 65 88 50 67 q 90 128 79 108 q 116 171 103 151 q 144 210 129 190 q 172 251 157 231 q 200 293 186 272 q 228 333 214 313 q 256 374 242 353 q 292 440 278 403 q 333 541 314 492 q 363 643 351 590 q 369 667 367 656 q 375 692 371 679 q 368 751 379 719 q 338 778 360 771 q 308 779 322 781 q 279 769 294 778 q 218 713 247 750 q 194 667 204 690 q 182 621 185 644 q 178 610 181 619 q 173 607 175 608 q 168 606 171 606 q 160 610 164 606 q 157 618 158 614 q 158 626 156 622 q 167 656 163 642 q 178 686 172 671 q 181 695 179 690 q 183 704 182 700 q 175 704 176 707 q 174 700 174 701 q 163 678 168 689 q 154 658 158 668 q 150 644 151 650 q 138 633 149 638 q 133 629 135 633 q 132 622 132 625 l 132 597 q 133 589 132 592 q 139 583 133 586 q 147 576 146 581 q 144 567 147 571 q 126 563 136 563 q 114 569 117 563 q 108 582 111 575 q 106 596 106 589 q 103 614 103 606 q 103 631 103 622 q 87 649 89 643 q 85 679 85 656 q 74 650 78 664 q 78 622 71 636 q 75 606 86 614 q 65 607 71 603 q 56 618 60 611 q 50 644 49 631 q 54 671 51 657 q 59 690 56 681 q 67 707 63 699 q 74 733 69 721 q 82 761 79 746 q 95 799 83 781 q 121 836 107 818 q 172 885 144 864 q 236 921 200 906 q 259 931 247 925 q 283 944 271 938 q 323 965 301 960 q 368 971 344 969 q 467 953 422 971 q 540 890 511 935 q 553 874 546 879 q 581 836 576 861 q 583 832 581 835 q 586 829 585 829 q 601 811 601 822 q 600 788 601 800 q 585 708 594 746 q 564 633 575 671 q 547 586 557 610 q 526 539 538 563 q 515 519 519 524 q 493 510 511 515 q 481 488 486 499 q 469 465 475 476 q 478 458 475 463 q 488 450 482 454 q 440 369 464 410 q 392 288 417 328 q 288 121 346 206 m 194 239 q 174 211 188 231 q 144 169 160 192 q 116 124 129 146 q 97 90 103 101 q 108 90 104 88 q 114 96 113 92 q 118 103 117 99 q 124 111 119 108 q 163 166 147 138 q 193 224 178 194 q 197 231 194 226 q 194 239 199 235 m 446 651 q 447 678 446 665 q 449 704 447 690 q 447 735 449 719 q 433 769 444 750 q 432 745 433 756 q 435 724 431 735 q 443 688 443 706 q 446 651 443 669 m 340 817 q 323 813 332 818 q 307 817 314 808 q 300 815 303 817 q 293 814 297 814 q 280 806 286 811 q 267 792 274 801 q 293 799 283 796 q 312 801 303 801 q 333 799 321 801 q 368 793 346 797 q 353 806 358 800 q 340 817 347 813 m 315 894 q 292 892 300 893 q 280 890 285 892 q 272 885 275 889 q 263 876 268 882 q 289 876 275 876 q 315 878 303 875 q 316 885 315 883 q 317 890 317 888 q 315 892 315 890 l 315 894 m 519 810 q 521 835 524 824 q 500 871 518 847 q 519 810 501 840 m 189 799 q 206 814 200 810 q 203 822 213 818 q 193 828 197 825 q 183 826 188 829 q 182 817 179 822 q 189 799 182 807 m 392 456 q 401 478 397 468 q 408 497 406 488 q 399 499 403 499 q 390 479 390 489 q 392 456 389 469 m 507 704 q 501 685 501 692 q 501 656 500 679 q 507 681 506 671 q 508 701 508 690 l 508 703 l 507 704 m 218 829 q 231 830 226 829 q 239 833 235 831 q 249 839 243 835 q 263 850 254 843 q 237 847 247 850 q 218 829 226 843 m 390 917 q 351 921 369 925 q 369 914 364 914 q 390 917 374 914 z "},"3":{"ha":649,"x_min":10,"x_max":610,"o":"m 432 517 q 440 511 436 514 q 449 508 444 508 q 460 506 454 506 q 472 503 465 506 q 549 461 519 489 q 593 394 579 433 q 605 344 601 369 q 608 294 608 319 q 583 189 608 236 q 511 101 558 142 q 463 65 489 82 q 407 35 436 49 q 281 -10 347 4 q 213 -22 247 -17 q 142 -36 178 -28 q 126 -37 135 -37 q 108 -37 118 -36 q 101 -37 106 -37 q 94 -32 97 -36 q 78 -20 89 -21 q 57 -21 68 -19 q 51 -21 54 -19 q 46 -22 49 -22 q 30 -16 38 -21 q 22 -6 22 -11 q 30 3 25 1 q 40 8 35 6 q 71 14 56 11 q 100 22 86 17 q 86 23 93 22 q 72 24 79 24 q 53 22 61 24 q 33 19 44 19 q 26 21 29 21 q 19 22 24 21 q 12 31 14 25 q 14 40 10 36 q 28 51 21 47 q 46 51 35 54 q 99 52 74 49 q 151 60 125 56 q 161 65 156 60 q 129 65 144 67 q 100 63 114 64 q 83 59 92 60 q 65 57 74 58 q 55 60 60 58 q 46 63 50 61 q 44 73 42 69 q 50 82 47 76 q 38 84 43 83 q 26 88 33 85 q 19 94 19 88 q 25 103 24 101 q 32 106 28 106 q 40 107 36 106 q 54 110 47 108 q 68 119 61 111 q 76 123 71 122 q 88 125 82 124 q 149 133 119 129 q 210 144 178 138 q 251 154 232 147 q 292 169 271 161 q 292 178 294 175 q 290 183 290 181 q 297 194 290 190 q 306 199 300 197 q 317 203 311 200 q 353 228 336 211 q 381 267 369 246 q 397 309 392 288 q 396 349 401 331 q 340 432 385 397 q 286 454 317 451 q 223 459 254 460 q 163 450 192 458 q 135 443 147 447 q 114 428 122 439 q 107 427 111 426 q 100 428 103 428 q 95 433 97 429 q 97 440 93 436 q 107 454 100 449 q 175 479 139 474 q 206 485 190 482 q 235 497 222 489 q 242 503 242 497 q 218 503 229 510 q 194 497 207 496 q 187 506 192 501 q 178 515 182 510 q 150 503 164 508 q 121 493 136 497 q 113 488 118 490 q 101 488 107 486 q 94 488 97 486 q 90 493 90 490 q 90 497 89 494 q 92 500 90 500 q 108 509 101 506 q 122 517 115 513 q 123 535 121 531 q 140 556 125 540 q 132 558 136 560 q 124 553 128 556 q 104 544 115 547 q 86 538 93 542 q 69 542 74 532 q 69 549 67 546 q 75 556 72 551 q 83 559 79 558 q 90 563 88 560 q 205 620 150 589 q 315 683 260 651 q 388 747 361 706 q 404 774 403 763 q 381 803 408 799 q 365 801 374 800 q 344 801 356 801 q 259 788 300 796 q 176 769 218 781 q 153 761 165 765 q 129 750 140 757 q 117 741 124 743 q 100 736 110 739 q 90 751 88 742 q 97 762 93 757 q 103 774 101 767 q 84 784 93 779 q 67 794 75 789 q 68 813 63 804 q 64 831 74 822 q 63 835 61 832 q 65 843 65 839 q 70 851 67 847 q 75 858 74 854 q 68 863 71 865 q 61 858 65 860 q 48 851 54 856 q 32 844 42 846 q 26 844 31 842 q 19 847 22 846 q 21 857 17 850 q 37 867 29 861 q 53 878 44 872 q 68 886 60 882 q 85 894 76 890 q 91 921 85 914 q 119 939 97 928 q 166 955 142 950 q 217 964 190 960 q 230 965 224 965 q 239 968 236 965 q 303 981 264 985 q 340 976 321 978 q 379 969 360 974 q 447 958 413 965 q 515 943 482 950 q 529 940 524 943 q 547 930 544 935 q 546 908 550 925 q 577 868 565 889 q 594 819 589 847 q 599 808 596 814 q 606 793 603 801 q 608 751 610 772 q 601 708 607 729 q 575 647 592 675 q 531 596 558 619 q 490 562 511 578 q 451 531 469 546 q 432 517 443 525 m 449 131 q 462 140 457 136 q 470 147 467 143 q 476 154 474 150 q 481 165 478 158 q 447 132 460 147 q 418 107 429 131 q 449 131 446 119 m 144 797 q 176 805 160 800 q 210 815 193 810 q 242 820 225 819 q 279 828 260 821 q 235 831 254 835 q 196 824 215 826 q 167 816 181 821 q 144 797 153 811 m 419 436 q 399 454 410 447 q 375 467 388 461 q 348 474 358 474 q 318 472 338 475 q 365 456 342 465 q 419 436 389 446 m 565 382 q 549 423 558 410 q 524 446 539 436 q 536 417 532 426 q 544 401 540 407 q 553 391 549 394 q 565 382 557 388 m 211 935 q 115 906 139 933 q 163 920 139 913 q 211 935 188 928 m 401 417 q 396 414 396 414 q 410 385 404 399 q 428 353 417 371 q 426 379 428 368 q 426 399 425 390 q 413 408 418 404 q 401 417 407 411 m 258 589 q 254 590 257 589 q 251 589 251 592 q 213 569 232 581 q 174 546 194 558 q 217 561 194 549 q 258 589 240 574 m 450 283 q 463 294 461 292 q 465 306 465 297 q 467 326 468 319 q 460 346 465 333 q 451 314 450 329 q 450 283 451 299 m 482 879 q 500 858 492 868 q 518 836 508 847 q 497 885 522 864 q 482 879 489 879 m 347 928 q 342 936 353 940 q 313 935 326 938 q 279 925 299 932 q 317 924 303 922 q 347 928 332 926 m 446 476 q 444 467 439 469 q 451 461 449 464 q 465 448 457 454 q 485 442 474 442 q 470 461 475 457 q 446 476 465 465 m 546 667 q 553 663 553 664 q 567 685 564 674 q 571 713 571 697 q 558 690 564 700 q 546 667 553 679 m 560 294 q 548 272 549 276 q 553 258 547 268 q 560 274 560 269 q 560 294 561 278 m 382 222 q 404 236 401 232 q 404 258 407 240 q 393 240 400 247 q 382 222 386 233 m 403 833 q 416 830 413 831 q 432 831 419 829 q 413 840 417 840 q 403 833 410 840 m 425 910 q 439 901 436 903 q 451 900 442 900 q 453 903 453 901 q 458 907 454 904 q 442 908 449 907 q 425 910 435 908 m 385 525 q 399 526 396 525 q 408 535 401 528 l 404 535 q 394 530 397 532 q 385 525 390 528 z "},"4":{"ha":760,"x_min":-56,"x_max":788,"o":"m -7 294 q -8 297 -8 296 q -10 299 -8 297 q -12 300 -11 300 q -7 329 -29 322 q 14 335 4 332 q 35 342 24 338 q 38 347 36 344 q 40 356 40 350 q 58 442 46 399 q 86 529 71 486 q 153 717 117 625 q 232 903 190 810 q 244 933 239 918 q 256 964 250 949 q 260 972 258 968 q 269 975 263 976 q 276 969 272 972 q 285 964 281 967 q 292 967 288 965 q 299 969 296 969 q 308 967 306 969 q 315 964 311 965 q 335 978 329 978 q 356 965 340 979 q 363 976 360 971 q 374 986 367 981 q 390 990 379 990 q 396 985 393 989 q 399 979 399 982 q 406 950 396 958 q 407 944 408 947 q 406 939 406 942 q 394 901 399 919 q 382 864 390 883 l 382 861 q 390 867 389 863 q 397 875 392 871 q 428 926 413 900 q 458 975 443 951 q 468 992 461 983 q 488 1003 475 1000 q 492 997 490 1000 q 494 990 494 994 q 490 981 492 986 q 485 972 488 975 q 449 915 465 946 q 419 856 433 885 q 406 826 413 840 q 393 799 400 813 q 393 785 389 792 q 403 797 400 788 q 424 829 414 813 q 444 861 433 846 q 452 869 447 865 q 463 876 457 872 q 474 875 471 876 q 476 867 476 875 q 468 854 474 858 q 435 792 447 822 q 413 731 424 761 q 392 669 403 700 q 361 606 381 639 q 340 570 350 588 q 322 533 331 553 q 294 468 307 500 q 267 403 282 436 q 264 392 265 397 q 258 379 263 386 q 286 378 276 378 q 304 378 296 378 q 322 378 313 378 q 350 381 331 379 q 417 386 382 382 q 488 394 451 390 q 491 417 490 406 q 494 438 492 428 q 499 492 496 465 q 504 546 503 518 q 515 631 510 586 q 522 719 519 675 q 533 793 528 756 q 540 869 538 831 q 542 878 542 874 q 543 889 542 882 q 549 901 543 899 q 561 909 556 906 q 571 918 567 913 q 586 938 581 922 l 597 938 q 604 925 604 928 q 599 914 601 919 q 594 901 597 908 q 605 900 600 901 q 614 899 610 899 q 617 906 617 904 q 622 938 619 921 q 629 971 625 956 q 638 989 629 982 q 641 991 638 990 q 647 990 644 992 q 653 985 653 990 q 654 977 656 981 q 653 971 653 974 q 649 933 651 951 q 644 894 647 914 q 647 871 642 886 q 656 906 651 889 q 667 940 661 924 q 679 965 668 953 q 696 967 685 974 q 701 962 699 965 q 703 957 703 958 q 704 932 696 942 q 708 921 707 926 q 708 908 708 915 q 708 889 708 899 q 707 869 708 879 q 717 865 714 867 q 725 863 719 864 q 727 813 732 838 q 722 756 722 788 q 743 831 733 796 q 760 903 753 867 q 763 913 761 907 q 774 919 764 919 q 783 913 779 921 q 785 899 788 906 q 762 807 774 851 q 738 715 750 763 q 715 628 726 672 q 696 542 704 585 q 685 481 689 511 q 675 422 681 450 q 681 408 672 411 q 694 396 689 404 q 688 389 690 393 q 682 378 686 385 l 725 378 l 725 353 l 761 353 q 775 343 775 349 q 774 335 778 338 q 763 332 769 332 q 758 331 761 331 q 753 331 756 331 q 767 326 760 328 q 781 321 774 325 q 785 311 785 317 q 783 307 785 310 q 778 304 781 304 l 760 304 q 713 305 736 304 q 661 303 689 306 q 669 297 667 300 q 675 294 672 294 q 688 293 681 293 q 703 293 696 293 q 713 288 707 290 q 725 282 719 285 q 733 276 731 281 q 732 267 735 271 q 717 261 724 258 q 708 263 711 261 q 703 265 706 265 q 696 258 699 263 q 688 251 693 254 q 676 248 682 249 q 664 246 671 247 q 651 207 651 226 q 645 151 650 179 q 647 94 640 122 q 649 90 647 93 q 647 86 650 86 q 636 45 635 67 q 635 4 638 24 l 635 -1 q 630 -7 632 -3 q 624 -11 628 -11 q 617 -9 621 -11 q 614 -3 614 -7 q 613 12 613 4 q 613 28 613 19 l 613 75 q 604 78 608 76 q 594 81 600 79 q 592 74 592 74 q 585 42 588 58 q 578 13 583 26 q 573 -22 572 -6 q 574 -56 574 -39 q 574 -79 574 -68 q 571 -104 574 -90 l 571 -117 q 561 -122 565 -122 q 550 -119 556 -122 q 545 -113 547 -117 q 543 -107 543 -110 l 543 -90 q 540 17 551 -35 q 526 17 532 18 q 513 22 519 15 q 508 28 513 28 q 487 37 490 28 q 483 56 483 46 q 480 124 481 90 q 476 192 479 157 l 476 225 q 472 228 474 226 q 467 231 469 231 q 399 227 431 228 q 332 225 368 226 q 185 221 257 222 q 40 217 114 219 q 14 217 25 217 q -12 222 3 217 q -26 225 -18 225 q -43 225 -33 225 q -24 248 -40 247 q 7 254 -8 249 q 8 260 7 257 q 13 271 10 264 q -4 267 3 268 q -19 267 -11 267 q -32 265 -26 265 q -43 265 -37 265 q -56 271 -50 265 q -53 278 -56 274 q -49 282 -51 282 q -28 289 -39 286 q -7 294 -18 292 m 526 186 q 516 172 521 178 q 508 160 511 167 q 504 149 504 156 l 504 118 q 505 90 504 104 q 506 63 506 76 l 514 63 q 521 123 518 92 q 526 186 524 154 m 350 946 q 315 876 315 919 q 333 913 325 896 q 350 946 340 931 m 132 350 q 149 384 143 369 q 153 414 156 399 q 142 390 147 403 q 131 363 136 376 q 131 359 131 361 q 132 350 132 357 m 25 306 q 53 300 40 299 q 81 306 65 301 l 81 308 l 81 313 q 78 316 81 315 q 74 317 75 317 q 49 311 61 314 q 25 306 36 308 m 93 369 q 82 372 88 372 q 72 365 71 369 q 72 353 72 360 q 81 347 72 349 q 85 352 82 350 q 90 357 88 354 q 93 369 93 361 m 599 756 q 603 775 601 765 q 599 797 606 785 l 599 756 z "},"5":{"ha":671,"x_min":1,"x_max":681,"o":"m 85 388 q 71 386 76 390 q 61 378 65 382 q 49 378 51 375 q 43 388 39 383 q 56 413 51 400 q 74 435 61 426 q 67 449 71 438 q 56 444 60 450 q 43 438 51 438 q 31 445 35 440 q 21 456 26 450 q 24 461 24 458 q 42 479 33 471 q 58 497 51 488 q 63 510 63 503 q 64 533 65 522 q 63 556 63 544 q 60 651 61 603 q 57 747 58 699 q 56 754 57 750 q 54 761 54 758 q 41 767 47 768 q 29 765 35 765 q 18 763 22 764 q 8 761 14 761 q 1 767 1 761 q 3 778 1 775 q 8 782 4 781 q 17 783 13 783 q 33 788 25 786 q 49 790 40 789 q 50 799 53 796 q 44 807 47 803 q 41 810 43 808 q 42 814 39 813 q 43 830 47 821 q 43 844 39 839 q 46 871 49 860 q 36 892 43 882 q 65 914 44 914 q 83 915 71 915 q 152 919 118 917 q 221 924 186 921 q 225 925 224 924 q 228 926 226 926 q 233 933 233 929 q 244 943 236 944 q 251 938 247 943 q 261 929 254 933 q 287 928 272 926 q 317 929 301 929 q 367 935 342 932 q 418 940 393 938 q 491 949 456 946 q 563 957 526 953 q 572 958 568 958 q 579 958 576 958 q 601 935 607 958 q 604 921 597 928 q 608 911 611 915 q 599 900 604 907 q 620 899 610 897 q 640 897 631 900 q 678 893 658 897 q 681 886 681 893 q 674 881 681 881 q 661 879 671 879 q 599 876 629 878 q 536 871 568 874 q 551 863 543 864 q 565 860 558 861 q 583 854 581 857 q 589 836 586 851 q 606 836 596 836 q 626 833 615 836 q 635 825 631 833 q 631 818 635 822 q 621 814 625 815 q 611 810 617 813 q 558 803 585 807 q 506 797 531 800 q 434 793 469 794 q 363 790 399 792 q 307 788 335 789 q 251 785 279 788 q 228 765 228 783 q 223 723 225 744 q 219 681 221 701 q 216 633 218 657 q 214 586 214 610 q 215 576 214 581 q 218 564 215 571 q 239 568 229 567 q 260 572 249 569 q 387 572 326 583 q 503 525 447 561 q 522 512 513 518 q 543 500 532 506 q 599 444 581 478 q 623 396 614 421 q 631 342 632 371 l 631 328 q 625 247 636 286 q 590 171 614 207 q 587 163 589 167 q 582 153 585 158 l 583 151 q 585 149 583 150 q 596 158 592 151 q 607 171 600 164 q 615 178 611 174 q 621 185 618 182 q 626 185 624 186 q 631 185 628 185 q 635 181 632 183 q 638 176 638 178 q 632 165 638 171 q 609 140 621 153 q 586 117 597 128 q 568 99 579 107 q 546 85 557 92 q 556 65 551 71 q 547 60 550 63 q 539 54 543 57 q 397 3 471 24 q 325 -19 361 -8 q 253 -43 289 -31 q 206 -56 229 -50 q 160 -68 183 -62 q 139 -69 149 -69 q 118 -72 129 -69 q 113 -72 117 -72 q 107 -69 110 -72 q 102 -66 104 -68 q 103 -62 100 -64 q 105 -58 103 -61 q 110 -54 107 -54 q 135 -50 122 -51 q 158 -47 147 -49 q 164 -46 161 -47 q 171 -42 167 -44 q 135 -42 151 -42 q 99 -39 118 -42 q 90 -39 94 -39 q 83 -37 86 -39 q 76 -25 76 -35 q 78 -21 76 -24 q 85 -18 81 -18 q 106 -17 96 -15 q 126 -14 115 -18 q 118 -9 121 -10 q 113 -7 115 -8 q 98 -2 106 -4 q 83 3 90 0 q 79 17 75 6 q 82 18 81 17 q 85 21 82 18 q 101 36 96 31 q 111 51 106 42 q 189 69 151 56 q 267 99 226 83 q 253 96 258 99 q 181 83 217 90 q 107 69 144 76 q 94 68 100 67 q 79 69 88 69 q 74 73 76 71 q 71 78 71 75 q 74 84 71 81 q 79 89 76 88 q 85 94 86 89 q 83 106 85 100 q 81 118 81 113 q 88 124 81 124 q 187 146 138 131 q 294 176 236 161 q 353 190 319 183 q 411 213 388 197 q 431 226 422 218 q 450 239 439 233 q 469 293 478 263 q 461 320 465 307 q 451 344 457 333 q 422 376 440 365 q 381 393 403 388 q 300 400 340 406 q 222 388 260 394 q 146 376 185 382 q 125 372 135 375 q 104 368 115 369 q 89 367 93 365 q 85 382 85 369 q 83 388 85 386 q 102 388 93 386 q 118 399 111 390 q 99 395 103 396 q 85 388 96 394 m 111 694 q 103 532 106 614 l 103 519 l 103 518 q 104 517 103 517 l 111 517 l 111 694 m 188 442 q 201 436 200 436 q 259 439 229 438 q 319 442 289 440 q 321 444 319 443 q 323 447 322 446 q 326 450 324 449 q 258 451 290 453 q 188 442 225 450 m 253 893 q 297 893 272 890 q 342 903 321 896 q 295 903 313 906 q 253 893 278 901 m 586 928 q 583 932 588 928 q 582 935 582 933 q 555 932 568 933 q 531 926 542 931 q 551 924 542 924 q 572 924 561 924 q 580 925 576 924 q 586 928 583 926 m 214 476 q 250 474 233 472 q 283 479 267 475 q 271 482 276 482 q 258 482 265 482 q 235 478 246 479 q 214 476 225 478 m 93 447 q 106 447 101 444 q 117 454 111 450 q 115 460 118 457 q 111 464 113 464 q 102 463 106 464 q 96 460 99 461 q 93 447 88 451 m 110 885 q 101 874 103 881 q 104 865 100 868 q 110 863 104 863 q 114 874 115 869 q 110 885 113 879 m 444 392 q 453 380 449 385 q 469 368 458 375 q 444 392 463 388 m 181 407 q 199 407 190 407 q 221 410 208 407 q 181 407 199 415 m 519 407 q 524 411 524 411 q 518 425 521 417 q 504 421 507 435 q 513 414 508 418 q 519 407 517 410 z "},"6":{"ha":757,"x_min":22,"x_max":749,"o":"m 197 847 q 213 880 206 865 q 226 910 219 894 q 263 963 242 936 q 283 976 269 972 q 295 976 289 979 q 300 968 301 972 q 298 953 300 960 q 294 940 296 947 q 287 926 292 933 q 282 907 282 918 q 301 935 293 922 q 317 958 310 947 q 325 969 321 963 q 333 979 329 975 q 338 983 336 981 q 342 988 340 986 q 351 988 347 990 q 358 982 356 986 q 358 971 363 978 q 296 884 321 929 q 250 790 271 839 q 249 785 250 788 q 249 779 249 783 l 249 778 q 250 774 249 775 q 256 785 254 781 q 261 794 258 790 q 303 870 282 833 q 349 943 324 907 q 400 1004 378 974 q 413 1011 407 1007 q 425 1019 418 1015 q 436 1021 432 1024 q 449 1007 440 1018 q 419 985 432 997 q 393 957 406 972 q 406 953 401 949 q 417 958 411 957 q 426 957 422 961 q 431 954 429 957 q 429 949 432 951 q 424 940 426 944 q 418 932 422 936 q 388 876 403 904 q 356 818 372 847 q 351 813 353 815 q 353 807 350 811 q 361 817 357 811 q 368 826 365 822 q 403 876 386 851 q 436 926 421 901 q 444 935 442 931 q 451 943 447 940 q 461 946 456 947 q 469 939 467 944 q 461 922 468 932 q 394 824 428 874 q 333 722 360 775 q 305 667 318 694 q 278 611 292 639 q 274 599 275 606 q 269 586 272 593 q 278 584 274 586 q 286 582 283 582 q 331 582 308 585 q 374 575 353 579 q 450 567 413 567 q 491 565 471 569 q 529 556 511 561 q 553 547 542 550 q 578 543 564 543 q 583 540 581 543 q 616 524 599 531 q 649 506 633 517 q 682 476 665 492 q 714 446 699 461 q 723 431 724 436 q 710 414 722 425 q 734 367 721 390 q 749 317 747 344 q 740 312 744 314 q 733 308 736 310 q 735 288 735 297 q 736 267 736 278 q 731 244 736 249 q 703 238 726 239 q 702 224 703 231 q 700 211 701 218 q 694 192 697 200 q 681 179 692 183 q 668 163 669 172 q 663 153 665 158 q 658 140 661 147 q 671 138 667 138 q 681 121 683 135 q 677 114 678 118 q 674 107 676 110 q 632 64 658 83 q 526 8 585 29 q 511 3 518 7 q 493 -3 504 0 q 535 -3 517 -7 q 542 -1 538 -3 q 549 0 546 0 q 556 -6 556 0 q 557 -12 558 -8 q 554 -17 556 -15 q 546 -21 550 -19 q 539 -24 542 -22 q 492 -29 515 -26 q 444 -28 468 -32 q 389 -23 418 -24 q 328 -24 360 -22 q 424 -61 374 -58 q 451 -65 439 -64 q 478 -58 463 -65 q 484 -59 481 -58 q 489 -61 488 -60 q 483 -76 494 -71 q 438 -86 464 -90 q 383 -79 411 -83 q 328 -67 356 -75 q 311 -63 319 -65 q 294 -68 303 -61 q 275 -68 289 -74 q 231 -47 251 -58 q 192 -21 210 -36 q 126 52 153 14 q 83 139 99 90 q 63 203 72 171 q 42 272 53 236 q 33 415 22 339 q 38 462 36 439 q 42 508 39 485 q 55 587 47 549 q 75 663 63 625 q 104 747 90 706 q 133 828 118 788 q 147 860 138 844 q 158 875 150 868 q 179 875 168 886 q 188 862 183 868 q 197 847 192 856 m 488 144 q 490 162 489 158 q 501 176 492 165 q 536 235 526 204 q 526 299 546 265 l 526 304 q 468 361 508 349 q 445 369 456 365 q 424 376 435 374 q 364 389 396 385 q 317 393 340 392 q 269 396 293 394 q 233 389 247 396 q 228 307 226 347 q 236 228 231 267 q 241 203 238 215 q 246 179 244 190 q 271 151 250 160 q 308 142 289 146 q 347 138 326 138 q 416 135 382 135 q 488 144 450 135 m 681 224 q 681 263 681 243 q 682 303 682 283 l 682 346 q 674 380 681 365 q 661 410 668 394 q 647 422 657 419 q 632 432 636 424 q 626 436 632 431 q 622 440 624 439 q 615 436 619 440 q 645 392 632 415 q 663 340 658 368 q 668 285 669 313 q 661 229 667 257 q 670 226 667 228 q 681 224 674 225 m 624 238 q 621 225 621 233 q 608 195 614 210 q 590 168 601 181 q 565 146 578 156 q 536 125 551 136 q 522 116 529 119 q 507 107 515 113 l 521 107 q 545 119 532 113 q 571 131 558 125 q 579 137 576 133 q 585 143 582 140 q 603 171 596 157 q 624 197 610 185 q 626 213 626 203 q 626 225 626 219 q 625 238 625 231 l 624 238 m 417 108 q 349 112 382 108 q 282 125 315 115 q 280 111 279 117 q 283 99 281 106 q 350 97 317 96 q 417 108 383 99 m 106 667 q 82 599 93 640 q 64 514 71 558 q 63 497 63 506 q 68 476 64 489 q 78 526 72 503 q 86 574 83 549 q 97 618 92 597 q 106 667 103 639 m 256 531 q 257 524 257 528 q 333 532 294 535 q 411 532 371 529 q 396 544 399 544 q 368 544 382 546 q 315 542 342 543 q 261 538 288 540 q 258 535 258 538 q 256 531 257 532 m 568 275 q 567 262 568 268 q 567 250 567 256 q 565 244 565 247 q 561 238 564 240 q 554 219 558 225 q 550 211 551 214 q 547 204 549 208 q 539 188 544 196 q 528 174 535 176 q 523 167 526 169 q 522 157 519 164 q 560 204 551 171 q 566 218 564 211 q 572 231 568 225 q 568 275 586 253 m 526 525 q 585 488 557 503 q 625 471 614 474 q 584 510 608 497 q 526 525 560 522 m 129 225 q 118 265 124 244 q 113 306 113 285 q 110 308 113 308 l 108 308 q 101 311 103 311 q 97 308 100 311 q 96 304 94 306 q 102 294 99 299 q 106 283 106 290 q 110 248 103 264 q 129 215 118 232 l 129 225 m 167 181 q 176 162 171 171 q 186 143 182 153 q 193 138 189 139 q 208 135 197 138 q 192 161 200 147 q 167 181 185 175 m 335 442 q 297 447 315 446 q 258 446 278 447 q 254 445 257 446 q 250 442 251 444 l 250 436 q 254 435 251 436 q 258 433 257 433 q 297 438 278 436 q 335 442 315 440 m 500 374 q 522 351 511 363 q 543 328 532 339 q 539 354 550 343 q 522 367 529 360 q 500 374 514 374 m 574 326 q 576 317 571 319 q 583 310 581 314 q 588 301 585 306 q 592 293 590 296 q 596 284 594 289 q 600 275 597 279 q 611 279 608 269 q 594 310 600 303 q 574 326 588 317 m 231 14 q 249 -12 239 -6 q 283 -22 260 -19 q 256 -3 268 -11 q 231 14 244 4 m 185 829 q 167 800 172 817 q 164 768 161 783 q 177 798 169 783 q 185 829 185 813 m 632 353 q 626 338 628 343 q 621 326 624 332 q 628 313 625 319 q 639 303 632 307 q 640 327 642 317 q 632 353 638 338 m 547 436 q 566 427 557 431 q 585 419 575 424 q 588 418 585 417 q 592 419 590 419 q 573 433 585 432 q 547 436 561 433 m 61 383 q 58 357 58 363 q 61 340 58 351 l 61 383 m 493 476 q 510 472 503 474 q 529 465 518 469 q 507 481 511 479 q 493 476 503 482 m 436 57 q 451 56 447 54 q 471 65 456 57 q 451 61 460 63 q 436 57 443 60 m 197 44 q 193 40 197 44 q 201 32 196 35 q 208 25 206 29 q 213 21 211 22 q 218 26 215 19 q 208 35 214 31 q 197 44 203 40 m 710 256 q 713 270 713 267 q 710 286 713 274 q 706 270 707 278 q 710 256 704 263 z "},"7":{"ha":742,"x_min":-36,"x_max":865,"o":"m 589 996 q 609 1001 604 1003 q 625 982 614 999 q 637 982 631 982 q 650 983 643 982 q 656 1000 653 993 q 664 1014 658 1007 q 672 1026 667 1022 q 678 1027 675 1028 q 685 1026 682 1026 q 690 1018 690 1022 q 685 1006 689 1011 q 681 996 682 1001 q 705 990 699 989 q 718 1003 711 992 q 724 1016 721 1010 q 732 1028 728 1022 q 746 1028 738 1031 q 750 1022 750 1028 q 742 999 747 1008 q 772 1001 757 999 q 803 1006 788 1003 q 821 1011 813 1010 q 831 1012 826 1014 q 836 1006 836 1010 q 829 993 838 997 q 815 987 822 989 q 801 982 808 985 q 794 981 797 982 q 788 978 790 979 q 799 976 793 976 q 810 974 804 976 q 817 967 814 974 q 810 954 817 954 q 797 953 803 953 q 785 950 792 953 q 771 949 778 950 q 758 944 764 947 q 749 924 743 938 q 828 921 785 914 q 842 924 835 924 q 857 919 850 924 q 865 910 864 914 q 863 900 865 907 q 815 897 839 899 q 768 882 792 894 q 774 881 771 881 q 779 879 776 881 q 785 861 797 872 q 782 854 783 857 q 783 846 781 851 q 787 831 786 839 q 788 813 788 822 q 758 808 772 810 q 726 803 743 806 q 732 795 729 799 q 736 788 735 792 q 732 771 736 779 q 640 479 683 624 q 556 188 596 335 q 542 134 547 160 q 529 81 536 108 q 528 74 529 76 q 526 68 526 71 q 517 53 519 56 q 499 43 514 50 q 496 32 496 39 q 493 19 496 25 q 488 10 490 15 q 483 1 486 6 q 481 -1 483 0 q 475 -3 478 -3 q 469 1 472 0 q 467 7 467 3 q 467 21 467 14 q 464 35 467 28 q 456 6 458 19 q 450 -24 453 -8 q 448 -35 450 -31 q 438 -40 446 -40 q 422 -48 424 -40 q 418 -64 419 -56 q 414 -77 417 -71 q 410 -90 411 -83 q 396 -103 407 -107 q 388 -97 389 -101 q 390 -87 388 -93 q 396 -57 393 -71 q 403 -28 399 -43 q 404 -15 403 -22 q 403 -4 406 -7 q 397 23 393 11 q 407 46 401 35 q 415 67 410 57 q 422 89 419 78 q 424 106 425 97 q 423 140 419 124 q 432 175 426 156 l 432 188 q 426 192 429 192 q 419 188 422 192 q 418 175 418 182 q 418 163 418 168 q 417 142 417 151 q 418 122 418 133 q 394 76 397 108 q 388 51 392 64 q 381 22 385 38 q 376 10 378 17 q 371 -3 375 4 q 364 -4 369 -4 q 356 1 356 -3 q 363 35 356 22 q 347 51 349 47 q 350 69 346 56 q 371 151 361 110 q 392 233 381 193 q 400 279 396 257 q 408 325 404 301 q 434 445 419 386 q 463 565 449 504 q 488 659 476 613 q 514 751 500 706 q 515 767 515 758 q 517 783 515 775 q 508 784 513 783 q 499 785 503 785 q 422 779 461 782 q 344 774 383 776 q 324 774 333 774 q 308 772 315 774 q 263 768 285 771 q 218 763 242 765 q 199 757 208 760 q 183 742 189 754 q 172 742 178 742 q 163 746 167 743 q 140 754 143 750 q 136 782 138 758 q 163 793 149 786 q 161 794 161 793 l 161 797 q 138 790 149 794 q 131 790 135 790 q 125 793 128 790 q 118 800 118 793 q 118 804 117 801 q 122 807 119 807 q 136 814 126 811 q 172 821 156 818 q 208 828 189 824 q 217 832 214 831 q 229 836 221 833 q 220 839 222 838 q 217 840 218 840 q 145 831 181 835 q 74 822 110 826 q 50 814 58 822 q 28 815 40 803 q 24 826 24 821 q 29 833 24 831 q 38 837 33 836 q 44 840 42 838 q 72 847 58 844 q 99 851 86 849 q 96 856 99 856 q 89 856 93 856 q 49 855 69 856 q 10 851 29 854 q -7 849 1 849 q -26 850 -15 850 q -33 853 -31 850 q -36 857 -36 856 q -31 867 -36 861 q -22 870 -26 869 q -12 874 -17 871 q 129 886 58 878 q 149 888 140 886 q 168 894 158 889 q 156 904 168 904 q 141 903 147 904 q 128 901 135 901 q 119 905 124 901 q 117 911 115 908 q 120 918 118 915 q 125 924 122 921 q 160 927 143 925 q 193 931 176 929 q 267 940 231 935 q 339 949 303 944 q 407 955 372 951 q 475 961 442 958 q 510 966 493 964 q 543 971 526 968 q 561 982 557 971 q 564 991 564 986 q 565 999 564 996 q 576 1006 569 1006 q 585 1000 582 1006 q 588 998 588 999 q 589 996 588 997 m 569 790 q 559 773 560 778 q 564 751 558 768 q 568 769 564 760 q 569 790 572 778 m 615 757 q 626 775 621 768 q 625 793 631 782 q 619 777 622 786 q 615 757 615 768 m 325 797 q 304 803 314 804 q 288 797 294 801 l 325 797 z "},"8":{"ha":651,"x_min":22,"x_max":631,"o":"m 128 561 q 125 578 125 572 q 103 626 113 601 q 86 674 94 650 q 77 752 75 714 q 90 828 79 790 q 118 865 96 853 q 125 863 121 865 q 136 860 129 861 q 138 863 135 860 q 151 879 144 871 q 161 894 157 888 q 183 922 172 910 q 210 942 194 933 q 236 958 225 950 q 263 976 247 967 q 281 988 272 982 q 300 999 290 993 q 381 1026 340 1021 q 465 1017 422 1032 q 532 989 500 1008 q 559 967 547 979 q 582 940 571 954 q 585 929 582 940 q 576 926 581 928 q 567 922 571 925 q 596 861 585 893 q 614 797 607 829 q 619 779 618 788 q 624 761 621 771 q 615 514 631 638 q 613 489 615 501 q 597 465 610 476 q 593 458 593 463 q 590 449 593 453 q 588 442 589 444 q 585 435 588 439 q 578 433 581 431 q 568 440 568 433 q 569 449 569 444 q 571 457 569 453 q 574 494 574 476 q 574 531 575 513 q 571 521 571 526 q 557 469 564 494 q 543 417 550 443 q 547 388 538 401 q 588 313 571 351 q 611 233 604 275 q 615 217 614 226 q 618 197 615 208 q 615 185 618 190 q 613 174 613 181 q 604 165 610 167 q 600 165 603 165 q 594 165 597 164 q 590 174 590 169 q 594 206 597 189 q 589 243 592 224 q 584 231 586 236 q 583 224 582 226 q 578 197 581 210 q 572 168 575 183 q 529 75 564 114 q 501 48 515 60 q 468 29 488 36 q 397 5 432 17 q 324 -11 363 -7 q 192 11 251 -22 q 186 15 189 14 q 181 19 183 17 q 216 -11 196 0 q 260 -22 236 -22 q 268 -24 265 -19 q 273 -28 271 -24 q 272 -35 275 -32 q 250 -43 267 -44 q 226 -37 236 -40 q 206 -28 217 -35 q 151 8 175 -12 q 106 57 128 29 q 95 73 100 64 q 82 88 90 82 q 66 106 71 94 q 57 129 61 118 q 31 242 39 186 q 25 357 22 297 q 37 428 26 394 q 61 494 47 463 q 85 530 72 517 q 128 561 99 543 m 201 483 q 192 463 194 474 q 186 443 189 453 q 182 297 169 368 q 224 156 194 225 q 247 132 231 139 q 304 116 275 118 q 364 125 333 114 q 407 150 390 135 q 428 193 424 165 q 429 201 428 197 q 431 210 431 204 q 430 281 438 246 q 390 344 422 315 q 361 368 376 363 q 338 378 349 372 q 318 388 326 383 q 285 412 301 400 q 251 438 269 424 q 227 459 239 449 q 201 483 215 469 m 439 499 q 447 535 446 521 q 451 592 450 564 q 456 649 453 619 q 447 735 457 693 q 421 817 436 776 q 413 832 418 825 q 406 847 408 839 q 368 872 396 865 q 336 871 353 878 q 310 850 321 863 q 288 825 299 838 q 257 774 268 801 q 244 718 246 747 q 246 670 242 693 q 256 622 250 647 q 283 592 260 597 q 353 556 319 576 q 418 514 386 536 q 427 508 422 511 q 439 499 432 504 m 303 957 l 304 956 q 334 957 319 956 q 364 960 349 958 q 421 951 393 960 q 449 940 436 946 q 472 924 463 933 q 496 904 485 914 q 518 885 507 894 q 533 863 528 874 q 546 839 538 851 q 544 854 544 846 q 540 867 544 863 q 502 916 522 893 q 457 954 482 939 q 408 974 433 968 q 356 972 382 979 q 329 965 343 969 q 300 957 315 961 l 303 957 m 101 514 q 99 515 100 514 q 88 502 92 508 q 82 490 85 496 q 56 419 67 456 q 47 347 46 383 q 43 327 44 338 q 49 307 42 317 q 69 411 54 360 q 101 514 83 463 m 417 108 q 406 101 410 104 q 396 94 403 97 q 385 89 390 92 q 372 83 379 86 q 364 79 368 81 q 353 76 360 78 q 342 76 346 76 q 331 74 338 75 q 317 72 324 72 q 306 71 311 71 q 296 69 301 69 q 288 65 290 69 q 319 58 307 58 q 350 61 331 57 q 394 73 374 65 q 432 93 414 81 q 417 108 425 101 m 181 729 q 176 722 178 724 q 174 718 174 721 q 172 682 169 700 q 178 647 175 664 q 183 631 178 642 q 194 619 188 622 q 201 617 197 618 q 211 613 204 615 q 202 632 206 624 q 196 647 199 640 q 188 692 182 669 q 188 709 190 700 q 181 729 185 718 m 521 426 q 541 489 533 457 q 547 543 549 521 q 542 531 544 536 q 540 521 540 526 q 524 482 532 501 q 510 443 517 463 q 521 426 506 433 m 135 801 q 129 799 129 799 l 128 797 q 128 770 125 783 q 119 746 131 757 q 119 738 118 742 q 121 731 121 735 q 131 689 126 710 q 143 647 136 668 q 140 686 142 667 q 135 725 138 706 l 135 801 m 510 813 q 492 865 508 840 q 474 886 488 879 q 439 897 457 899 q 459 878 449 886 q 479 858 469 869 q 494 838 486 849 q 510 813 503 826 m 353 19 q 343 22 346 21 q 338 24 340 24 q 261 22 297 8 q 239 28 250 26 q 217 31 228 29 q 213 31 214 32 q 210 31 213 31 q 274 8 235 11 q 353 19 313 4 m 446 114 q 456 128 454 121 q 460 144 457 136 q 462 158 463 156 q 456 172 461 161 q 440 149 444 163 q 428 121 435 136 q 437 117 432 118 q 446 114 442 117 m 560 661 q 560 720 561 690 q 554 783 558 750 q 549 720 547 750 q 560 661 551 690 m 283 889 q 257 885 267 890 q 240 875 247 881 q 208 847 221 863 q 205 840 206 844 q 201 829 204 836 q 241 859 221 844 q 283 889 261 874 m 299 433 q 329 407 314 418 q 364 388 344 396 q 340 414 353 403 q 311 432 326 425 q 305 434 308 435 q 299 433 301 433 m 208 742 q 210 761 208 754 q 211 775 211 768 q 217 790 214 782 q 224 810 221 799 q 206 791 213 799 q 197 772 199 783 q 208 742 193 757 m 532 269 q 526 301 532 289 q 508 328 521 314 q 507 314 501 318 q 518 292 511 303 q 532 269 525 281 m 88 250 q 95 288 94 269 q 93 326 96 307 q 88 269 88 300 q 87 260 86 265 q 88 250 88 256 m 511 93 q 485 81 493 88 q 469 56 478 74 q 511 93 499 68 m 525 189 q 521 175 522 182 q 524 161 519 168 q 534 174 529 168 q 539 189 539 181 q 532 190 535 189 q 525 189 529 190 m 492 632 q 499 651 496 642 q 492 675 503 661 q 490 651 492 661 q 492 632 489 642 m 425 446 q 424 466 426 464 q 403 464 421 468 q 413 455 408 458 q 425 446 418 451 m 114 97 q 128 71 114 82 q 114 97 131 85 m 268 76 q 255 81 261 79 q 242 85 249 82 q 248 73 244 78 q 254 65 251 68 q 261 70 258 68 q 268 76 264 72 m 543 344 q 537 361 542 356 q 526 374 532 367 q 527 357 521 363 q 543 344 533 351 m 144 535 q 135 515 132 529 q 140 525 138 521 q 144 535 142 529 z "},"9":{"ha":613,"x_min":26,"x_max":590,"o":"m 429 414 q 386 408 410 411 q 333 404 363 404 q 269 410 304 404 q 190 436 233 417 q 203 422 196 426 q 218 413 210 417 q 222 408 221 411 q 221 400 224 404 q 208 396 218 396 q 197 400 203 396 q 185 413 189 404 q 136 446 164 436 q 120 440 125 440 q 108 447 115 439 q 92 469 100 458 q 79 492 85 479 q 49 567 63 529 q 29 647 36 606 q 27 662 28 654 q 28 678 26 669 q 32 717 29 697 q 38 757 35 738 q 51 804 42 782 q 72 847 60 826 q 108 882 89 871 q 122 892 115 886 q 136 903 129 897 q 162 920 149 913 q 192 931 175 928 q 203 923 197 926 q 213 915 208 919 q 236 921 225 919 q 258 928 247 922 q 225 932 242 931 q 192 931 208 933 q 189 933 190 932 q 186 938 188 935 q 193 954 181 951 l 224 954 q 236 972 229 965 q 248 976 242 976 q 261 976 254 976 q 283 976 272 976 q 304 978 293 975 q 319 978 311 981 q 335 975 328 976 q 381 956 360 968 q 422 928 403 943 q 437 915 429 921 q 456 904 444 908 q 465 899 461 903 q 472 892 468 896 q 501 858 489 876 q 525 818 514 839 q 570 693 557 757 q 579 560 583 629 q 578 548 579 554 q 576 535 576 542 q 579 528 579 532 q 582 521 579 524 q 590 510 589 515 q 588 497 590 504 q 587 483 588 490 q 586 468 586 476 q 576 389 583 428 q 554 311 569 350 q 532 259 544 285 q 503 210 519 233 q 483 181 493 194 q 463 151 472 167 q 456 142 458 149 q 426 117 440 129 q 400 89 411 104 q 362 51 383 65 q 317 24 340 36 q 263 -3 290 8 q 204 -21 236 -14 q 135 -23 168 -28 q 68 -4 101 -18 q 57 1 63 -1 q 49 11 51 4 q 46 15 46 13 q 49 21 46 18 q 57 24 51 24 q 60 25 60 26 q 63 22 61 24 q 92 8 76 13 q 124 1 108 4 q 133 1 128 1 q 142 4 138 1 q 179 26 164 13 q 147 28 163 28 q 117 29 132 28 q 81 38 97 32 q 50 51 65 43 q 44 56 47 53 q 39 61 42 58 q 39 81 29 71 q 43 85 40 83 q 49 90 46 88 q 47 99 49 94 q 46 107 46 103 q 54 121 46 113 q 44 126 50 124 q 35 132 39 128 q 33 142 32 138 q 40 149 33 149 q 46 151 43 151 q 51 151 49 151 q 82 147 67 149 q 113 142 97 144 q 225 163 172 133 q 317 232 274 189 q 377 303 350 265 q 422 383 404 340 q 428 399 425 392 q 429 414 432 406 q 442 444 440 429 q 446 475 444 460 q 447 487 447 481 q 439 499 446 493 q 417 488 428 493 q 396 475 407 483 q 413 476 407 475 q 420 478 417 476 q 428 479 424 479 q 435 475 431 479 q 435 464 438 472 q 431 460 433 463 q 425 457 428 458 q 413 454 419 456 q 400 451 407 453 l 365 451 q 354 433 357 440 q 338 433 346 433 q 321 435 329 433 q 311 435 314 435 q 299 428 308 435 q 356 426 328 429 q 413 431 385 424 q 425 430 422 433 q 429 414 428 426 m 439 532 q 438 539 439 535 q 436 547 436 543 q 429 562 433 554 q 429 581 425 569 q 425 592 431 582 q 419 609 422 600 q 413 626 415 618 q 361 711 394 676 q 282 769 328 746 q 215 774 250 789 q 169 717 175 758 q 168 706 168 711 q 168 694 168 700 q 192 592 168 643 q 205 561 199 572 q 219 542 211 550 q 240 531 228 535 q 272 521 253 526 l 276 521 q 338 514 307 514 q 401 514 369 514 q 439 532 425 517 m 353 181 q 350 182 351 181 q 329 165 339 174 q 308 149 319 157 q 295 136 301 142 q 282 125 289 131 q 261 121 272 117 q 246 119 253 126 q 224 110 235 115 q 203 101 214 106 q 182 108 188 99 q 175 119 179 117 q 153 115 164 117 q 129 111 142 114 q 193 93 158 93 q 260 105 228 93 q 319 137 293 117 q 356 181 344 157 l 353 181 m 551 424 q 542 404 543 415 q 538 383 542 393 q 531 360 533 372 q 524 338 528 349 q 508 297 518 319 q 499 275 503 286 q 489 254 494 264 q 477 235 482 244 q 467 215 472 225 q 453 195 460 204 q 440 174 446 186 q 463 192 456 185 q 478 215 469 200 q 506 271 493 243 q 529 329 518 299 q 551 424 544 372 m 478 565 q 449 630 465 599 q 417 678 432 661 q 419 668 418 671 q 422 663 421 665 q 436 627 429 644 q 450 592 443 610 q 453 578 451 585 q 458 564 456 571 q 478 565 464 551 m 474 744 q 467 772 474 758 q 451 797 460 786 q 410 819 433 815 q 440 782 421 797 q 474 744 458 767 m 182 808 q 217 815 201 807 q 249 826 232 824 q 253 835 247 826 q 214 831 231 840 q 182 808 197 821 m 319 893 q 322 888 319 893 q 361 871 342 879 q 400 854 381 863 q 406 857 403 851 q 383 874 396 867 q 351 888 371 881 q 337 894 344 890 q 319 893 329 897 m 113 718 q 132 745 122 733 q 150 772 142 757 l 150 774 q 147 778 150 775 q 137 774 140 779 q 129 763 133 768 q 115 740 118 749 q 111 718 111 731 l 113 718 m 275 78 q 258 83 264 83 q 229 72 251 82 q 233 65 229 65 q 240 64 236 64 q 275 78 257 71 m 351 490 q 315 494 333 492 q 275 497 297 497 q 304 489 293 492 q 322 485 315 486 q 335 486 329 485 q 351 490 342 488 m 332 114 q 358 133 353 128 q 368 153 363 139 q 332 114 344 138 m 124 829 q 106 813 113 822 q 100 789 100 804 q 122 815 119 810 q 124 829 125 819 m 144 832 q 156 842 151 839 q 163 847 160 844 q 169 851 165 849 q 171 860 174 853 q 154 853 161 857 q 144 832 147 849 m 131 606 q 127 591 128 597 q 133 581 126 585 q 138 581 135 581 q 144 582 140 582 q 137 594 140 589 q 131 606 133 600 m 532 538 q 531 517 531 521 q 536 503 532 513 q 540 518 540 511 q 532 538 539 525 m 96 101 q 129 83 106 83 q 110 93 118 89 q 96 101 103 97 m 153 625 q 155 638 156 635 q 147 650 154 640 q 147 635 146 638 q 153 625 147 632 m 283 435 q 264 442 268 442 q 249 440 260 443 q 265 434 257 438 q 283 435 272 431 m 378 733 q 372 729 374 733 q 381 721 376 725 q 390 713 386 717 l 390 714 q 393 715 390 714 q 378 733 388 726 m 100 657 q 103 670 101 664 q 100 685 106 676 l 100 657 m 483 524 q 476 513 476 515 q 483 504 476 511 l 483 524 z "},"\u0000":{"ha":0,"x_min":0,"x_max":0,"o":""},"\r":{"ha":406,"x_min":0,"x_max":0,"o":""}," ":{"ha":406,"x_min":0,"x_max":0,"o":""},"¤":{"ha":899,"x_min":0,"x_max":892,"o":"m 72 686 q 74 708 74 697 q 74 731 74 719 q 88 738 78 736 q 96 756 97 740 q 99 768 96 761 q 99 785 101 775 q 106 799 99 793 q 106 817 113 806 q 111 829 103 824 q 128 829 119 835 q 142 817 135 825 q 161 814 150 810 q 168 812 164 814 q 174 807 172 810 q 234 737 206 771 q 293 667 263 703 q 333 687 313 676 q 374 701 353 697 q 412 701 392 704 q 451 697 432 699 q 446 713 451 704 q 456 731 440 722 q 477 721 468 731 q 497 704 486 711 q 517 690 507 697 q 539 674 528 682 q 557 656 549 665 q 581 632 565 646 q 578 645 578 642 q 578 651 578 649 q 558 675 568 664 q 539 701 549 686 q 529 710 535 704 q 521 719 524 715 q 522 729 521 724 q 525 738 522 735 q 533 739 526 739 q 540 738 539 739 q 560 722 549 728 q 583 710 571 715 q 604 697 594 704 q 621 675 614 689 q 667 713 646 694 q 710 750 689 732 q 722 759 717 754 q 733 771 726 764 q 754 780 749 782 q 767 756 760 778 q 785 760 778 757 q 799 767 792 764 q 818 766 813 769 q 828 750 824 763 q 828 742 828 746 q 829 736 829 739 q 830 728 831 732 q 829 719 829 724 q 845 719 838 717 q 860 724 853 722 q 876 726 868 726 q 892 719 883 726 l 892 704 q 886 701 890 701 q 882 699 882 701 q 874 669 888 675 q 844 658 860 663 q 788 637 817 647 q 731 617 760 626 q 706 606 718 613 q 682 593 694 600 q 701 513 694 553 q 697 432 707 472 q 672 351 689 390 q 625 278 656 313 q 636 270 632 274 q 646 264 640 267 q 680 243 663 253 q 714 222 697 233 q 724 216 721 219 q 731 208 726 213 q 725 189 744 199 q 719 187 722 188 q 708 183 715 186 q 726 174 719 179 q 740 165 733 169 q 744 156 743 161 q 744 147 744 151 q 740 141 744 144 q 733 138 735 138 q 710 136 718 146 q 692 125 703 126 l 692 115 q 698 106 696 111 q 693 96 700 100 q 682 91 688 89 q 671 96 676 93 q 661 101 665 99 q 658 97 660 99 q 657 93 657 96 q 656 81 657 86 q 649 75 656 75 q 629 86 638 75 q 618 99 622 92 q 610 113 614 106 q 585 152 599 132 q 557 194 572 172 q 541 184 547 188 q 529 174 535 181 q 504 168 515 164 q 497 181 494 175 q 504 194 500 188 q 503 196 503 194 l 503 200 q 491 201 496 206 q 479 196 486 197 q 450 201 458 186 q 393 218 425 226 q 390 217 392 218 q 388 217 389 217 q 343 219 364 222 q 300 211 322 217 q 287 208 293 208 q 276 201 281 207 q 205 149 239 175 q 135 96 171 122 q 115 79 124 88 q 94 63 106 71 q 88 68 90 67 q 83 72 85 69 q 69 97 68 90 q 85 122 69 103 q 91 128 88 125 q 94 139 94 132 q 81 132 89 138 q 58 133 68 125 q 57 145 56 140 q 61 154 58 150 q 63 160 63 157 q 67 167 64 163 q 56 162 60 164 q 49 156 51 160 q 23 143 29 142 q 0 165 17 144 q 8 180 0 176 q 22 189 15 183 q 84 224 54 207 q 146 258 114 242 q 172 275 157 268 q 165 288 169 282 q 158 299 161 293 q 153 506 99 404 q 176 547 164 528 q 200 588 189 567 q 184 606 193 597 q 160 626 175 615 q 124 652 146 638 q 72 686 103 667 m 392 549 q 351 541 367 546 q 326 528 336 536 q 308 505 315 519 q 293 468 301 490 q 288 453 290 461 q 285 433 285 444 q 293 401 285 418 q 354 329 322 347 q 417 319 386 311 q 478 358 449 328 q 533 432 508 389 q 538 443 536 436 q 539 456 540 450 q 519 512 529 490 q 493 544 508 533 q 453 554 478 554 q 392 549 429 554 m 164 367 q 186 446 175 407 q 208 522 197 485 l 208 531 q 206 532 208 532 q 204 533 206 533 l 204 532 q 164 367 140 451 m 668 500 q 665 540 668 528 q 651 569 663 551 q 659 533 654 550 q 668 500 664 517 m 217 682 q 228 658 221 667 q 243 642 235 649 q 257 640 244 640 q 240 662 249 653 q 217 682 232 671 m 429 611 q 441 604 436 607 q 450 600 446 601 q 458 599 453 599 q 467 599 463 599 q 453 615 463 613 q 429 611 444 617 m 465 229 q 489 239 485 235 q 500 263 493 243 q 481 244 489 251 q 465 229 474 236 m 225 333 q 224 351 225 347 q 214 367 222 356 q 213 349 211 358 q 225 333 214 340 m 400 576 q 378 589 386 589 q 363 576 371 589 l 400 576 z "},"?":{"ha":700,"x_min":18,"x_max":706,"o":"m 493 779 q 500 788 496 783 q 508 796 504 792 q 517 824 517 806 q 493 876 524 858 q 475 888 485 882 q 454 897 465 893 q 347 915 401 917 q 324 913 336 914 q 301 908 313 911 q 251 897 276 901 q 201 886 226 892 q 185 879 193 883 q 174 865 178 875 q 138 867 156 875 q 110 858 124 863 q 81 849 96 853 q 63 853 65 846 q 60 865 60 858 q 65 876 60 872 q 78 885 72 881 q 92 892 85 889 q 156 915 124 906 q 224 932 189 925 q 264 940 243 936 q 307 947 285 943 q 288 951 297 953 q 272 949 279 950 q 163 926 217 940 q 57 888 108 913 q 51 885 54 886 q 46 883 49 883 q 36 889 39 883 q 38 899 33 894 q 47 905 42 903 q 57 910 53 907 q 127 936 92 925 q 200 956 163 947 q 215 960 207 957 q 232 965 224 963 q 229 969 229 968 q 228 972 228 971 q 215 971 218 972 q 126 945 171 958 q 40 911 81 932 q 35 909 38 910 q 31 908 33 908 q 26 910 28 910 q 21 914 24 911 q 21 925 18 917 q 40 943 25 931 q 36 947 36 944 q 29 969 28 961 q 43 988 31 976 q 56 994 50 990 q 68 1000 61 997 q 63 1008 65 1004 q 58 1017 61 1013 q 83 1031 69 1026 q 108 1039 96 1036 q 163 1051 136 1046 q 218 1061 190 1057 q 294 1072 256 1068 q 371 1075 332 1075 q 403 1075 388 1075 q 436 1074 419 1075 q 453 1069 444 1074 q 456 1063 456 1067 q 450 1056 456 1058 l 439 1056 q 383 1058 411 1058 q 328 1056 356 1057 q 348 1051 338 1051 q 369 1051 358 1051 q 451 1044 411 1051 q 528 1022 490 1036 q 585 992 558 1010 q 635 951 611 975 q 675 786 706 883 q 664 756 674 775 q 671 749 667 753 q 675 740 675 744 q 676 732 678 736 q 672 724 674 728 q 668 717 668 717 q 665 695 671 704 q 653 679 660 686 q 636 660 644 669 q 618 643 628 651 q 610 635 614 639 q 604 624 607 631 q 596 616 600 619 q 588 610 592 613 q 460 518 521 564 q 336 424 399 472 q 307 375 308 403 q 302 339 304 357 q 297 301 300 321 q 294 276 294 289 q 292 249 294 263 q 288 235 290 242 q 278 225 286 229 q 272 211 275 222 q 267 186 269 199 q 267 161 264 174 q 264 144 267 151 q 261 129 261 138 q 253 119 256 121 q 239 113 249 113 q 228 126 228 113 q 226 149 226 138 q 222 171 225 160 q 218 153 222 161 q 207 136 215 143 q 203 135 206 135 q 199 135 200 135 q 194 142 192 139 q 199 156 196 149 q 204 172 201 163 q 189 167 194 171 l 174 167 q 175 153 171 160 q 171 142 179 146 q 162 140 167 140 q 150 138 157 140 q 147 117 144 128 q 154 93 150 106 q 139 92 143 90 q 128 101 132 94 q 126 112 126 107 q 125 124 125 117 q 121 125 122 125 q 103 151 99 128 q 104 178 104 165 q 106 206 104 192 q 114 314 110 260 q 122 421 118 368 q 130 450 125 436 q 139 479 135 464 q 144 485 142 482 q 149 490 146 488 q 164 499 153 493 q 208 524 188 508 q 249 554 228 539 q 258 562 254 557 q 261 575 263 567 q 265 583 261 581 q 274 589 269 586 q 313 615 293 603 q 353 643 333 628 q 364 653 358 647 q 376 665 369 658 q 397 679 386 675 q 438 709 418 694 q 478 739 458 724 q 490 748 485 743 q 500 757 494 753 q 496 767 497 763 q 493 779 494 772 m 289 508 q 319 519 307 507 q 379 558 350 539 q 438 599 408 578 q 476 626 457 613 q 514 656 494 640 q 520 662 517 658 q 528 668 524 665 l 543 683 q 549 691 546 688 q 556 703 553 694 q 422 603 489 650 q 289 508 356 557 m 518 921 q 531 903 525 911 q 543 889 536 896 q 552 868 550 879 q 544 846 554 857 q 543 819 536 836 q 561 853 561 835 q 551 892 564 875 q 540 908 546 901 q 518 921 533 914 m 222 344 q 217 278 211 308 q 218 293 218 285 q 221 310 218 301 q 224 326 224 318 q 222 344 225 333 m 239 471 q 211 458 218 463 q 201 440 204 453 q 223 453 213 447 q 239 471 233 460 m 549 951 q 524 968 532 964 q 500 972 515 972 q 522 960 511 965 q 543 951 532 956 q 549 951 543 951 m 128 164 l 128 189 l 128 164 m 204 -33 q 204 -51 204 -44 q 201 -65 204 -58 q 193 -74 201 -74 q 188 -72 190 -74 q 183 -68 185 -71 q 175 -54 181 -60 q 164 -40 169 -49 q 160 -52 160 -47 q 164 -62 161 -57 q 154 -78 167 -75 q 146 -78 149 -81 q 142 -71 143 -75 q 138 -64 139 -68 q 136 -56 138 -60 l 99 -56 q 93 -33 92 -44 q 97 -10 94 -21 q 101 25 101 7 q 110 58 100 43 q 128 53 121 58 q 142 44 135 49 q 146 51 144 49 q 149 58 147 54 q 150 66 150 63 q 153 74 150 69 q 161 80 156 79 q 172 76 167 81 q 177 72 175 74 q 182 67 179 69 q 191 58 188 64 q 201 56 194 53 q 207 53 204 56 q 211 50 210 51 q 217 42 214 46 q 224 33 219 38 q 235 38 231 35 q 246 33 240 40 q 242 -22 244 6 q 238 -76 240 -49 q 236 -78 238 -78 q 235 -82 235 -79 q 228 -85 232 -85 q 224 -84 226 -85 q 221 -82 221 -83 q 215 -51 218 -71 q 204 -33 214 -50 z "},"_":{"ha":942,"x_min":50,"x_max":904,"o":"m 675 140 q 695 132 686 133 q 714 131 704 131 q 745 131 729 131 q 778 131 761 132 q 803 128 792 131 q 813 110 814 125 q 834 108 824 108 q 854 107 844 107 q 861 88 861 107 q 830 84 846 82 q 796 83 814 86 q 810 69 800 72 q 828 68 818 68 q 849 67 838 68 q 871 63 860 64 q 893 58 882 63 q 901 43 904 57 q 882 38 894 36 q 823 46 854 43 q 758 47 792 49 q 767 40 763 42 q 772 33 771 38 q 773 26 775 31 q 771 17 771 22 q 798 13 785 14 q 824 10 811 13 q 835 -3 835 7 q 824 -12 833 -7 q 817 -14 821 -14 q 675 -6 746 -7 q 533 -3 604 -4 q 425 3 481 0 q 317 10 369 7 q 267 11 293 11 q 217 13 242 11 q 118 17 168 13 l 117 17 q 108 20 113 18 q 103 26 103 22 q 103 35 100 31 q 113 40 106 39 q 140 43 126 42 q 167 47 154 44 q 182 49 172 49 q 165 61 176 60 q 154 75 154 63 q 158 93 153 88 q 175 103 164 99 q 129 104 151 104 q 83 106 107 104 q 60 108 68 106 q 51 118 51 111 q 56 128 50 125 q 65 132 61 131 q 76 135 69 133 q 86 136 81 136 q 99 138 92 136 q 147 142 122 139 q 192 161 172 146 q 203 165 194 164 q 219 165 211 165 q 341 169 281 168 q 463 172 401 169 q 597 179 531 175 q 729 186 663 183 q 747 188 739 186 q 761 192 754 190 q 775 194 768 193 q 789 194 782 194 q 798 188 794 193 q 796 176 801 182 q 783 163 788 169 q 790 140 779 156 l 675 140 m 592 26 q 576 27 585 26 q 560 28 568 28 l 526 28 q 511 27 518 28 q 497 26 504 26 q 544 23 521 24 q 592 26 568 22 m 740 18 q 703 22 721 21 q 667 18 686 24 l 740 18 m 328 29 l 382 29 l 382 33 l 328 33 l 328 29 m 507 132 l 472 132 l 472 131 l 507 131 l 507 132 m 488 86 l 508 86 l 508 88 l 488 88 l 488 86 z "},"Z":{"ha":756,"x_min":-31,"x_max":751,"o":"m 588 694 q 644 769 615 732 q 701 846 674 807 q 712 858 707 851 q 724 869 717 864 q 727 874 725 872 q 732 878 729 875 q 741 875 736 879 q 743 867 746 871 q 733 841 738 854 q 721 817 729 828 q 651 719 685 768 q 582 621 617 669 q 511 524 546 572 q 444 424 476 475 q 412 372 429 397 q 374 322 394 346 q 364 311 365 317 q 333 262 349 286 q 303 214 318 238 q 294 196 297 203 q 319 193 313 196 l 600 193 q 635 192 618 193 q 668 190 651 190 q 678 188 675 190 q 697 179 686 181 q 718 174 708 178 q 725 169 724 172 q 729 163 732 165 q 724 153 729 153 q 707 150 715 150 l 639 150 q 624 144 632 150 q 637 143 631 144 q 650 142 643 142 q 675 140 663 140 q 700 136 688 139 q 708 131 707 132 q 711 125 713 128 q 707 119 711 119 q 694 117 700 118 q 681 114 688 117 q 689 113 685 114 q 697 113 693 113 q 717 106 708 110 q 719 96 724 99 q 717 92 719 94 q 713 90 714 90 q 697 92 701 90 q 690 93 693 92 q 675 96 686 94 q 688 88 683 90 q 697 83 693 86 q 706 57 710 72 q 685 40 699 44 l 656 40 l 633 40 q 639 32 631 32 q 650 33 644 32 q 661 35 656 35 q 671 28 667 35 q 669 24 671 26 q 667 18 668 21 q 654 12 661 13 q 640 11 647 11 q 607 11 628 11 q 563 11 586 11 q 519 12 540 11 q 486 13 499 13 q 351 17 418 17 q 215 17 283 18 q 178 15 196 17 q 144 13 161 13 q 137 1 138 7 q 133 -11 136 -4 q 130 -17 132 -14 q 125 -22 128 -19 q 118 -22 122 -24 q 114 -17 114 -21 q 111 -7 111 -12 q 111 4 111 -1 q 93 6 97 7 q 82 -3 89 4 q 76 -14 79 -10 q 71 -22 74 -18 q 43 -33 60 -37 q 31 -6 28 -26 q 33 11 32 3 q 36 29 35 19 q 37 33 36 32 q 38 38 38 35 q 29 35 31 40 q 18 17 22 26 q 10 0 14 8 q 6 -8 8 -4 q 1 -17 4 -12 q -11 -6 -14 -11 q -8 5 -10 1 q -4 15 -6 8 q 0 24 -1 19 q 4 35 1 28 q -10 35 -3 35 q -25 38 -18 35 q -31 43 -31 38 q -31 49 -31 46 q -28 54 -31 51 q -15 63 -22 60 q 1 61 -8 65 q 15 60 11 56 q 24 79 19 64 q 14 83 19 82 q 4 88 8 85 q -7 106 -7 94 q 4 122 -7 118 q 31 141 24 128 q 46 169 39 154 q 70 228 57 200 q 99 283 83 256 q 221 492 158 389 q 351 697 283 596 q 395 763 374 729 q 439 829 417 796 q 447 840 443 833 q 454 851 450 846 q 412 849 432 850 q 371 846 392 849 q 317 842 343 844 q 263 835 290 839 q 201 828 232 832 q 139 819 171 824 q 125 819 132 819 q 110 818 118 818 q 100 835 96 818 q 105 840 103 838 q 110 846 107 842 q 90 848 99 849 q 71 846 82 847 q 43 850 60 840 q 39 853 40 851 q 35 857 38 856 q 65 888 43 883 q 69 896 69 892 q 68 903 68 900 q 81 924 64 919 q 108 931 96 929 q 147 933 128 932 q 185 938 165 935 q 188 939 188 938 q 189 940 188 940 q 183 943 186 943 q 158 943 171 943 q 131 942 144 943 q 102 942 115 942 q 75 946 89 942 q 64 947 69 947 q 54 946 58 946 q 47 947 50 946 q 40 949 44 947 q 38 953 38 951 q 36 957 38 954 q 40 963 36 958 q 51 965 46 965 l 76 965 q 87 967 83 965 q 97 971 90 968 q 117 983 106 979 q 139 988 128 986 q 169 992 154 990 q 199 994 183 993 q 294 1003 244 999 q 381 1008 338 1006 q 467 1014 424 1011 q 553 1019 511 1017 q 639 1025 596 1022 q 658 1032 650 1026 q 674 1043 665 1038 q 683 1037 679 1040 q 692 1032 688 1033 q 715 1033 701 1031 l 719 1033 q 731 1028 729 1031 q 731 1020 733 1025 q 721 1015 728 1015 q 701 1011 711 1013 q 681 1008 692 1010 q 673 1007 676 1008 q 661 1004 669 1006 q 672 1001 668 1003 q 678 1000 675 1000 q 699 999 689 999 q 719 992 710 999 q 731 991 724 989 q 743 992 738 993 q 749 990 746 992 q 751 986 751 988 q 746 976 751 976 q 736 972 742 974 q 725 969 731 971 q 728 934 736 950 q 710 901 721 918 q 715 885 713 896 q 692 862 701 875 q 674 836 683 849 q 644 798 658 817 q 615 760 629 779 q 591 727 603 743 q 572 692 579 711 q 562 672 568 681 q 550 656 556 664 q 554 653 554 651 l 588 694 m 158 883 q 117 879 138 885 q 75 868 96 874 q 83 865 79 867 q 92 867 88 864 q 124 874 108 869 q 156 883 139 879 l 157 883 q 158 885 157 883 q 178 884 174 883 q 199 890 183 885 q 176 889 186 888 q 158 883 167 890 m 235 361 q 231 358 233 360 q 228 354 229 357 q 182 274 204 314 q 138 196 160 235 q 136 186 136 192 l 144 186 q 160 208 153 197 q 172 232 168 218 q 181 253 176 243 q 193 275 186 264 q 210 309 201 292 q 228 343 219 326 q 232 352 231 347 q 235 361 233 357 q 247 374 246 369 q 251 393 249 378 q 240 378 244 385 q 235 361 235 371 m 442 633 q 420 607 435 628 q 389 562 406 586 q 358 514 372 538 q 339 481 344 490 q 338 478 336 479 q 339 475 339 478 q 360 502 344 481 q 392 548 375 524 q 423 594 408 572 q 442 625 438 617 l 442 633 m 543 776 q 551 778 547 778 q 556 779 554 778 q 563 789 560 783 q 572 800 567 794 q 597 830 586 814 q 619 864 608 846 q 607 863 611 864 q 599 856 601 863 q 569 818 583 836 q 543 776 556 800 m 458 513 q 425 462 439 488 q 408 421 411 436 q 436 455 425 438 q 460 489 447 472 q 458 501 458 496 q 458 513 458 507 m 274 161 q 295 160 286 161 q 311 161 304 158 q 332 162 322 161 q 351 164 342 163 q 357 167 354 164 q 364 169 356 167 q 303 172 322 174 q 274 161 285 171 m 658 926 q 642 915 646 919 q 640 907 639 911 q 644 904 642 904 q 653 910 651 904 q 658 919 656 915 l 658 926 m 260 44 q 211 44 232 50 q 260 44 232 39 m 211 893 q 249 893 231 885 q 242 894 246 893 q 235 896 238 896 q 222 894 228 896 q 211 893 217 893 m 331 122 q 355 119 346 119 q 376 119 364 118 q 355 124 364 124 q 331 122 346 124 m 296 128 q 254 128 279 132 q 296 128 274 121 m 436 117 l 414 117 l 414 114 l 436 114 l 436 117 m 635 124 q 633 119 635 122 l 657 119 l 657 124 l 635 124 m 464 819 q 473 829 472 826 q 476 840 474 832 q 468 831 469 833 q 464 819 467 828 z "},"Y":{"ha":733,"x_min":-10,"x_max":781,"o":"m 385 718 q 394 736 389 728 q 404 753 400 744 q 497 919 447 839 q 599 1081 546 1000 q 604 1089 601 1085 q 610 1097 607 1093 q 615 1102 613 1100 q 619 1106 617 1104 q 632 1108 622 1111 q 633 1094 639 1101 q 628 1088 631 1092 q 622 1081 625 1085 q 609 1059 615 1069 q 596 1038 603 1049 q 602 1037 601 1033 q 606 1042 603 1040 q 610 1044 608 1043 q 617 1049 613 1046 q 622 1040 619 1044 q 626 1032 624 1036 q 653 1026 640 1040 q 671 1049 661 1039 q 681 1054 674 1054 q 689 1054 683 1060 q 692 1047 696 1051 q 689 1036 692 1038 q 681 1026 685 1031 q 681 1013 678 1021 q 678 1005 682 1010 q 672 996 675 1000 q 635 943 654 969 q 597 890 617 917 q 590 876 592 883 q 596 875 594 872 q 599 879 597 878 l 604 885 q 649 943 626 914 q 693 1000 671 972 q 702 1010 697 1006 q 711 1019 707 1015 q 719 1024 714 1022 q 728 1026 724 1025 q 744 1021 738 1029 q 749 1001 751 1013 q 739 985 743 990 q 727 967 733 975 q 715 951 721 958 q 718 945 715 946 q 722 942 721 944 q 726 936 725 939 q 728 931 726 933 q 731 933 729 933 q 733 935 732 933 q 744 949 739 942 q 756 963 750 956 q 763 969 758 969 q 769 972 765 972 q 774 972 772 972 q 776 961 781 965 q 763 940 772 951 l 658 803 q 568 678 613 740 q 479 556 524 617 q 461 506 464 533 q 456 454 458 479 q 451 403 454 429 q 448 351 450 376 q 444 300 446 326 q 440 247 442 272 q 435 196 438 222 q 428 122 431 158 q 418 49 425 86 q 412 9 414 29 q 407 -32 410 -11 q 406 -66 404 -49 q 410 -100 407 -83 q 410 -105 410 -103 q 411 -110 411 -107 q 404 -121 411 -119 q 390 -111 394 -124 q 389 -92 389 -104 q 387 -77 388 -85 q 379 -64 386 -69 q 376 -58 376 -61 q 374 -51 376 -54 q 373 -37 374 -44 q 374 -24 372 -31 q 372 10 376 -4 q 360 42 367 25 l 354 44 q 350 37 351 40 q 349 29 349 33 q 346 4 346 17 q 344 -21 346 -8 q 339 -47 344 -37 q 336 -51 339 -50 q 331 -53 333 -53 q 325 -51 328 -53 q 322 -47 322 -49 q 314 -26 322 -33 q 303 -3 303 -19 l 303 14 q 294 15 299 15 q 283 21 286 18 q 282 31 281 24 q 285 71 283 51 q 289 110 288 90 q 293 151 293 132 q 296 226 294 189 q 299 303 297 264 q 301 386 300 344 q 304 469 303 428 q 303 504 304 488 q 300 539 303 521 q 300 522 300 531 q 299 506 300 514 q 294 406 299 456 q 288 304 290 357 q 281 206 285 256 q 275 104 278 156 q 271 67 272 86 q 267 31 269 49 q 265 15 267 22 q 261 -3 264 7 q 249 -6 254 -4 q 238 -8 244 -7 q 233 -17 233 -11 q 224 -21 233 -24 q 216 -14 217 -19 q 215 -4 215 -8 q 218 20 218 8 q 218 43 218 32 q 224 104 221 74 q 229 165 226 135 q 233 219 231 193 q 238 274 235 246 q 242 319 240 297 q 246 365 243 342 q 251 439 249 401 q 256 513 253 476 q 259 546 258 529 q 261 581 260 563 q 247 619 265 603 q 208 660 228 639 q 169 701 189 681 q 102 770 136 736 q 35 839 68 804 q 27 849 31 843 q 26 863 24 854 q 26 869 28 865 q 21 874 24 872 q 11 885 17 881 q 0 896 6 890 q -5 903 -3 899 q -10 910 -7 907 q -1 917 -7 917 q 11 919 6 918 q 10 928 11 925 q 6 931 7 929 q 1 936 4 933 q -8 956 -10 944 q -6 978 -6 967 q 3 989 -4 985 q 18 989 11 993 q 31 981 25 986 q 43 972 36 976 q 53 963 49 968 q 67 950 58 957 q 59 968 64 963 q 49 979 54 974 q 43 985 46 982 q 39 992 40 988 q 40 1000 38 994 q 43 1002 40 1001 q 49 1001 46 1003 q 59 995 54 999 q 74 985 64 992 q 67 1000 69 997 q 53 1015 60 1007 q 39 1029 46 1022 q 35 1034 36 1032 q 32 1038 33 1036 q 31 1045 29 1042 q 38 1049 33 1049 q 44 1048 42 1049 q 54 1046 47 1047 l 54 1053 q 61 1068 50 1064 q 74 1060 68 1068 q 89 1042 82 1049 q 184 935 136 988 q 281 828 232 882 q 326 778 304 803 q 372 726 349 753 q 378 723 375 725 q 385 718 381 721 m 24 907 q 33 895 31 897 q 43 889 35 893 q 35 899 40 894 q 24 907 31 904 z "},"X":{"ha":733,"x_min":-19,"x_max":725,"o":"m 494 113 q 497 106 496 110 q 500 100 499 103 q 524 61 511 81 q 550 22 536 42 q 558 10 553 15 q 567 1 563 6 q 572 -17 574 -6 q 566 -24 572 -22 q 557 -22 560 -26 q 547 -10 551 -15 q 539 1 543 -4 q 486 83 513 42 q 436 164 460 124 q 394 232 415 199 q 353 299 374 265 q 346 308 350 303 q 338 318 342 313 q 326 301 332 307 q 183 32 250 171 q 169 -1 175 17 q 156 -36 163 -19 q 148 -50 151 -43 q 138 -62 144 -57 q 110 -54 128 -61 q 113 -37 113 -40 q 119 -21 115 -28 q 121 -4 122 -14 q 121 10 118 3 q 126 24 124 18 q 153 88 140 56 q 179 153 165 121 q 185 163 182 157 q 185 179 188 169 q 180 169 182 172 q 176 163 178 165 q 135 83 156 122 q 100 1 115 44 q 99 0 100 1 q 81 -1 92 -18 q 71 21 72 8 q 72 44 69 33 q 78 63 75 53 q 83 83 81 72 q 75 93 79 89 q 67 103 71 97 q 65 102 65 103 q 61 101 64 101 q 50 74 56 88 q 38 47 44 61 q 29 30 33 38 q 14 18 25 22 q 5 8 8 14 q -3 -4 1 3 q -19 1 -12 -10 q 103 251 39 128 q 228 504 168 375 q 224 508 225 506 q 222 514 224 511 q 141 649 182 582 q 56 782 100 715 q 50 788 53 785 q 44 794 47 792 q 47 813 39 810 q 54 813 51 815 q 60 808 57 811 q 69 799 64 807 q 78 810 74 806 q 86 818 82 814 q 78 833 82 826 q 67 850 74 840 q 75 860 72 856 q 99 837 92 851 q 118 811 107 822 q 125 813 121 813 q 135 814 129 813 q 142 835 138 826 q 154 856 147 844 q 163 849 158 851 q 171 840 167 846 q 201 796 186 818 q 233 750 217 774 q 251 728 238 738 q 250 733 250 731 q 247 739 250 736 q 161 878 208 814 q 151 892 156 882 q 152 896 151 893 q 156 901 153 899 q 167 903 157 903 l 168 901 q 186 884 176 892 q 203 867 196 876 q 219 849 211 858 q 233 832 226 840 q 238 827 236 829 q 242 822 239 825 q 244 831 246 828 q 240 836 242 833 q 218 874 229 856 q 196 910 207 892 q 190 922 193 917 q 183 931 186 926 q 181 938 182 933 q 185 944 181 942 q 200 940 193 953 q 214 921 207 931 q 228 899 221 911 q 272 818 250 860 q 318 736 294 776 q 324 723 321 729 q 331 710 328 717 q 340 712 338 708 q 343 718 342 715 q 378 783 363 751 q 414 847 394 815 q 424 866 419 857 q 436 883 429 875 q 444 890 440 890 q 458 883 447 890 q 477 908 469 894 q 493 932 485 921 q 501 944 497 939 q 510 956 506 950 q 521 965 515 963 q 535 963 526 968 q 549 964 539 961 q 572 958 564 967 q 578 932 581 949 q 575 921 578 926 q 569 910 572 915 q 560 891 565 900 q 553 871 556 882 q 561 872 560 868 q 564 878 563 876 q 568 884 567 881 q 572 892 569 888 q 581 906 576 899 q 590 921 585 913 q 603 922 596 926 q 606 908 608 919 q 604 906 606 907 q 603 903 603 904 l 607 903 q 615 906 611 904 q 624 904 619 908 q 626 897 626 900 q 622 889 625 894 q 614 878 617 881 q 625 869 621 874 q 636 858 629 864 q 657 888 647 874 q 676 917 667 901 l 688 928 q 693 928 690 928 q 697 926 696 928 q 701 922 700 925 q 701 917 701 919 q 692 901 697 904 q 641 826 664 865 q 594 746 618 786 q 531 638 563 692 q 467 529 499 583 q 458 516 463 522 q 450 501 454 510 q 455 493 453 499 q 460 482 457 488 q 492 433 476 458 q 524 385 508 408 q 599 265 561 325 q 674 144 636 206 q 687 126 679 135 q 701 107 694 117 q 715 81 710 94 q 724 54 719 67 q 724 50 725 53 q 721 47 724 47 q 710 44 715 42 q 698 55 703 49 q 692 71 693 61 q 685 84 689 78 q 679 96 682 90 l 651 96 q 647 78 647 88 q 635 78 639 72 q 625 83 632 83 q 612 60 617 64 q 585 53 607 57 q 603 23 594 38 q 624 -4 613 8 q 627 -8 625 -6 q 629 -14 629 -11 q 630 -18 631 -17 q 629 -22 629 -19 q 619 -24 625 -26 q 610 -17 615 -21 q 603 -7 606 -14 q 588 13 594 3 q 574 35 581 24 q 553 53 565 47 q 544 59 547 54 q 538 68 540 64 q 524 85 531 76 q 511 103 518 94 q 505 110 508 107 q 494 113 501 114 m 168 321 q 145 285 154 306 q 128 246 136 265 l 129 244 q 132 242 129 242 q 149 273 140 258 q 165 304 157 288 q 171 321 167 314 q 181 338 179 333 q 183 354 182 342 q 173 339 178 346 q 168 321 168 332 m 83 138 q 103 179 94 156 q 100 186 104 181 q 90 163 93 174 q 83 138 86 151 m 443 538 q 458 556 456 551 q 463 572 460 560 q 447 555 451 561 q 443 538 443 549 z "},"W":{"ha":886,"x_min":3,"x_max":921,"o":"m 750 676 q 755 683 756 678 q 757 690 754 688 q 773 824 763 758 q 799 956 783 890 q 806 981 801 968 q 815 1006 811 993 q 829 1026 822 1019 q 849 1033 839 1039 q 864 1010 867 1029 q 862 1001 864 1006 q 860 993 860 997 q 847 942 851 969 q 846 936 844 939 q 847 931 847 933 q 858 938 857 932 q 861 951 860 944 q 865 968 864 958 q 869 986 867 978 q 881 994 871 994 q 888 986 888 994 q 888 981 888 983 q 889 972 889 979 q 896 985 893 979 q 903 994 899 990 q 910 1001 906 1001 q 921 993 915 1000 q 910 958 915 975 q 897 925 904 942 q 905 916 901 919 q 910 908 908 913 q 909 897 910 903 q 908 888 908 892 q 886 778 897 832 q 867 669 875 725 q 852 574 858 621 q 840 481 846 528 q 832 413 836 447 q 825 346 828 379 q 821 300 822 322 q 818 254 819 278 q 815 231 815 243 q 813 208 814 219 q 810 169 810 189 q 810 131 810 150 l 810 117 q 806 106 808 108 q 796 103 804 103 l 769 103 q 764 63 754 83 q 764 57 764 60 q 763 51 764 54 q 756 49 760 49 q 751 49 753 49 q 749 55 750 51 q 746 61 747 58 q 735 68 740 68 q 735 53 735 57 q 742 39 736 50 q 751 26 746 32 q 760 13 756 19 q 740 7 746 -1 q 734 15 738 11 q 729 24 731 19 q 714 52 721 39 q 701 79 707 65 q 674 127 690 106 q 640 171 657 149 q 643 165 643 168 q 644 157 643 161 q 665 104 656 131 q 685 51 675 78 q 690 42 688 46 q 696 32 693 38 q 699 26 697 29 q 697 21 700 24 q 690 11 697 14 q 683 13 685 11 q 678 21 681 17 q 672 32 675 25 q 662 51 667 42 q 650 71 657 60 q 616 129 632 99 q 585 192 600 160 q 556 243 574 217 q 558 232 556 236 q 569 201 564 217 q 579 169 574 185 q 585 159 582 164 q 589 147 588 154 q 583 136 589 142 q 578 135 582 133 q 572 140 575 138 q 560 167 565 154 q 549 196 554 181 q 519 293 533 244 q 490 390 504 342 q 463 474 479 433 q 429 558 446 515 q 424 551 426 554 q 419 546 421 549 q 332 353 375 449 q 244 160 289 257 q 233 131 239 144 q 222 101 228 117 q 219 92 221 97 q 217 83 217 88 q 217 67 217 75 q 206 54 217 60 q 193 6 201 29 q 190 0 192 3 q 186 -6 188 -3 q 172 3 179 -1 q 160 10 165 7 q 159 19 160 15 q 158 29 158 24 q 142 37 150 33 q 125 44 133 40 q 123 38 124 40 q 119 32 122 35 q 108 24 117 24 q 103 26 104 22 q 99 33 101 29 q 97 50 97 42 q 96 67 97 58 q 94 72 96 69 q 92 78 93 75 q 85 82 89 81 q 79 86 82 83 q 75 94 76 89 q 71 103 74 99 q 58 188 60 144 q 56 199 57 194 q 51 208 56 204 q 48 217 49 213 q 46 229 47 222 l 46 264 q 39 286 46 279 q 35 294 36 289 q 33 303 33 299 q 35 366 35 335 q 35 429 35 397 l 35 458 q 35 483 33 471 q 36 507 36 494 q 36 597 40 551 q 33 656 35 626 q 28 713 31 685 q 24 752 25 732 q 19 792 22 772 q 17 806 18 799 q 13 818 15 813 q 4 838 3 829 q 13 858 6 847 q 15 862 14 861 q 18 865 17 863 q 15 886 17 876 q 14 907 14 896 q 19 925 13 921 q 44 926 25 929 q 47 909 46 918 q 50 892 47 900 q 59 890 56 890 q 65 886 63 889 q 72 881 69 885 q 79 871 75 878 q 81 894 81 883 q 81 913 81 904 q 88 932 82 922 q 103 942 92 940 q 119 935 114 943 q 122 931 121 932 q 125 926 124 929 q 156 903 133 906 q 158 915 158 908 q 161 926 158 921 q 169 938 161 932 q 174 940 171 940 q 178 938 176 940 q 182 931 182 935 q 182 925 182 931 q 177 903 178 914 q 176 881 176 892 q 180 850 178 865 q 182 819 182 835 q 185 806 182 811 q 193 796 189 801 q 190 780 192 788 q 188 765 188 772 q 192 649 188 707 q 193 592 193 619 q 194 535 193 564 q 195 519 194 526 q 199 503 196 511 q 199 513 199 510 q 200 521 200 517 q 199 652 199 588 q 197 783 199 717 q 195 848 197 815 q 192 913 193 881 q 192 926 192 919 q 193 940 193 933 q 208 946 196 950 q 214 941 211 943 q 215 936 217 939 q 212 906 210 921 q 214 876 214 892 q 215 828 214 853 q 217 775 217 803 q 220 642 219 708 q 222 507 221 575 l 222 479 q 231 492 229 486 q 235 501 233 497 q 272 609 254 556 q 307 715 289 663 q 315 738 311 726 q 324 760 319 749 q 329 771 324 765 q 336 772 333 775 q 342 765 342 769 q 340 750 342 754 q 333 731 336 740 q 325 711 329 721 l 325 701 q 339 727 336 711 q 358 750 342 743 l 374 735 q 374 730 374 732 q 374 726 375 728 q 349 664 361 696 q 324 600 336 632 q 299 543 308 571 q 299 532 294 540 q 305 544 301 539 q 311 554 308 549 q 363 645 338 600 q 414 735 388 690 q 418 743 415 740 q 425 755 422 749 q 432 765 428 761 q 442 770 436 769 q 454 774 449 771 q 471 778 460 778 q 477 783 474 779 q 488 783 481 788 q 496 763 492 774 q 504 740 500 751 q 515 745 513 740 q 519 754 517 750 q 526 761 519 761 q 538 754 532 763 q 549 728 543 742 q 561 700 556 714 q 591 620 576 660 q 621 540 606 581 q 647 469 633 504 q 674 401 660 435 q 678 393 676 397 q 685 382 681 389 q 688 397 686 392 q 690 410 689 403 q 697 498 693 454 q 706 586 701 542 q 712 653 708 619 q 719 721 715 688 q 727 801 724 761 q 735 882 731 842 q 739 939 736 911 q 744 994 742 967 q 749 1013 746 1010 q 768 1019 751 1017 q 770 1020 769 1019 q 774 1021 771 1021 q 778 1035 776 1028 q 782 1049 779 1042 q 788 1052 785 1050 q 792 1051 790 1054 q 797 1049 794 1051 q 799 1044 799 1046 q 796 1026 799 1038 q 775 904 783 965 q 767 841 771 872 q 758 778 763 810 q 754 727 756 753 q 751 675 753 701 q 747 649 746 663 q 750 621 747 635 l 750 676 m 103 253 q 92 385 99 319 q 82 519 85 451 q 82 453 79 486 q 87 376 85 414 q 92 299 89 338 q 103 253 94 271 m 792 407 q 783 399 785 403 q 782 390 782 394 q 778 344 781 367 q 776 299 776 322 q 776 203 775 251 q 779 242 779 222 q 781 281 779 261 q 785 331 782 306 q 790 383 788 357 q 792 394 792 389 q 792 407 792 400 m 531 563 q 511 607 519 585 q 494 653 503 629 q 491 657 493 654 q 485 664 489 660 q 494 611 485 632 q 510 585 501 597 q 526 558 518 572 l 531 563 m 622 400 q 625 401 624 400 q 628 401 626 401 q 602 465 615 433 q 576 529 589 497 q 571 518 569 526 q 596 459 583 489 q 622 400 608 429 m 79 733 q 79 547 72 639 l 79 733 m 550 325 q 567 275 554 306 q 594 221 581 244 q 581 268 593 240 q 550 325 569 296 m 71 754 q 79 781 79 774 q 71 797 79 789 q 69 778 68 788 q 71 754 69 768 m 167 50 q 170 61 169 56 q 172 72 171 67 q 172 74 172 74 q 171 78 171 75 q 163 74 167 75 q 158 67 158 72 q 158 58 158 63 q 167 50 158 53 m 742 596 l 742 551 l 744 551 l 744 596 l 742 596 m 522 681 q 526 702 526 699 q 515 713 525 706 q 515 697 513 704 q 522 681 518 690 m 167 213 l 167 235 l 165 235 l 165 213 l 167 213 z "},"V":{"ha":632,"x_min":18,"x_max":651,"o":"m 31 890 q 28 910 29 901 q 26 928 26 918 q 33 936 24 936 q 43 931 40 936 q 47 915 46 924 q 50 899 49 906 q 62 890 57 894 q 72 882 67 886 q 71 899 72 893 q 65 928 68 914 q 58 958 61 943 q 58 975 54 967 q 72 992 61 990 q 93 985 86 996 q 104 967 99 976 q 108 946 110 957 q 112 925 108 935 q 119 904 115 915 q 121 913 121 908 q 121 922 121 918 q 113 983 117 953 q 106 1042 108 1013 q 104 1054 104 1047 q 110 1065 104 1064 q 122 1060 119 1069 q 124 1053 124 1056 q 126 1046 124 1050 q 131 1015 129 1031 q 135 983 132 1000 q 138 991 138 988 q 139 997 138 994 q 149 1003 142 1003 q 157 996 154 1003 q 161 972 161 985 q 169 890 163 931 q 188 810 176 850 q 197 762 192 786 q 210 714 203 738 l 210 729 q 206 773 207 751 q 201 817 204 794 q 197 864 199 840 q 193 911 194 888 l 193 944 q 201 953 193 953 q 209 952 206 956 q 214 944 213 949 l 214 935 q 219 858 217 896 q 225 782 222 819 q 232 710 228 746 q 239 640 236 675 q 248 558 243 599 q 258 478 253 518 q 270 406 265 442 q 281 335 275 371 q 282 328 281 332 q 285 318 283 325 q 292 331 290 328 q 359 582 321 458 q 431 832 397 706 q 445 892 439 863 q 460 950 451 921 q 465 967 460 961 q 476 969 467 969 q 482 964 482 969 q 481 951 482 957 q 479 940 479 946 q 475 918 476 929 q 474 896 474 907 q 483 922 478 908 q 493 947 489 935 q 495 957 494 951 q 499 968 496 963 q 511 978 503 979 q 517 961 519 972 q 512 944 515 953 q 506 928 508 936 q 501 915 504 922 q 501 901 499 908 q 522 919 517 917 q 540 928 526 922 q 566 997 553 963 q 592 1068 579 1032 q 596 1076 594 1072 q 600 1085 597 1081 q 605 1090 601 1089 q 611 1090 608 1092 q 617 1079 617 1082 q 613 1067 614 1072 q 608 1057 611 1063 q 589 1001 599 1029 q 568 946 579 974 q 566 938 567 942 q 568 931 565 935 q 580 951 574 942 q 592 972 586 961 q 598 981 594 976 q 606 990 601 986 q 635 996 618 1006 q 646 981 643 990 q 646 964 649 972 q 642 957 646 958 q 613 891 624 925 q 590 825 603 857 q 600 817 588 815 q 608 838 604 828 q 617 860 613 849 q 628 889 621 874 q 630 894 629 892 q 633 900 631 897 q 644 907 635 907 q 651 894 651 904 q 642 867 647 879 q 608 776 625 821 q 574 685 590 731 q 481 420 525 553 q 399 151 438 288 q 381 95 390 124 q 365 36 372 67 q 351 15 363 21 q 346 10 346 15 q 340 -42 332 -17 q 353 -75 347 -58 q 364 -108 358 -92 q 367 -118 365 -114 q 369 -128 369 -122 q 365 -139 371 -133 q 360 -138 364 -140 q 354 -133 357 -136 q 346 -115 350 -124 q 338 -94 342 -106 q 332 -83 335 -89 q 326 -67 329 -78 q 322 -80 324 -75 q 318 -92 321 -85 q 313 -95 315 -93 q 308 -97 311 -97 q 299 -86 299 -97 q 300 -79 299 -83 q 303 -72 301 -75 q 304 -50 304 -65 q 291 -54 297 -53 q 278 -58 285 -56 q 278 -64 278 -61 q 278 -69 279 -67 q 276 -74 278 -72 q 272 -78 274 -76 q 263 -72 264 -78 q 257 -60 257 -68 q 248 -19 253 -39 q 239 21 243 0 q 233 41 236 32 q 222 58 231 50 q 211 82 213 67 q 203 105 207 93 q 193 128 199 117 q 194 120 194 124 q 194 114 193 117 q 210 60 201 86 q 229 7 218 33 q 232 0 231 4 q 231 -7 233 -4 q 224 -21 224 -14 q 225 -35 225 -28 q 219 -43 225 -42 q 207 -37 213 -44 q 206 -31 206 -35 q 204 -25 206 -28 q 189 38 197 7 q 174 99 181 68 q 171 107 172 103 q 167 117 169 111 q 158 117 163 117 q 151 119 154 117 q 145 127 147 122 q 140 135 143 132 q 133 175 136 154 q 126 215 131 196 q 117 270 122 243 q 100 324 111 297 q 99 328 100 326 q 99 332 99 329 q 94 384 101 360 q 82 433 88 408 q 56 574 68 504 q 36 714 44 643 q 29 771 33 743 q 21 828 25 799 q 19 845 19 836 q 18 863 19 854 q 31 890 18 883 m 115 614 q 115 644 125 631 q 112 673 114 660 q 108 701 110 686 q 106 704 108 703 q 103 708 104 706 q 106 676 103 690 q 114 646 110 661 q 115 644 114 646 l 115 614 m 267 168 q 260 210 265 181 q 247 272 254 239 q 232 333 239 304 q 222 369 225 361 q 227 329 222 357 q 238 270 232 301 q 252 210 244 239 q 267 168 260 182 m 433 557 q 445 590 440 574 q 456 622 450 606 q 457 628 458 625 q 458 633 456 631 q 440 596 447 614 q 433 557 433 578 m 275 115 q 279 97 278 104 q 283 81 281 89 q 285 98 289 90 q 275 115 282 106 z "},"U":{"ha":700,"x_min":32,"x_max":679,"o":"m 582 950 q 592 967 588 960 q 600 983 596 975 q 617 985 608 996 q 633 965 631 971 q 642 939 636 960 q 651 934 647 936 q 660 929 656 932 q 675 906 679 922 q 674 873 675 889 q 671 840 672 857 q 667 785 668 813 q 663 731 665 758 q 663 657 664 693 q 661 585 661 621 q 658 524 658 554 q 656 461 658 493 q 650 328 654 394 q 633 199 646 263 q 624 163 628 179 q 615 131 621 146 q 576 65 603 94 q 572 60 574 63 q 568 56 571 58 q 540 35 551 49 q 515 10 528 22 q 490 -8 503 -1 q 458 -14 476 -15 q 436 -19 449 -12 q 413 -31 425 -26 q 390 -42 401 -36 q 374 -32 382 -43 q 381 -26 378 -29 q 389 -21 385 -24 q 403 -15 396 -18 q 417 -10 410 -12 q 440 15 433 0 q 420 8 428 14 q 404 -1 413 1 q 387 -8 394 -4 q 369 -14 379 -11 q 352 -17 361 -15 q 332 -19 343 -18 l 292 -19 q 288 -26 289 -21 q 282 -32 288 -31 q 269 -33 275 -32 q 257 -32 264 -35 q 231 -20 242 -28 q 211 -1 221 -12 q 183 30 196 14 q 156 61 171 46 q 149 73 153 68 q 138 86 144 78 q 140 76 140 79 q 142 69 139 72 q 156 49 149 58 q 169 29 163 40 q 174 14 181 21 q 157 18 168 4 q 142 36 149 28 q 128 54 135 44 q 117 75 122 64 q 107 97 111 86 q 85 162 96 129 q 65 228 75 194 q 54 280 58 254 q 46 331 50 306 q 41 397 43 364 q 36 461 39 429 q 37 488 38 476 q 35 515 36 500 q 33 613 32 564 q 38 710 33 661 q 46 795 40 753 q 63 878 51 838 q 68 892 65 885 q 74 906 71 899 q 86 913 75 910 q 94 910 90 915 q 97 901 97 906 q 93 896 96 900 q 91 887 88 890 q 100 879 94 883 q 102 886 104 882 q 103 893 100 890 q 108 897 106 896 q 114 901 111 899 q 119 913 117 910 q 121 921 121 917 q 124 928 121 925 q 135 931 126 931 q 140 924 140 931 q 140 900 143 911 q 147 893 143 896 q 151 888 151 890 q 150 871 150 879 q 154 856 150 863 q 155 852 156 854 q 153 850 154 850 q 140 820 138 838 q 138 789 142 803 q 145 786 142 785 q 153 789 149 788 q 158 835 156 813 q 164 882 161 858 q 166 896 165 889 q 167 910 167 903 q 171 921 171 914 q 181 922 174 922 l 186 918 q 187 906 186 911 q 189 893 188 900 q 208 854 211 882 l 208 844 q 207 796 203 819 q 214 747 211 772 q 214 795 214 771 q 215 843 214 819 q 215 865 215 854 q 218 888 215 876 q 220 897 218 892 q 225 904 222 901 q 232 906 226 906 q 239 899 239 903 q 239 868 235 885 l 251 893 q 258 896 254 896 q 264 896 261 896 q 274 889 271 896 q 268 879 271 883 q 264 868 265 875 q 257 838 257 854 q 242 748 247 793 q 235 656 238 703 q 234 593 236 624 q 232 532 232 563 q 234 434 231 483 q 243 336 238 385 q 248 301 246 318 q 253 267 250 283 q 266 213 257 239 q 292 160 275 186 q 308 157 300 157 q 324 146 317 157 q 338 139 329 139 q 354 143 347 139 q 380 156 368 149 q 403 171 392 163 q 426 201 418 183 q 436 239 433 219 q 453 417 447 328 q 464 596 458 506 q 467 679 465 638 q 469 761 469 721 q 471 803 471 782 q 468 844 471 824 q 474 873 467 863 q 490 894 482 883 q 500 910 503 894 q 502 928 501 919 q 503 947 503 938 q 504 958 503 957 q 513 963 506 963 q 518 958 518 963 q 522 949 521 953 q 522 940 522 944 q 520 893 521 917 q 519 846 519 869 q 519 829 518 839 q 524 808 519 819 q 528 861 525 836 q 531 913 531 886 q 530 922 531 917 q 532 929 529 926 q 544 953 546 939 q 545 958 544 956 q 549 961 546 961 q 558 968 556 963 q 565 979 561 974 q 568 982 565 981 q 572 981 571 983 q 576 978 574 979 q 579 974 578 976 q 581 963 581 968 q 582 950 581 958 m 233 217 q 231 233 232 225 q 229 250 229 242 q 227 256 228 253 q 222 258 226 258 q 224 244 224 251 q 226 231 225 238 q 233 218 231 222 q 237 195 233 206 q 247 171 240 185 q 233 217 249 199 m 560 82 q 567 88 564 86 q 571 93 569 90 q 592 130 585 110 q 606 171 600 150 q 624 271 617 219 q 635 375 632 322 q 634 402 635 389 q 635 431 633 415 q 628 408 629 419 q 624 385 626 396 q 615 335 618 360 q 607 286 611 311 q 588 189 599 238 q 560 93 576 140 q 560 82 560 93 m 74 586 q 78 640 76 614 q 82 692 79 667 q 83 726 82 710 q 88 760 85 743 q 92 788 90 774 q 96 815 94 801 q 98 839 97 828 q 100 863 99 850 q 91 853 92 858 q 88 843 90 849 q 78 775 82 813 q 72 701 74 738 q 70 633 69 664 q 74 586 71 603 m 203 532 q 203 499 201 513 q 204 472 204 485 q 205 446 204 458 q 203 419 206 433 q 202 371 200 396 q 207 321 204 346 q 211 313 210 317 q 218 308 213 310 q 214 363 215 336 q 210 417 213 389 q 209 472 207 444 q 203 532 211 500 m 193 151 q 200 124 196 136 q 215 104 204 113 q 221 102 218 103 q 224 108 224 101 q 193 151 213 128 m 553 229 q 563 249 560 239 q 561 272 567 260 q 558 251 560 261 q 553 229 556 240 m 72 314 q 68 353 76 333 q 70 333 69 343 q 72 314 71 324 m 321 46 q 322 47 321 46 l 324 49 q 316 55 319 51 q 307 61 313 58 q 297 53 297 67 q 309 49 303 50 q 321 46 315 49 m 206 631 q 206 614 206 622 q 208 597 207 606 l 210 597 q 208 614 208 606 q 207 631 207 622 l 206 631 m 207 546 q 210 544 208 544 q 208 558 208 551 q 207 572 208 565 q 206 574 207 574 q 206 578 206 575 l 204 578 q 206 561 206 569 q 207 546 206 553 m 517 42 q 526 58 522 51 q 526 76 529 65 q 519 61 522 68 q 517 42 517 54 m 208 653 q 211 651 210 651 q 210 665 211 658 q 210 681 210 672 l 208 681 q 208 667 207 674 q 208 653 208 660 m 213 699 l 213 710 q 211 719 211 714 l 208 719 q 210 699 210 713 l 213 699 m 636 483 q 638 461 629 472 q 637 473 638 468 q 636 483 636 478 m 171 425 q 172 413 171 418 q 172 403 172 408 q 174 414 176 407 l 174 425 l 171 425 z "},"S":{"ha":678,"x_min":19,"x_max":692,"o":"m 138 469 q 106 488 121 479 q 75 508 90 497 q 46 532 56 518 q 29 604 19 563 q 44 638 35 622 q 64 668 53 653 q 96 703 79 686 q 129 736 113 721 q 244 830 185 788 q 369 906 303 872 q 549 967 457 950 q 629 971 589 975 q 641 967 636 968 q 651 963 646 965 q 672 928 679 951 q 686 899 664 907 q 690 896 689 899 q 690 893 692 893 q 683 883 690 890 q 672 882 681 882 q 601 872 636 879 q 531 854 565 864 q 510 848 519 853 q 492 839 501 843 q 479 826 483 836 q 488 829 483 829 q 497 831 493 829 q 560 845 529 838 q 621 860 590 853 q 643 862 632 863 q 665 861 654 861 q 669 858 667 861 q 672 854 672 856 q 669 849 672 851 q 665 847 667 847 q 613 839 638 844 q 564 826 588 833 q 549 821 556 826 q 556 817 553 817 q 561 818 558 818 q 576 815 572 818 q 583 812 581 814 q 589 807 585 810 q 606 809 597 808 q 624 813 614 810 q 635 810 632 813 q 640 804 640 810 q 638 797 640 800 q 631 794 635 796 q 624 793 626 793 q 607 789 615 790 q 590 786 599 788 q 578 780 581 786 q 575 765 576 774 q 561 760 568 763 q 547 757 554 758 q 493 745 519 753 q 442 728 467 738 q 363 692 401 711 q 289 649 325 672 q 272 635 281 642 q 256 617 263 628 q 265 612 261 614 q 276 607 269 610 q 321 587 299 597 q 367 567 343 576 q 388 558 378 563 q 408 554 397 553 q 413 553 411 554 q 418 553 415 553 q 522 497 474 529 q 606 414 569 464 q 639 356 629 386 q 632 311 649 328 q 622 308 629 308 q 619 311 621 308 q 618 317 618 314 q 622 347 626 333 q 610 375 617 361 q 598 378 603 378 q 589 381 593 379 q 588 375 588 379 q 597 353 593 364 q 601 331 600 343 q 606 318 604 324 q 611 307 608 313 q 617 285 618 296 q 611 265 617 275 q 597 245 604 254 q 583 226 590 236 q 548 192 567 208 q 510 161 529 176 q 463 129 486 144 q 418 99 440 114 q 309 25 363 61 q 204 -51 256 -11 q 186 -61 193 -60 q 175 -60 179 -64 q 174 -54 172 -57 q 175 -49 175 -51 q 177 -46 176 -47 q 181 -42 178 -44 q 174 -35 178 -39 q 167 -26 171 -31 q 185 -6 174 -14 q 203 13 196 1 q 192 12 196 15 q 183 6 188 8 q 167 -8 175 -1 q 150 -21 158 -14 q 144 -24 147 -22 q 138 -26 140 -25 q 134 -24 136 -26 q 131 -21 132 -22 l 131 -15 l 147 1 q 210 45 179 24 q 272 90 240 67 q 284 99 278 94 q 296 107 290 103 q 289 110 292 111 q 283 107 286 108 q 213 65 247 86 q 142 25 178 44 q 128 15 135 21 q 115 6 122 10 q 85 -17 101 -8 q 77 -19 82 -19 q 65 -19 72 -19 q 71 1 71 -7 q 62 32 60 22 q 82 58 64 42 l 115 92 q 118 93 118 92 l 118 96 q 104 92 111 99 q 73 71 89 81 q 42 47 57 61 q 29 49 39 43 q 28 63 22 56 q 50 79 39 74 q 135 134 90 108 q 225 183 179 160 q 290 226 260 203 q 347 276 319 249 q 351 290 350 283 q 356 303 353 296 q 361 325 358 317 q 360 354 365 344 q 335 372 354 364 q 254 401 294 388 q 171 421 214 414 q 156 429 164 421 q 147 437 151 435 q 135 443 142 439 q 101 458 118 450 q 68 475 85 467 q 58 481 63 478 q 47 488 54 485 q 43 493 44 490 q 44 500 42 496 q 58 503 46 507 q 89 486 74 494 q 121 469 104 478 q 129 468 125 468 q 138 465 133 468 q 155 456 150 457 q 178 451 160 454 q 138 465 158 469 l 138 469 m 464 167 q 460 169 458 169 l 458 169 q 426 148 442 158 q 394 126 410 138 q 331 80 363 103 q 265 33 299 57 l 263 31 l 265 29 q 303 50 276 33 q 359 88 329 67 q 418 130 389 108 q 464 167 447 151 m 626 921 q 584 919 610 922 q 531 908 558 915 q 476 891 503 901 q 431 869 449 881 q 479 883 456 876 q 526 897 503 890 q 574 908 550 903 q 626 921 599 914 m 542 307 q 536 288 542 299 q 526 272 532 281 q 544 271 539 272 q 563 266 560 264 q 572 283 567 268 l 572 290 q 563 297 568 294 q 558 307 558 299 q 554 319 560 315 q 542 328 549 324 l 542 307 m 204 718 q 160 684 181 703 q 121 646 140 665 q 116 640 118 643 q 118 632 114 638 q 163 674 140 654 q 204 718 185 693 m 206 539 q 179 574 192 560 q 156 593 167 589 q 169 564 156 578 q 185 549 176 556 q 206 539 194 543 m 457 303 q 415 283 440 300 q 374 250 389 267 q 419 275 399 263 q 457 303 440 288 m 244 18 q 221 -2 231 7 q 200 -19 211 -11 q 199 -31 200 -19 q 221 -12 211 -19 q 240 3 231 -6 q 243 9 243 6 q 244 18 243 13 m 79 572 q 95 594 92 583 q 101 618 99 604 q 89 605 93 610 q 83 596 85 600 q 80 586 81 592 q 79 572 79 581 m 526 463 q 486 488 510 482 q 505 472 494 478 q 526 463 515 467 m 389 313 q 398 327 394 322 q 406 339 401 332 q 394 343 399 342 q 383 347 390 344 q 389 313 385 333 m 519 210 q 538 224 535 221 q 547 239 540 228 q 519 210 528 232 m 96 558 q 110 546 107 547 q 115 549 113 544 q 104 565 113 554 q 100 562 101 564 q 96 558 99 560 m 564 368 q 556 365 560 367 q 549 363 551 364 q 551 358 550 360 q 554 353 553 356 q 558 350 556 351 q 565 351 561 349 q 565 358 565 354 q 564 368 564 363 m 414 308 q 424 313 422 311 q 432 322 426 315 q 422 322 424 324 q 414 308 419 319 z "},"R":{"ha":750,"x_min":11,"x_max":786,"o":"m 597 133 q 601 124 597 126 q 608 119 604 122 q 634 101 621 110 q 660 82 647 92 q 672 70 667 75 q 683 60 678 65 q 690 44 690 51 q 686 29 689 36 q 653 22 672 14 q 645 26 649 24 q 638 32 642 29 q 602 55 619 43 q 565 78 585 67 q 553 85 563 82 q 552 78 550 79 q 557 74 554 76 q 576 59 567 67 q 596 43 585 51 q 613 27 606 36 q 628 10 619 18 q 631 0 635 4 q 619 -8 626 -4 q 632 -19 626 -15 q 643 -29 638 -24 q 644 -42 651 -32 q 632 -46 640 -46 q 622 -42 626 -44 q 614 -39 618 -40 q 543 14 576 -17 q 519 33 531 22 q 442 106 482 72 q 363 175 403 140 q 308 228 335 201 q 253 282 281 256 q 244 293 249 288 q 236 303 240 299 q 241 312 239 308 q 247 319 243 315 q 239 326 243 324 q 229 333 235 329 q 225 275 225 300 q 221 174 222 224 q 218 74 219 124 q 217 44 215 58 q 215 17 218 31 q 214 3 215 8 q 206 -1 211 -1 q 199 3 201 -1 q 192 17 194 10 q 186 32 189 25 q 181 45 183 39 q 171 57 179 51 q 169 62 169 57 q 168 71 169 67 q 168 77 168 74 q 164 83 168 81 q 158 80 158 83 q 157 74 158 76 q 151 14 154 43 q 146 -46 149 -15 q 142 -64 144 -56 q 139 -81 140 -72 q 133 -84 136 -82 q 128 -85 131 -86 q 124 -82 125 -85 q 122 -76 122 -79 q 126 -37 125 -57 q 131 4 128 -17 q 124 17 136 15 q 121 -7 122 4 q 118 -31 119 -18 q 118 -40 118 -35 q 117 -50 118 -46 q 115 -52 117 -51 q 111 -56 113 -53 q 103 -51 103 -56 q 100 -44 100 -49 q 89 -28 100 -33 q 72 14 61 -12 q 74 57 76 33 q 72 82 71 69 q 71 108 72 94 q 54 111 61 108 q 49 133 47 121 q 49 158 50 146 q 45 183 46 171 q 43 208 44 196 q 39 156 39 181 q 36 128 38 140 q 33 101 35 115 q 31 94 32 97 q 26 89 29 92 q 21 85 24 86 q 17 85 18 85 q 11 94 11 89 q 14 113 13 104 q 17 133 15 122 q 19 159 18 146 q 21 185 21 172 q 28 306 25 246 q 33 428 31 367 q 37 454 35 442 q 38 481 39 467 q 40 526 38 504 q 44 571 43 549 q 47 617 46 594 q 50 664 49 640 q 56 748 53 706 q 63 831 60 790 l 63 846 q 57 849 60 847 q 50 851 54 850 q 47 856 47 853 q 49 861 46 858 q 67 885 67 871 q 67 915 67 900 q 63 932 61 924 q 68 949 65 940 q 74 964 71 953 q 85 969 76 972 q 97 963 92 967 q 108 957 103 960 q 116 970 113 963 q 117 988 119 978 q 133 997 125 993 q 151 999 140 1000 q 203 1006 176 997 q 214 1009 208 1008 q 225 1010 219 1010 q 254 1009 240 1008 q 283 1011 268 1010 q 294 1013 290 1011 q 304 1014 299 1014 q 424 1021 364 1019 q 543 1021 483 1022 q 562 1020 554 1021 q 575 1010 569 1019 q 583 1006 578 1007 q 596 1004 589 1006 q 632 994 614 999 q 669 986 650 990 q 683 980 676 983 q 694 974 689 976 q 707 953 707 964 q 704 946 707 949 q 700 944 701 943 q 696 946 699 946 l 693 946 q 647 973 674 968 q 593 982 621 978 q 592 979 593 982 q 599 975 593 975 q 635 965 617 971 q 671 951 654 960 q 683 944 678 947 q 690 931 689 940 q 694 926 690 928 q 700 921 697 924 q 712 914 706 917 q 724 907 718 911 q 738 899 731 903 q 750 889 744 894 q 768 800 786 849 q 757 778 764 789 q 743 757 750 768 q 735 747 739 751 q 724 735 731 742 q 729 728 726 731 q 732 722 732 725 q 729 708 729 715 q 722 694 729 701 q 702 677 711 686 q 682 660 693 668 q 622 617 651 638 q 563 574 593 596 q 508 542 535 557 q 453 514 481 526 q 421 503 439 510 q 413 507 417 506 q 406 511 410 508 q 366 494 386 503 q 326 478 346 486 q 328 467 325 471 q 333 461 331 464 q 397 403 365 432 q 461 344 429 374 q 535 276 499 310 q 608 208 571 243 q 618 198 614 203 q 628 186 622 193 q 627 178 628 182 q 626 168 626 174 q 717 111 665 136 q 716 93 713 101 q 711 74 719 85 q 701 79 706 76 q 693 85 697 82 q 654 104 675 99 q 638 110 646 106 q 622 118 629 115 q 610 128 615 122 q 597 133 606 133 q 574 150 589 146 q 547 176 557 169 q 525 183 536 183 q 547 163 536 172 q 574 150 558 154 q 597 133 578 133 m 336 507 q 349 508 346 507 q 363 519 351 510 q 349 515 354 517 q 339 511 343 513 q 336 506 336 506 q 321 504 328 508 q 304 496 314 500 q 323 497 318 496 q 336 507 328 499 m 513 892 q 530 885 521 885 q 551 886 539 885 q 530 891 539 890 q 513 890 521 892 q 508 894 510 892 q 503 896 506 896 q 484 897 493 897 q 464 896 475 896 q 461 901 464 899 q 396 900 425 906 q 430 897 413 897 q 467 897 447 896 q 472 894 469 896 q 479 892 475 892 q 496 891 488 890 q 513 892 504 892 m 597 631 q 616 638 608 631 q 633 653 624 644 q 612 644 617 646 q 597 631 607 642 q 581 626 588 631 q 565 614 574 621 q 585 620 581 618 q 597 631 589 622 m 331 596 q 334 594 332 596 q 339 596 336 593 q 392 615 365 606 q 444 635 418 624 q 448 638 446 636 q 453 643 450 639 l 442 643 q 389 622 415 632 q 336 601 363 613 l 331 596 l 321 596 q 242 568 281 581 q 236 560 239 568 q 241 559 239 560 q 246 560 243 558 q 285 574 265 567 q 325 590 304 582 q 331 596 325 590 m 240 647 q 256 653 249 649 q 366 697 313 675 q 474 743 419 719 q 514 763 494 753 q 553 785 533 774 q 569 799 564 793 q 550 817 556 813 q 525 825 544 821 q 292 842 413 857 q 269 840 281 840 q 249 833 258 839 q 241 790 244 817 q 237 737 238 764 q 237 685 236 710 q 240 647 238 661 m 203 364 q 197 320 199 347 q 194 263 194 293 q 194 201 193 232 q 197 147 194 171 q 201 186 199 168 q 203 224 203 204 q 206 257 204 240 q 204 289 207 274 q 206 326 204 308 q 203 364 207 344 m 436 667 q 469 676 451 669 q 526 706 488 683 q 575 734 563 725 q 597 754 588 743 q 596 755 596 754 q 593 754 596 756 q 519 713 556 733 q 444 672 483 692 q 436 667 442 672 m 422 878 l 424 878 q 345 879 383 879 q 267 879 307 879 q 261 878 264 879 q 254 878 258 878 q 258 875 257 875 l 260 874 q 342 874 301 874 q 422 875 382 875 l 422 878 m 72 603 q 76 663 75 635 q 79 719 78 692 q 72 663 78 692 q 72 603 65 635 m 638 819 q 658 836 651 825 q 656 842 658 842 q 654 845 656 844 q 653 844 653 846 q 632 844 643 835 q 624 848 628 846 q 614 844 619 850 q 622 833 619 836 q 630 826 626 831 q 638 819 633 822 m 585 814 q 587 825 586 821 q 588 833 588 829 q 569 844 579 843 q 549 842 560 844 q 565 828 557 835 q 585 814 574 821 m 293 629 q 236 607 260 625 q 241 606 239 607 q 246 607 243 604 q 269 616 257 611 q 293 629 282 621 m 158 981 q 147 969 147 978 q 161 964 147 961 q 165 965 165 964 q 171 975 171 971 q 167 978 169 976 q 164 981 165 979 l 158 981 m 67 542 l 67 586 l 65 586 l 65 542 l 67 542 m 118 624 l 118 582 l 119 582 l 119 624 l 118 624 m 168 104 l 168 139 l 165 139 l 165 104 l 168 104 m 508 79 q 510 82 508 82 q 513 83 511 82 q 494 99 506 90 q 486 100 492 100 q 485 99 486 100 q 497 88 492 92 q 508 79 503 83 m 667 875 q 674 858 671 860 q 690 858 676 856 q 680 866 685 863 q 667 875 675 869 m 585 779 q 601 789 599 786 q 606 801 603 792 q 596 791 600 796 q 585 779 592 786 m 185 750 q 186 761 186 754 l 186 771 l 182 771 l 182 751 l 185 750 m 325 925 l 300 925 l 300 924 l 325 924 l 325 925 m 292 461 q 290 460 292 460 q 288 457 288 457 q 294 449 293 454 q 306 444 296 443 q 299 453 303 450 q 292 461 296 457 m 400 650 q 426 660 408 649 q 410 656 415 660 q 400 650 404 653 z "},"Q":{"ha":722,"x_min":25,"x_max":701,"o":"m 685 564 q 684 481 681 522 q 694 396 688 439 q 688 391 692 393 q 681 386 683 389 l 675 368 q 664 333 671 353 q 617 208 642 272 q 587 146 604 176 q 544 88 569 115 q 549 76 547 82 q 554 64 551 69 l 617 -87 q 618 -93 617 -90 q 615 -106 622 -100 q 600 -100 608 -112 q 594 -86 597 -93 q 588 -71 590 -79 l 536 54 q 531 64 533 58 q 526 74 529 69 q 517 75 526 75 l 522 58 q 537 25 529 42 q 553 -8 544 8 q 557 -16 554 -12 q 558 -22 560 -19 q 562 -44 556 -35 q 575 -62 568 -54 q 584 -85 582 -74 q 590 -107 586 -96 q 592 -117 593 -111 q 589 -128 590 -122 q 558 -140 579 -150 q 547 -133 551 -137 q 539 -126 543 -129 l 522 -104 q 513 -89 517 -97 q 499 -74 508 -81 q 492 -65 494 -71 q 488 -56 490 -60 q 479 -49 486 -53 q 476 -50 478 -50 l 476 -51 l 499 -122 q 504 -131 500 -126 q 488 -136 494 -143 l 471 -117 l 446 -68 q 435 -67 442 -67 q 426 -65 429 -68 q 419 -56 422 -61 q 414 -44 417 -50 l 397 1 q 331 -9 363 -10 q 265 3 299 -8 q 171 58 213 24 q 144 85 156 71 q 126 121 133 100 q 103 131 111 121 q 90 154 96 140 q 73 203 79 178 q 63 254 67 228 q 51 299 56 276 q 42 346 47 322 q 31 417 35 382 q 29 489 28 453 q 28 507 29 497 q 28 525 28 517 q 26 531 28 528 q 28 536 25 533 q 33 563 32 550 q 35 590 35 576 q 42 649 38 619 q 53 706 46 678 q 59 722 56 714 q 65 739 63 731 l 74 754 q 76 761 75 757 q 79 768 76 765 q 99 804 92 785 q 114 842 106 824 q 125 860 115 850 l 193 949 q 205 960 199 956 q 221 965 211 965 q 229 971 224 965 q 259 986 244 981 q 290 996 274 992 q 300 1000 294 999 q 310 1004 306 1001 q 372 1017 339 1018 q 443 1006 408 1014 q 510 979 478 999 q 547 957 529 968 q 583 933 565 946 q 594 924 589 929 q 604 914 600 919 q 596 897 611 908 q 553 931 576 917 q 506 957 531 944 l 504 957 q 502 956 503 957 q 500 956 501 956 q 528 932 514 944 q 544 918 536 925 q 558 903 551 911 q 572 888 565 896 q 588 878 578 881 q 604 883 593 881 q 608 882 606 882 q 611 881 610 882 q 616 872 614 876 q 622 864 618 867 q 638 849 633 857 q 644 831 642 840 q 676 712 660 771 q 700 590 693 653 q 701 582 701 588 q 701 575 701 579 q 697 569 700 571 q 685 564 696 567 m 372 347 q 371 356 372 351 q 369 364 369 360 q 372 385 369 379 q 381 390 374 390 q 386 385 386 390 q 390 374 390 382 q 392 360 392 367 q 394 346 392 353 q 413 333 410 343 l 429 271 q 432 282 435 276 q 425 325 428 303 q 413 367 422 347 q 413 383 408 375 q 426 394 417 392 q 439 390 433 396 q 442 381 444 385 q 440 361 438 369 q 446 344 443 353 q 464 294 454 317 q 468 287 465 290 q 474 279 471 283 q 479 293 476 288 q 493 397 490 342 q 498 458 496 428 q 503 519 500 489 q 503 574 504 547 q 499 628 503 601 q 490 667 494 649 q 475 706 485 686 q 468 719 472 713 q 457 731 464 725 l 442 722 q 413 749 428 736 q 385 774 399 761 q 364 786 374 785 q 338 790 351 789 q 313 793 325 792 q 301 780 304 788 q 293 764 297 772 q 233 609 256 688 q 208 446 211 531 q 211 372 208 408 q 222 299 214 335 q 246 279 240 299 q 247 275 246 276 q 250 271 249 274 q 296 182 267 224 q 310 167 303 174 q 325 153 317 160 q 335 149 332 149 q 347 158 339 150 q 333 208 340 183 q 318 257 325 232 q 315 274 317 265 q 311 290 313 282 q 311 311 308 303 q 319 319 311 319 q 328 313 328 317 q 329 293 329 307 q 344 322 344 304 q 348 339 344 336 q 367 344 351 342 l 372 347 m 532 333 q 539 360 536 346 q 542 389 542 374 q 542 417 542 403 q 544 447 543 432 l 544 546 q 540 508 542 526 q 536 474 538 490 q 532 436 533 454 q 528 399 531 418 q 524 360 528 379 q 525 318 521 340 l 532 333 m 164 558 q 154 465 153 510 q 172 374 156 421 l 164 558 m 596 310 q 603 317 600 315 q 606 324 606 319 q 621 396 614 360 q 635 468 628 432 q 636 477 638 472 q 633 492 635 482 q 626 457 629 472 q 621 426 624 442 q 613 399 617 413 q 607 369 610 385 q 599 342 604 356 q 596 310 593 328 m 414 957 q 390 960 394 960 q 369 957 385 960 l 385 938 q 420 928 403 931 q 457 922 438 926 q 439 935 450 935 q 419 940 428 935 l 414 957 m 226 739 l 226 744 q 224 748 224 746 q 222 750 224 750 q 215 746 215 750 q 198 693 203 721 q 194 638 193 665 l 226 739 m 144 342 q 154 288 143 321 q 182 232 165 254 q 183 242 186 238 q 178 254 181 247 q 174 265 176 260 q 171 276 172 269 q 166 288 168 282 q 161 300 164 294 l 156 322 q 153 333 154 328 q 144 342 153 339 m 82 660 q 86 674 85 667 q 90 690 88 682 q 97 716 93 703 q 104 744 100 729 q 97 754 108 751 q 94 751 96 753 q 92 746 92 749 q 82 700 85 722 q 79 654 79 678 q 82 660 82 657 m 547 839 q 552 822 547 828 q 564 810 557 815 q 582 775 568 789 q 594 738 586 756 q 610 700 601 719 q 611 708 611 706 q 599 740 606 724 q 588 774 593 757 q 582 775 585 775 q 565 813 583 794 q 560 828 564 821 q 547 839 556 836 m 561 222 q 542 185 551 204 q 525 149 533 167 q 532 136 517 139 q 551 177 543 157 q 561 222 558 197 m 618 654 q 615 643 615 646 q 619 608 619 626 q 626 572 618 590 q 631 576 629 575 q 633 579 633 578 q 631 617 633 599 q 618 654 629 635 m 531 713 q 526 728 526 718 q 520 759 529 746 q 500 786 511 772 q 503 775 500 776 q 519 728 513 751 q 531 681 526 706 q 533 676 531 679 q 531 713 538 697 m 356 921 q 314 924 331 926 q 282 904 297 922 l 356 921 m 358 808 q 385 801 376 801 q 396 795 390 799 q 408 796 401 792 q 383 815 392 813 q 358 808 375 817 m 135 649 q 127 631 128 636 q 129 611 126 626 q 133 610 131 611 q 136 610 135 610 q 144 621 149 613 l 135 649 m 378 46 q 349 39 363 43 q 319 31 336 35 q 353 28 339 26 q 378 46 367 29 m 178 193 q 176 192 176 193 q 172 192 175 192 q 180 178 176 185 q 188 165 183 171 q 195 154 190 160 q 204 143 200 149 l 207 143 q 210 144 208 143 l 178 193 m 121 504 q 126 534 128 521 q 124 560 124 547 q 116 535 119 547 q 121 504 113 522 m 415 988 q 444 975 431 979 q 474 974 457 971 q 445 984 458 978 q 415 988 432 990 m 235 797 q 222 787 228 793 q 214 768 217 781 q 230 781 228 772 q 235 797 232 789 m 63 564 q 64 510 58 533 q 65 540 65 525 q 65 571 65 556 q 63 564 63 565 m 532 861 q 536 849 533 854 q 547 842 539 843 q 541 853 546 849 q 532 861 536 857 m 333 99 l 333 93 q 340 92 336 93 q 347 92 343 92 q 351 94 350 92 q 353 97 351 96 q 351 98 351 97 q 350 99 351 99 l 333 99 m 74 615 q 77 630 78 622 q 76 646 76 638 q 74 638 74 640 q 72 626 71 631 q 74 615 74 621 m 68 601 q 66 588 65 594 q 65 575 67 582 q 71 589 68 581 q 71 601 71 596 q 72 613 71 606 q 69 607 71 610 q 68 601 68 604 m 206 192 q 203 204 204 201 q 193 215 201 207 q 197 203 196 206 q 206 192 199 200 m 249 138 q 257 124 254 126 q 271 115 260 122 l 249 138 m 536 640 q 539 656 538 647 q 536 671 540 664 l 536 640 z "},"P":{"ha":703,"x_min":17,"x_max":714,"o":"m 249 325 q 243 282 246 303 q 238 240 240 261 q 229 180 233 210 q 221 118 225 150 q 216 89 218 103 q 211 60 214 75 q 206 49 211 54 q 199 47 206 47 q 194 51 194 47 q 193 63 193 54 q 195 119 197 90 q 194 175 193 147 q 194 200 194 188 q 196 224 193 213 q 199 239 199 231 q 199 257 199 247 q 190 213 192 233 q 188 171 189 192 q 185 114 186 142 q 182 57 183 86 q 165 39 182 39 q 163 8 164 24 q 158 -22 161 -7 q 155 -52 156 -37 q 153 -82 154 -67 q 148 -92 150 -87 q 143 -104 146 -97 q 140 -106 143 -106 q 136 -106 138 -107 q 131 -99 131 -103 q 130 -92 128 -96 q 132 -85 132 -87 q 135 -54 133 -69 q 139 -22 138 -39 l 122 -22 q 105 -12 111 -19 q 101 7 99 -6 q 102 21 101 14 q 104 36 103 28 q 97 32 100 33 q 92 29 94 31 q 82 31 85 29 q 81 39 81 33 q 82 47 81 43 q 94 77 90 61 q 99 110 97 93 q 102 158 101 133 q 106 208 103 183 q 109 240 108 224 q 111 274 110 257 l 111 314 q 103 303 103 306 q 101 289 101 300 q 97 230 99 260 q 93 171 96 200 q 90 149 92 160 q 86 126 89 138 q 83 121 86 124 q 79 119 81 118 q 63 113 68 124 q 47 103 58 103 q 44 71 46 86 q 40 40 42 56 q 37 28 38 33 q 31 17 36 22 q 24 14 29 14 q 18 19 18 18 q 17 25 17 22 q 18 29 18 28 q 23 65 21 47 q 26 99 25 82 q 30 120 29 110 q 32 142 31 131 q 33 151 32 146 q 32 161 35 157 q 29 185 26 172 q 32 208 32 197 q 36 252 35 231 q 38 296 38 274 q 40 363 40 329 q 40 431 40 396 q 42 487 42 458 q 46 544 43 515 q 49 688 47 617 q 53 832 50 760 q 57 893 53 865 q 44 896 50 897 q 36 904 38 894 q 39 913 35 910 q 47 919 43 917 q 51 921 49 919 q 57 924 54 922 q 58 961 57 943 q 58 996 58 979 q 46 1015 51 1007 q 35 1031 40 1024 q 44 1043 36 1042 q 57 1051 53 1044 q 29 1056 39 1051 q 24 1063 19 1056 q 29 1069 24 1069 q 40 1072 31 1072 q 67 1069 54 1069 q 96 1067 81 1068 q 108 1067 101 1067 q 121 1064 114 1067 q 125 1083 121 1075 q 128 1103 125 1089 q 135 1109 131 1107 q 143 1108 140 1111 q 147 1096 149 1104 q 144 1089 144 1093 q 143 1081 144 1085 q 175 1086 163 1069 q 181 1089 176 1090 q 188 1081 186 1088 q 190 1072 189 1076 q 193 1063 192 1067 q 196 1058 193 1058 q 200 1060 199 1058 q 201 1061 201 1060 q 206 1072 206 1065 q 206 1093 206 1083 q 207 1114 206 1103 q 207 1125 207 1119 q 210 1136 207 1131 q 213 1144 211 1140 q 221 1146 214 1147 q 229 1136 226 1146 l 229 1121 l 229 1097 q 244 1097 236 1094 q 256 1090 253 1099 q 260 1078 258 1085 q 263 1063 261 1071 q 274 1066 267 1063 q 283 1058 281 1069 q 296 1050 285 1050 q 310 1047 303 1047 q 324 1047 317 1047 q 406 1040 365 1046 q 486 1022 447 1035 q 503 1017 492 1019 q 561 994 535 1011 q 588 979 575 988 q 615 963 600 971 q 651 939 633 951 q 683 911 668 926 q 689 904 686 907 q 694 897 692 901 q 697 891 696 894 q 694 883 699 888 q 688 881 692 881 q 679 886 683 882 q 674 892 676 889 q 668 899 671 896 q 665 892 663 894 q 668 886 667 889 q 681 864 675 875 q 694 842 688 853 q 714 793 704 821 q 703 760 703 779 q 699 722 703 740 q 689 683 696 703 q 658 611 676 646 q 617 544 640 576 q 594 519 606 531 q 567 497 582 507 q 555 490 560 494 q 544 479 550 485 q 502 446 522 463 q 460 413 482 429 q 410 382 436 394 q 356 358 383 369 q 344 356 347 356 q 324 356 333 361 q 306 347 315 351 q 249 325 275 336 m 626 908 q 596 939 611 921 q 585 935 592 944 q 606 909 596 924 q 628 881 617 894 q 638 857 633 869 q 647 832 642 844 q 656 826 653 829 q 674 810 663 822 q 650 872 668 846 q 626 881 643 885 l 626 908 m 308 843 q 294 709 301 775 q 281 576 288 643 q 299 581 292 576 q 314 588 306 585 q 326 593 321 590 q 333 604 331 596 q 339 611 335 610 q 350 615 343 613 q 397 637 374 625 q 440 664 419 649 q 453 676 447 671 q 467 685 460 681 q 462 700 463 697 q 465 706 461 703 q 483 735 481 718 q 476 799 488 772 q 424 838 464 826 q 368 847 396 846 q 308 843 340 847 m 79 564 q 83 612 81 590 q 86 654 85 633 q 92 744 89 699 q 97 833 94 789 q 98 853 99 844 q 97 871 97 863 q 88 868 90 872 q 85 861 86 864 q 82 839 82 854 q 80 760 81 800 q 76 681 79 721 q 76 624 76 653 q 79 564 75 596 m 489 819 q 504 722 513 772 q 531 757 524 739 q 533 765 533 760 q 532 774 533 769 q 518 801 528 789 q 489 819 508 813 m 251 565 q 257 571 257 568 q 269 653 264 613 q 276 736 274 694 q 267 726 272 731 q 261 714 263 721 q 259 701 258 708 q 260 686 260 693 q 257 674 257 679 q 257 663 257 668 q 255 615 256 639 q 251 565 254 590 m 131 667 q 126 646 128 656 q 125 626 125 636 q 122 598 122 611 q 121 572 122 585 q 117 521 119 546 q 114 469 115 496 q 121 464 108 461 q 122 476 121 469 q 122 489 122 482 q 126 556 125 522 q 128 624 126 590 q 129 635 128 631 q 132 643 131 639 q 133 673 133 658 q 131 703 133 688 l 131 667 m 367 536 q 368 533 367 535 l 368 532 q 379 533 375 532 q 434 561 407 549 q 483 596 461 574 q 487 601 486 599 q 489 606 488 603 q 474 605 479 610 q 464 596 469 600 q 451 588 457 592 q 438 579 444 583 q 427 572 432 575 q 415 565 422 569 q 390 550 406 558 q 378 542 383 546 q 367 536 374 539 m 663 740 q 658 784 661 764 q 633 819 656 804 q 636 785 635 801 q 640 751 638 768 q 650 747 644 749 q 663 740 656 744 m 256 361 q 303 389 275 371 q 340 418 331 407 l 335 418 q 299 401 317 410 q 263 385 281 393 q 256 361 250 376 m 525 504 q 566 535 549 519 q 600 571 583 551 q 606 577 603 574 q 607 588 610 581 q 554 541 574 561 q 525 504 535 521 m 396 889 q 366 903 381 900 q 336 910 351 906 q 326 913 331 911 q 314 908 321 914 q 318 903 319 903 q 354 892 336 899 q 396 889 372 885 m 274 768 q 283 797 281 778 q 279 832 285 815 q 274 768 269 813 m 279 538 q 311 552 299 544 q 336 574 324 560 q 306 563 319 568 q 281 553 293 558 q 276 546 278 550 q 279 538 275 542 m 486 883 q 503 869 494 876 q 521 856 511 863 q 531 854 521 856 q 515 878 524 869 q 494 893 506 886 q 486 883 492 892 m 446 621 q 474 631 465 625 q 494 654 482 638 q 492 654 492 654 q 469 638 481 646 q 446 621 457 629 m 461 1000 q 451 1010 457 1010 q 438 1013 444 1011 q 422 1015 425 1015 q 407 1013 418 1015 q 435 1006 422 1011 q 461 1000 447 1000 m 201 708 l 201 646 l 204 646 l 204 708 l 201 708 m 393 943 q 409 935 401 939 q 425 926 417 931 q 440 924 429 924 q 419 938 429 932 q 393 943 408 943 m 517 971 q 518 972 517 971 l 519 974 q 506 985 513 981 q 493 993 500 989 q 476 993 493 993 q 498 981 489 986 q 517 971 507 975 m 97 915 q 92 914 94 914 q 88 911 90 914 q 86 906 86 908 q 85 900 86 903 l 88 899 q 99 906 99 899 q 98 910 99 908 q 97 915 97 913 m 572 775 q 567 765 569 769 q 560 754 564 761 q 566 752 564 753 q 572 749 568 751 l 572 775 m 111 1044 l 90 1044 l 111 1044 m 318 939 q 331 935 325 938 q 346 939 338 932 l 318 939 z "},"z":{"ha":756,"x_min":-31,"x_max":751,"o":"m 588 694 q 644 769 615 732 q 701 846 674 807 q 712 858 707 851 q 724 869 717 864 q 727 874 725 872 q 732 878 729 875 q 741 875 736 879 q 743 867 746 871 q 733 841 738 854 q 721 817 729 828 q 651 719 685 768 q 582 621 617 669 q 511 524 546 572 q 444 424 476 475 q 412 372 429 397 q 374 322 394 346 q 364 311 365 317 q 333 262 349 286 q 303 214 318 238 q 294 196 297 203 q 319 193 313 196 l 600 193 q 635 192 618 193 q 668 190 651 190 q 678 188 675 190 q 697 179 686 181 q 718 174 708 178 q 725 169 724 172 q 729 163 732 165 q 724 153 729 153 q 707 150 715 150 l 639 150 q 624 144 632 150 q 637 143 631 144 q 650 142 643 142 q 675 140 663 140 q 700 136 688 139 q 708 131 707 132 q 711 125 713 128 q 707 119 711 119 q 694 117 700 118 q 681 114 688 117 q 689 113 685 114 q 697 113 693 113 q 717 106 708 110 q 719 96 724 99 q 717 92 719 94 q 713 90 714 90 q 697 92 701 90 q 690 93 693 92 q 675 96 686 94 q 688 88 683 90 q 697 83 693 86 q 706 57 710 72 q 685 40 699 44 l 656 40 l 633 40 q 639 32 631 32 q 650 33 644 32 q 661 35 656 35 q 671 28 667 35 q 669 24 671 26 q 667 18 668 21 q 654 12 661 13 q 640 11 647 11 q 607 11 628 11 q 563 11 586 11 q 519 12 540 11 q 486 13 499 13 q 351 17 418 17 q 215 17 283 18 q 178 15 196 17 q 144 13 161 13 q 137 1 138 7 q 133 -11 136 -4 q 130 -17 132 -14 q 125 -22 128 -19 q 118 -22 122 -24 q 114 -17 114 -21 q 111 -7 111 -12 q 111 4 111 -1 q 93 6 97 7 q 82 -3 89 4 q 76 -14 79 -10 q 71 -22 74 -18 q 43 -33 60 -37 q 31 -6 28 -26 q 33 11 32 3 q 36 29 35 19 q 37 33 36 32 q 38 38 38 35 q 29 35 31 40 q 18 17 22 26 q 10 0 14 8 q 6 -8 8 -4 q 1 -17 4 -12 q -11 -6 -14 -11 q -8 5 -10 1 q -4 15 -6 8 q 0 24 -1 19 q 4 35 1 28 q -10 35 -3 35 q -25 38 -18 35 q -31 43 -31 38 q -31 49 -31 46 q -28 54 -31 51 q -15 63 -22 60 q 1 61 -8 65 q 15 60 11 56 q 24 79 19 64 q 14 83 19 82 q 4 88 8 85 q -7 106 -7 94 q 4 122 -7 118 q 31 141 24 128 q 46 169 39 154 q 70 228 57 200 q 99 283 83 256 q 221 492 158 389 q 351 697 283 596 q 395 763 374 729 q 439 829 417 796 q 447 840 443 833 q 454 851 450 846 q 412 849 432 850 q 371 846 392 849 q 317 842 343 844 q 263 835 290 839 q 201 828 232 832 q 139 819 171 824 q 125 819 132 819 q 110 818 118 818 q 100 835 96 818 q 105 840 103 838 q 110 846 107 842 q 90 848 99 849 q 71 846 82 847 q 43 850 60 840 q 39 853 40 851 q 35 857 38 856 q 65 888 43 883 q 69 896 69 892 q 68 903 68 900 q 81 924 64 919 q 108 931 96 929 q 147 933 128 932 q 185 938 165 935 q 188 939 188 938 q 189 940 188 940 q 183 943 186 943 q 158 943 171 943 q 131 942 144 943 q 102 942 115 942 q 75 946 89 942 q 64 947 69 947 q 54 946 58 946 q 47 947 50 946 q 40 949 44 947 q 38 953 38 951 q 36 957 38 954 q 40 963 36 958 q 51 965 46 965 l 76 965 q 87 967 83 965 q 97 971 90 968 q 117 983 106 979 q 139 988 128 986 q 169 992 154 990 q 199 994 183 993 q 294 1003 244 999 q 381 1008 338 1006 q 467 1014 424 1011 q 553 1019 511 1017 q 639 1025 596 1022 q 658 1032 650 1026 q 674 1043 665 1038 q 683 1037 679 1040 q 692 1032 688 1033 q 715 1033 701 1031 l 719 1033 q 731 1028 729 1031 q 731 1020 733 1025 q 721 1015 728 1015 q 701 1011 711 1013 q 681 1008 692 1010 q 673 1007 676 1008 q 661 1004 669 1006 q 672 1001 668 1003 q 678 1000 675 1000 q 699 999 689 999 q 719 992 710 999 q 731 991 724 989 q 743 992 738 993 q 749 990 746 992 q 751 986 751 988 q 746 976 751 976 q 736 972 742 974 q 725 969 731 971 q 728 934 736 950 q 710 901 721 918 q 715 885 713 896 q 692 862 701 875 q 674 836 683 849 q 644 798 658 817 q 615 760 629 779 q 591 727 603 743 q 572 692 579 711 q 562 672 568 681 q 550 656 556 664 q 554 653 554 651 l 588 694 m 158 883 q 117 879 138 885 q 75 868 96 874 q 83 865 79 867 q 92 867 88 864 q 124 874 108 869 q 156 883 139 879 l 157 883 q 158 885 157 883 q 178 884 174 883 q 199 890 183 885 q 176 889 186 888 q 158 883 167 890 m 235 361 q 231 358 233 360 q 228 354 229 357 q 182 274 204 314 q 138 196 160 235 q 136 186 136 192 l 144 186 q 160 208 153 197 q 172 232 168 218 q 181 253 176 243 q 193 275 186 264 q 210 309 201 292 q 228 343 219 326 q 232 352 231 347 q 235 361 233 357 q 247 374 246 369 q 251 393 249 378 q 240 378 244 385 q 235 361 235 371 m 442 633 q 420 607 435 628 q 389 562 406 586 q 358 514 372 538 q 339 481 344 490 q 338 478 336 479 q 339 475 339 478 q 360 502 344 481 q 392 548 375 524 q 423 594 408 572 q 442 625 438 617 l 442 633 m 543 776 q 551 778 547 778 q 556 779 554 778 q 563 789 560 783 q 572 800 567 794 q 597 830 586 814 q 619 864 608 846 q 607 863 611 864 q 599 856 601 863 q 569 818 583 836 q 543 776 556 800 m 458 513 q 425 462 439 488 q 408 421 411 436 q 436 455 425 438 q 460 489 447 472 q 458 501 458 496 q 458 513 458 507 m 274 161 q 295 160 286 161 q 311 161 304 158 q 332 162 322 161 q 351 164 342 163 q 357 167 354 164 q 364 169 356 167 q 303 172 322 174 q 274 161 285 171 m 658 926 q 642 915 646 919 q 640 907 639 911 q 644 904 642 904 q 653 910 651 904 q 658 919 656 915 l 658 926 m 260 44 q 211 44 232 50 q 260 44 232 39 m 211 893 q 249 893 231 885 q 242 894 246 893 q 235 896 238 896 q 222 894 228 896 q 211 893 217 893 m 331 122 q 355 119 346 119 q 376 119 364 118 q 355 124 364 124 q 331 122 346 124 m 296 128 q 254 128 279 132 q 296 128 274 121 m 436 117 l 414 117 l 414 114 l 436 114 l 436 117 m 635 124 q 633 119 635 122 l 657 119 l 657 124 l 635 124 m 464 819 q 473 829 472 826 q 476 840 474 832 q 468 831 469 833 q 464 819 467 828 z "},"y":{"ha":733,"x_min":-10,"x_max":781,"o":"m 385 718 q 394 736 389 728 q 404 753 400 744 q 497 919 447 839 q 599 1081 546 1000 q 604 1089 601 1085 q 610 1097 607 1093 q 615 1102 613 1100 q 619 1106 617 1104 q 632 1108 622 1111 q 633 1094 639 1101 q 628 1088 631 1092 q 622 1081 625 1085 q 609 1059 615 1069 q 596 1038 603 1049 q 602 1037 601 1033 q 606 1042 603 1040 q 610 1044 608 1043 q 617 1049 613 1046 q 622 1040 619 1044 q 626 1032 624 1036 q 653 1026 640 1040 q 671 1049 661 1039 q 681 1054 674 1054 q 689 1054 683 1060 q 692 1047 696 1051 q 689 1036 692 1038 q 681 1026 685 1031 q 681 1013 678 1021 q 678 1005 682 1010 q 672 996 675 1000 q 635 943 654 969 q 597 890 617 917 q 590 876 592 883 q 596 875 594 872 q 599 879 597 878 l 604 885 q 649 943 626 914 q 693 1000 671 972 q 702 1010 697 1006 q 711 1019 707 1015 q 719 1024 714 1022 q 728 1026 724 1025 q 744 1021 738 1029 q 749 1001 751 1013 q 739 985 743 990 q 727 967 733 975 q 715 951 721 958 q 718 945 715 946 q 722 942 721 944 q 726 936 725 939 q 728 931 726 933 q 731 933 729 933 q 733 935 732 933 q 744 949 739 942 q 756 963 750 956 q 763 969 758 969 q 769 972 765 972 q 774 972 772 972 q 776 961 781 965 q 763 940 772 951 l 658 803 q 568 678 613 740 q 479 556 524 617 q 461 506 464 533 q 456 454 458 479 q 451 403 454 429 q 448 351 450 376 q 444 300 446 326 q 440 247 442 272 q 435 196 438 222 q 428 122 431 158 q 418 49 425 86 q 412 9 414 29 q 407 -32 410 -11 q 406 -66 404 -49 q 410 -100 407 -83 q 410 -105 410 -103 q 411 -110 411 -107 q 404 -121 411 -119 q 390 -111 394 -124 q 389 -92 389 -104 q 387 -77 388 -85 q 379 -64 386 -69 q 376 -58 376 -61 q 374 -51 376 -54 q 373 -37 374 -44 q 374 -24 372 -31 q 372 10 376 -4 q 360 42 367 25 l 354 44 q 350 37 351 40 q 349 29 349 33 q 346 4 346 17 q 344 -21 346 -8 q 339 -47 344 -37 q 336 -51 339 -50 q 331 -53 333 -53 q 325 -51 328 -53 q 322 -47 322 -49 q 314 -26 322 -33 q 303 -3 303 -19 l 303 14 q 294 15 299 15 q 283 21 286 18 q 282 31 281 24 q 285 71 283 51 q 289 110 288 90 q 293 151 293 132 q 296 226 294 189 q 299 303 297 264 q 301 386 300 344 q 304 469 303 428 q 303 504 304 488 q 300 539 303 521 q 300 522 300 531 q 299 506 300 514 q 294 406 299 456 q 288 304 290 357 q 281 206 285 256 q 275 104 278 156 q 271 67 272 86 q 267 31 269 49 q 265 15 267 22 q 261 -3 264 7 q 249 -6 254 -4 q 238 -8 244 -7 q 233 -17 233 -11 q 224 -21 233 -24 q 216 -14 217 -19 q 215 -4 215 -8 q 218 20 218 8 q 218 43 218 32 q 224 104 221 74 q 229 165 226 135 q 233 219 231 193 q 238 274 235 246 q 242 319 240 297 q 246 365 243 342 q 251 439 249 401 q 256 513 253 476 q 259 546 258 529 q 261 581 260 563 q 247 619 265 603 q 208 660 228 639 q 169 701 189 681 q 102 770 136 736 q 35 839 68 804 q 27 849 31 843 q 26 863 24 854 q 26 869 28 865 q 21 874 24 872 q 11 885 17 881 q 0 896 6 890 q -5 903 -3 899 q -10 910 -7 907 q -1 917 -7 917 q 11 919 6 918 q 10 928 11 925 q 6 931 7 929 q 1 936 4 933 q -8 956 -10 944 q -6 978 -6 967 q 3 989 -4 985 q 18 989 11 993 q 31 981 25 986 q 43 972 36 976 q 53 963 49 968 q 67 950 58 957 q 59 968 64 963 q 49 979 54 974 q 43 985 46 982 q 39 992 40 988 q 40 1000 38 994 q 43 1002 40 1001 q 49 1001 46 1003 q 59 995 54 999 q 74 985 64 992 q 67 1000 69 997 q 53 1015 60 1007 q 39 1029 46 1022 q 35 1034 36 1032 q 32 1038 33 1036 q 31 1045 29 1042 q 38 1049 33 1049 q 44 1048 42 1049 q 54 1046 47 1047 l 54 1053 q 61 1068 50 1064 q 74 1060 68 1068 q 89 1042 82 1049 q 184 935 136 988 q 281 828 232 882 q 326 778 304 803 q 372 726 349 753 q 378 723 375 725 q 385 718 381 721 m 24 907 q 33 895 31 897 q 43 889 35 893 q 35 899 40 894 q 24 907 31 904 z "},"!":{"ha":319,"x_min":10,"x_max":378,"o":"m 194 1014 q 205 1044 201 1029 q 211 1076 208 1060 q 224 1092 214 1093 q 229 1072 233 1088 q 229 1062 229 1067 q 228 1049 229 1057 q 236 1061 235 1056 q 239 1071 238 1067 q 244 1088 242 1079 q 250 1103 247 1096 q 263 1106 256 1113 q 267 1097 267 1101 q 263 1084 264 1090 q 258 1071 261 1078 q 257 1063 257 1067 q 256 1054 257 1058 q 258 1052 258 1053 q 261 1051 258 1051 q 283 1024 283 1047 q 281 994 281 1008 q 278 964 281 979 q 274 938 275 951 q 269 913 272 925 q 274 901 269 906 q 277 921 275 911 q 281 940 279 931 q 284 949 283 944 q 286 956 285 953 q 295 968 293 961 q 300 982 297 975 q 308 1018 303 1001 q 325 1049 313 1035 q 333 1057 328 1054 q 342 1057 333 1057 q 342 1053 342 1054 q 343 1051 343 1053 q 342 1043 343 1046 q 336 1017 339 1029 q 331 992 333 1004 q 333 968 328 976 q 336 990 335 979 q 340 1013 338 1001 q 349 1026 343 1024 q 355 1028 351 1029 q 358 1024 358 1026 l 358 993 l 374 993 q 377 984 378 989 q 375 974 376 979 q 303 693 340 835 q 274 557 286 625 q 250 421 261 489 q 239 347 244 383 q 228 274 233 311 q 224 252 225 263 q 221 231 222 242 q 213 222 221 225 q 206 225 208 222 q 201 233 203 229 q 194 239 199 236 q 188 249 189 243 q 183 263 186 256 q 176 246 181 253 q 160 236 171 239 q 154 233 156 236 q 150 225 153 229 q 147 222 149 224 q 142 219 144 219 q 133 231 133 219 l 133 251 l 133 329 q 133 340 133 335 q 132 354 132 346 q 124 327 125 333 q 125 307 122 321 q 126 297 126 303 q 120 274 118 286 q 114 250 122 261 q 109 234 107 243 q 114 217 111 225 q 113 210 115 214 q 110 207 111 207 q 99 208 103 204 q 93 224 93 214 q 92 233 92 228 q 89 244 92 238 q 83 225 83 236 q 72 207 83 214 q 66 210 69 208 q 58 211 63 211 l 43 211 q 39 232 38 222 q 40 250 40 242 q 52 332 44 290 q 68 414 60 374 q 75 466 75 440 q 78 518 75 492 q 89 600 85 560 q 100 681 93 640 q 130 839 113 761 q 165 996 147 917 q 167 1008 167 1003 q 171 1019 168 1014 q 185 1031 172 1033 q 192 1026 192 1031 q 194 1018 193 1022 l 194 1014 m 278 711 q 292 774 286 744 q 306 833 299 804 q 318 892 311 863 q 329 957 325 922 q 312 906 321 939 q 295 836 303 872 q 283 766 288 800 q 278 711 278 732 m 71 321 q 63 279 68 300 q 65 236 58 258 q 69 278 64 258 q 71 321 75 299 m 189 342 l 189 321 l 190 321 l 190 342 l 189 342 m 215 88 q 216 79 215 83 q 215 72 217 75 q 202 15 208 43 q 189 -40 196 -12 q 175 -54 183 -54 q 167 -49 168 -53 q 165 -40 165 -44 q 163 -26 165 -37 q 156 -31 158 -29 q 150 -35 153 -32 q 138 -46 143 -42 q 122 -43 133 -50 q 117 -43 121 -43 q 114 -46 114 -43 q 99 -52 107 -51 q 82 -54 92 -53 q 63 -51 71 -57 q 54 -35 54 -46 q 56 -22 54 -28 q 58 -10 58 -17 q 56 -1 61 -4 q 43 3 50 1 q 38 -11 38 -4 q 39 -25 39 -18 q 28 -53 43 -40 q 22 -56 26 -54 q 15 -54 18 -57 q 10 -49 10 -54 l 10 -29 q 24 37 17 4 q 39 101 32 69 q 42 107 39 106 q 51 117 43 111 q 58 114 54 117 q 63 108 61 111 q 76 101 65 101 q 80 115 78 108 q 85 133 82 122 q 99 127 93 129 q 110 122 104 125 q 113 123 111 122 q 117 124 115 124 q 133 123 128 125 q 138 113 138 121 q 137 106 138 110 q 136 97 136 101 q 140 92 136 92 q 149 94 144 88 q 150 100 150 97 q 153 106 150 103 q 175 111 161 118 q 185 107 181 108 q 196 103 190 106 q 204 96 200 99 q 215 88 208 93 z "},"\"":{"ha":524,"x_min":129,"x_max":417,"o":"m 172 811 q 172 830 172 822 q 174 844 172 838 q 183 860 175 851 q 190 861 185 861 q 194 858 192 860 q 196 854 196 857 q 197 846 197 850 q 196 838 196 842 q 197 832 197 835 q 200 826 197 829 q 203 822 201 825 q 208 815 204 819 q 207 834 207 826 q 207 850 207 842 q 213 858 207 853 q 217 859 214 860 q 219 856 219 858 q 234 838 225 844 q 253 828 243 832 q 250 792 251 808 q 247 758 249 775 q 243 719 246 739 q 238 679 240 699 q 234 649 236 664 q 221 621 232 635 q 219 606 219 617 q 217 593 218 600 q 213 579 215 586 q 206 579 210 579 q 201 582 201 579 q 192 589 199 589 q 181 593 185 589 q 178 621 175 607 q 181 650 181 635 q 172 613 176 633 q 169 608 172 610 q 164 606 167 606 q 158 608 161 606 q 156 613 156 610 q 148 644 156 629 q 142 675 140 658 q 140 706 142 690 q 136 736 139 721 q 134 766 135 751 q 131 796 133 781 q 136 819 129 810 q 147 838 143 828 q 154 840 150 840 q 161 836 158 839 q 166 824 164 829 q 172 811 168 819 m 336 811 q 336 830 336 822 q 338 844 336 838 q 347 860 339 851 q 354 861 349 861 q 358 858 356 860 q 360 854 360 857 q 360 846 361 850 q 360 838 360 842 q 361 832 361 835 q 364 826 361 829 q 367 822 365 825 q 372 815 368 819 q 371 834 371 826 q 371 850 371 842 q 376 858 371 853 q 381 859 378 860 q 383 856 383 858 q 398 838 389 844 q 417 828 407 832 q 414 792 415 808 q 411 758 413 775 q 407 719 410 739 q 401 679 404 699 q 398 649 400 664 q 385 621 396 635 q 383 606 383 617 q 381 593 382 600 q 376 579 379 586 q 369 579 374 579 q 365 582 365 579 q 356 589 363 589 q 344 593 349 589 q 342 621 339 607 q 344 650 344 635 q 336 613 340 633 q 333 608 336 610 q 328 606 331 606 q 322 608 325 606 q 319 613 319 610 q 312 644 319 629 q 306 675 304 658 q 304 706 306 690 q 300 736 303 721 q 298 766 299 751 q 294 796 297 781 q 300 819 293 810 q 311 838 307 828 q 318 840 314 840 q 325 836 322 839 q 330 824 328 829 q 336 811 332 819 z "},"$":{"ha":736,"x_min":26,"x_max":717,"o":"m 88 218 q 156 216 121 215 q 228 219 190 217 q 185 225 206 225 q 144 226 165 225 q 127 228 136 228 q 111 233 118 229 q 106 236 108 233 q 104 240 104 239 q 111 253 104 246 q 126 255 118 254 q 144 256 135 256 q 215 256 179 260 q 286 249 251 253 l 307 249 q 310 274 311 263 q 308 300 308 286 q 308 322 308 311 q 307 343 308 333 q 301 393 307 369 l 301 439 q 283 447 293 444 q 201 467 243 458 q 114 479 158 476 q 106 481 108 479 q 96 489 104 482 q 102 499 96 497 q 111 506 108 500 q 108 511 111 511 q 78 544 92 526 q 50 581 64 561 q 36 639 32 606 q 38 651 39 646 q 33 661 36 656 q 28 686 26 675 q 36 708 29 697 l 43 719 q 111 803 75 764 q 192 869 147 842 q 226 889 211 879 q 257 908 242 899 q 299 922 276 917 l 301 938 q 309 956 306 954 q 332 954 313 958 l 332 988 q 337 997 332 993 q 344 999 342 1000 q 353 989 353 993 q 354 978 354 983 q 354 968 354 972 q 357 955 357 961 q 360 940 357 949 q 374 943 368 942 q 386 946 379 944 q 389 966 389 957 q 392 982 389 975 q 394 988 392 985 q 399 992 397 992 q 410 982 407 992 q 413 968 411 975 q 415 954 415 961 q 436 961 432 950 q 438 977 438 969 q 438 992 438 985 q 438 1005 438 999 q 440 1018 438 1011 q 449 1026 440 1024 q 455 1024 451 1028 q 458 1015 458 1021 q 463 985 461 1000 q 467 954 464 971 q 477 984 478 969 q 476 1014 476 999 q 480 1043 479 1029 q 481 1072 481 1057 q 496 1074 490 1085 q 508 1076 503 1067 q 520 1076 515 1079 q 525 1068 525 1072 q 526 1057 526 1063 q 525 1046 525 1051 q 520 1006 522 1026 q 515 963 518 985 q 533 954 524 956 q 551 953 542 953 q 581 949 567 953 q 608 938 596 946 q 622 934 615 935 q 636 932 629 933 q 660 924 647 928 q 688 915 674 921 q 714 896 703 913 q 714 879 717 883 q 711 873 714 875 q 706 868 708 871 q 691 885 696 875 q 671 896 686 894 q 665 888 668 893 q 657 876 661 883 q 669 869 664 874 q 681 861 675 864 q 690 858 686 860 q 700 853 694 857 q 701 847 701 851 q 701 840 701 843 q 699 836 701 838 q 694 833 696 835 l 676 833 q 669 801 674 817 q 668 768 664 786 q 685 751 683 757 q 688 725 688 746 q 675 719 682 718 q 661 721 668 719 q 588 735 625 732 q 514 738 551 738 l 503 738 q 496 721 496 729 q 496 701 496 713 l 488 561 q 489 558 488 560 q 490 553 490 556 q 503 546 497 549 q 518 539 510 543 q 577 509 549 524 q 635 475 606 494 q 650 463 642 468 q 663 446 658 457 q 667 432 667 439 q 657 418 667 425 l 678 393 q 701 361 690 378 q 704 341 704 350 q 696 325 704 332 q 690 313 690 319 q 689 300 689 307 q 684 258 688 279 q 669 219 681 238 q 647 185 658 200 q 618 158 635 169 q 610 152 614 156 q 603 146 607 149 q 603 139 600 140 q 608 135 606 138 q 608 113 621 122 q 590 101 599 106 q 568 94 581 97 q 526 89 547 93 q 482 81 506 85 q 481 69 482 75 q 481 54 481 63 q 483 -16 482 19 q 486 -87 483 -51 q 486 -103 486 -96 q 483 -119 486 -111 q 480 -124 483 -122 q 474 -125 476 -125 q 467 -119 467 -125 q 464 -114 464 -118 q 462 -33 463 -74 q 458 47 461 7 q 457 60 458 54 q 456 72 456 67 l 444 78 q 444 66 444 71 q 442 56 443 61 q 442 24 442 40 q 440 -7 442 8 q 439 -19 440 -14 q 438 -32 438 -25 q 428 -42 435 -42 q 419 -39 421 -42 q 415 -32 417 -36 q 412 -21 413 -26 q 411 -8 411 -15 q 410 5 410 -1 q 410 18 410 11 q 404 21 407 21 q 378 24 383 19 q 371 47 374 28 l 371 68 l 354 68 q 351 17 351 49 q 353 -37 350 -14 q 354 -53 354 -44 q 354 -68 354 -61 q 349 -74 354 -74 q 340 -71 343 -74 q 333 -54 338 -62 q 328 -10 331 -32 q 324 35 326 11 q 321 51 321 43 q 319 67 321 58 q 300 68 313 68 q 213 74 256 72 q 126 81 171 76 q 92 82 110 81 q 56 86 74 83 q 39 89 44 86 q 31 101 31 94 q 33 112 28 106 q 44 118 38 118 q 51 116 47 118 q 57 114 54 114 q 86 108 72 110 q 114 104 100 107 q 117 112 121 110 q 114 118 114 114 l 111 129 l 93 135 q 87 150 90 138 q 88 167 83 163 q 92 171 89 168 q 99 174 94 174 q 113 175 106 175 q 125 175 119 175 q 128 181 126 178 q 133 189 131 183 q 105 192 118 192 q 76 194 92 193 q 69 198 74 197 q 61 200 65 199 q 53 210 56 203 q 54 225 50 218 q 60 234 57 229 q 69 236 63 239 q 77 230 74 235 q 88 218 81 225 m 201 663 q 221 645 208 650 q 244 635 233 640 q 259 633 251 633 q 274 628 267 632 q 286 622 281 626 q 300 614 292 618 q 303 668 301 642 q 300 719 304 694 q 247 699 271 711 q 201 663 222 686 m 489 281 q 491 281 490 281 q 494 282 492 282 q 511 297 508 288 q 514 319 514 306 q 494 367 513 344 q 482 374 492 376 q 478 312 478 342 q 483 258 478 282 q 488 267 490 261 q 488 279 485 274 l 489 281 m 508 908 q 518 904 515 907 l 521 901 q 625 892 578 901 q 636 892 633 886 q 639 893 636 892 q 640 894 640 893 q 640 897 640 896 q 639 900 639 899 l 638 901 q 576 911 607 911 q 508 908 546 911 m 179 136 q 318 140 274 124 q 246 140 279 140 q 179 136 213 139 m 114 753 q 131 765 125 760 q 142 774 138 769 q 148 784 146 778 q 154 801 150 790 q 114 753 124 785 m 551 800 q 528 813 536 811 q 507 811 521 814 q 503 801 507 811 q 525 799 514 797 q 551 800 536 800 m 299 840 q 274 835 286 836 q 250 828 261 835 q 243 815 249 828 q 273 826 258 825 q 299 840 288 826 m 217 185 q 182 192 193 192 q 154 185 171 192 q 187 181 172 182 q 217 185 201 181 m 642 800 q 620 808 632 807 q 593 814 608 810 q 619 799 607 799 q 642 800 631 799 m 199 579 q 215 565 207 572 q 236 563 222 557 q 199 579 217 579 m 138 682 q 140 664 140 671 q 140 646 140 657 q 138 682 156 664 m 603 428 q 614 411 610 418 q 629 401 618 404 q 603 428 624 417 m 622 247 q 619 248 619 247 q 617 249 618 249 q 613 246 615 247 q 611 240 611 244 q 606 237 608 239 q 606 231 603 235 l 615 236 q 622 247 617 242 z "},"%":{"ha":985,"x_min":17,"x_max":971,"o":"m 643 965 q 653 971 649 969 q 658 974 657 972 q 674 974 669 976 q 681 964 678 971 q 678 960 681 961 q 676 957 676 960 q 682 947 681 954 q 689 957 686 953 q 696 965 692 961 q 701 976 699 971 q 711 983 704 981 q 739 986 725 994 q 754 965 754 982 q 750 953 751 958 q 746 942 749 949 q 744 931 744 936 q 742 922 744 926 q 751 922 749 919 q 756 926 754 924 q 777 948 767 938 q 803 965 788 958 q 814 974 810 967 q 822 986 818 981 q 840 993 831 996 q 846 976 853 990 q 840 965 843 969 q 832 954 836 960 q 785 883 808 918 q 742 815 763 849 q 701 747 719 781 q 660 682 683 714 q 672 673 667 676 q 676 664 676 669 q 675 653 676 658 q 672 643 674 647 q 610 531 640 586 q 549 421 579 476 q 492 302 518 363 q 446 179 467 242 q 436 154 444 165 q 431 150 435 151 q 422 153 426 149 q 417 157 419 154 q 413 161 415 160 q 414 167 413 164 q 415 172 415 169 q 431 225 424 197 q 431 242 436 231 q 424 229 428 235 q 418 219 421 224 q 388 133 403 176 q 369 47 374 90 q 365 40 365 44 q 363 31 364 36 q 354 25 361 25 q 331 35 344 25 q 322 14 326 24 q 315 -8 317 4 q 303 -33 313 -22 q 283 -56 293 -43 q 278 -58 283 -57 q 271 -57 272 -58 q 264 -53 265 -57 q 263 -49 263 -50 q 268 -22 264 -35 q 276 3 272 -10 q 247 31 256 17 q 243 45 244 38 q 239 61 242 53 q 231 50 239 61 q 223 47 228 47 q 214 49 218 46 q 208 54 210 50 q 204 61 206 58 q 206 72 204 67 q 208 81 208 76 q 222 117 214 99 q 235 154 229 135 q 229 163 232 158 q 219 174 226 167 q 233 207 226 189 q 249 240 240 225 q 307 353 278 297 q 365 465 336 410 q 385 508 376 488 q 404 550 394 529 q 467 678 436 614 q 529 807 499 742 q 543 837 536 822 q 557 867 550 851 q 577 910 568 888 q 601 951 586 932 q 622 983 615 967 q 638 1014 628 999 q 660 1028 650 1033 q 668 1017 669 1022 q 664 1006 667 1011 q 653 988 658 996 q 643 965 649 979 m 383 232 q 397 247 394 239 q 399 261 399 254 q 388 248 393 254 q 388 232 383 242 q 374 218 376 226 q 369 196 372 210 q 382 216 376 208 q 383 232 388 224 m 160 451 q 151 431 157 436 q 129 425 146 425 q 71 453 92 426 q 42 506 56 481 q 26 563 29 532 q 21 609 25 586 q 18 656 17 632 q 88 858 28 763 q 98 874 92 865 q 110 892 104 882 q 138 910 122 903 q 176 918 153 918 q 216 919 197 918 q 253 908 235 919 q 265 918 260 914 q 276 922 269 922 q 290 922 282 925 q 301 915 297 919 q 320 903 313 910 q 335 892 328 897 q 347 880 342 886 q 356 867 351 874 q 359 876 363 872 q 356 886 356 881 q 360 892 358 890 q 365 897 363 894 q 375 893 375 897 q 389 871 388 881 q 399 832 396 851 q 399 793 403 813 q 394 742 396 768 q 394 690 392 715 q 365 578 397 626 q 278 489 332 529 q 225 463 249 469 q 160 451 201 457 m 181 561 q 208 567 199 561 q 228 583 218 572 q 253 618 240 600 q 265 642 261 631 q 264 667 269 653 q 253 729 261 699 q 231 792 244 760 q 224 806 228 799 q 215 821 219 813 q 209 814 213 817 q 204 808 206 811 q 157 629 169 724 q 181 561 149 596 m 160 511 q 188 511 175 508 q 211 519 200 514 q 214 525 214 522 q 215 531 214 528 q 186 537 200 535 q 160 542 172 539 l 160 511 m 317 642 q 299 619 306 629 q 296 596 293 608 q 317 642 317 614 m 103 464 q 123 451 118 453 q 142 451 128 450 q 122 458 131 454 q 103 464 114 461 m 807 15 q 777 10 790 13 q 749 8 764 8 q 698 17 721 8 q 653 40 675 25 q 600 103 617 68 q 578 179 583 138 q 578 215 576 196 q 585 251 579 233 q 597 304 592 278 q 610 358 603 331 q 613 371 611 365 q 618 383 615 376 q 629 398 624 394 q 658 401 635 401 q 672 416 665 408 q 688 432 679 424 q 693 436 690 433 q 697 440 696 439 q 736 458 721 458 q 775 436 751 457 q 790 438 782 436 q 807 439 797 439 q 811 444 811 443 q 827 460 819 458 q 846 456 835 463 q 874 440 860 450 q 908 404 893 422 q 938 364 924 386 q 944 346 942 356 q 951 328 947 336 q 953 321 951 325 q 967 250 971 286 q 951 181 963 214 q 906 75 932 126 q 892 50 900 61 q 874 28 883 39 q 860 18 867 22 q 846 8 853 14 q 827 3 835 1 q 807 15 819 4 m 785 114 q 807 108 801 118 q 806 101 808 106 q 801 94 803 97 q 768 81 788 81 l 735 81 q 737 71 735 75 q 749 67 739 67 l 751 67 q 807 79 783 63 q 824 93 815 86 q 831 114 833 100 q 831 118 828 115 q 838 124 833 121 q 850 156 850 140 q 838 163 843 160 q 826 169 832 167 q 831 177 829 174 q 833 182 832 181 q 841 195 836 189 q 847 208 846 201 q 847 251 860 226 q 835 263 836 254 q 832 279 833 272 q 785 331 818 314 q 751 331 767 340 q 735 319 740 326 q 726 306 729 313 q 711 243 715 275 q 706 179 707 211 l 706 175 q 728 140 710 151 q 769 136 746 129 q 779 140 774 139 q 788 143 785 142 q 799 140 799 143 q 801 131 801 136 q 793 121 796 125 q 788 114 790 117 q 736 111 763 115 q 760 105 747 106 q 785 114 774 104 z "},"&":{"ha":811,"x_min":-32,"x_max":825,"o":"m 708 94 q 694 94 701 94 q 683 96 688 93 q 659 101 671 101 q 633 100 647 101 q 646 88 638 92 q 660 79 654 85 q 667 65 668 75 q 651 53 664 47 q 615 65 632 56 q 598 73 607 68 q 582 82 589 78 q 581 74 579 75 q 586 71 583 72 q 614 49 600 60 q 644 31 628 39 q 649 28 649 31 q 651 19 653 24 q 649 15 651 18 q 644 13 647 13 q 614 19 629 18 q 585 31 599 19 l 531 72 q 516 84 524 78 q 496 94 508 90 q 506 81 503 86 q 514 68 508 75 q 513 63 514 67 q 511 58 513 60 q 508 56 511 56 q 501 58 504 56 q 482 74 490 64 q 460 98 471 86 q 438 121 450 110 q 429 114 433 117 q 419 107 425 111 q 376 69 397 88 q 333 32 356 50 q 319 25 325 25 q 299 29 314 25 q 283 15 292 22 q 265 0 275 7 q 248 -15 257 -8 q 229 -29 239 -22 q 219 -31 228 -31 q 209 -34 213 -31 q 200 -42 206 -37 q 190 -55 194 -49 q 176 -67 185 -61 q 168 -67 172 -71 q 164 -64 165 -67 q 165 -60 163 -61 l 176 -37 q 190 -24 183 -31 q 204 -11 197 -17 q 199 1 200 -4 q 194 11 197 6 q 172 1 183 6 q 147 -1 161 -4 q 124 -26 135 -14 q 89 -29 113 -37 q 78 -11 86 -22 q 53 7 63 -6 q 35 31 43 19 q 24 27 28 29 q 17 28 19 25 q 4 44 4 29 q 6 53 4 49 q 8 63 7 57 q 10 106 17 82 q 10 145 8 125 q 19 185 13 165 q 25 201 21 189 q 10 191 14 197 q 1 178 6 185 q -8 166 -4 171 q -17 157 -12 161 q -21 154 -18 154 q -25 154 -24 154 q -29 163 -32 160 q -21 182 -26 176 q 4 216 -10 200 q 32 247 18 232 q 40 260 36 254 q 44 275 43 265 q 50 285 46 281 q 58 294 54 289 q 119 360 90 326 q 179 426 149 394 q 193 442 186 433 q 207 457 200 450 q 202 472 204 465 q 197 486 200 479 q 188 514 193 500 q 186 544 183 528 q 184 554 186 549 q 181 565 182 560 q 174 605 176 585 q 169 646 172 625 q 172 667 169 661 q 182 676 175 678 q 188 671 186 674 q 192 665 189 668 l 192 629 q 192 620 192 624 q 193 611 193 617 q 197 627 197 619 q 197 643 197 635 q 199 672 197 657 q 204 699 200 686 q 206 724 206 711 q 210 750 207 736 q 213 765 211 757 q 217 779 214 772 q 267 876 235 832 l 329 947 q 351 966 339 958 q 374 981 363 974 q 393 991 382 988 q 415 994 404 994 q 433 997 425 996 q 451 1000 442 997 q 471 1008 464 1000 q 486 1015 478 1014 q 501 1013 494 1015 q 528 1007 515 1006 q 556 1010 542 1008 q 590 1010 572 1014 q 601 1005 597 1010 q 603 997 604 1000 q 590 990 599 990 l 560 990 q 547 986 557 990 q 569 967 558 975 q 592 953 579 960 q 627 925 614 942 q 656 893 640 908 q 665 878 663 886 q 672 863 668 869 l 690 863 q 694 842 694 851 q 692 822 694 832 q 689 810 690 817 q 685 799 688 804 q 660 740 672 769 q 636 683 649 711 q 622 656 629 668 q 604 631 614 643 q 575 607 597 617 q 549 588 561 597 q 522 569 536 579 q 465 525 493 547 q 413 478 438 503 q 439 422 424 449 q 469 368 454 396 q 506 400 490 385 q 585 467 544 433 q 668 533 625 501 q 719 551 692 549 q 758 565 740 553 q 775 569 764 569 q 793 558 786 568 q 793 536 800 547 q 785 526 790 531 q 778 517 781 521 q 767 505 772 511 q 754 493 761 499 q 771 485 763 488 q 789 493 779 483 q 808 497 800 501 q 825 488 815 492 q 807 465 818 472 q 788 449 796 457 q 767 431 776 439 q 746 415 757 424 q 750 406 747 410 q 751 397 753 401 q 749 389 751 393 q 743 382 746 385 q 725 366 733 375 q 707 350 717 357 q 662 317 683 335 q 617 283 640 300 q 600 269 608 276 q 585 257 592 263 q 589 243 585 247 q 599 236 593 239 q 663 187 631 213 q 726 138 694 161 q 738 130 733 135 q 746 121 742 125 q 747 117 747 119 q 746 114 747 114 q 738 107 743 107 q 721 118 728 111 q 699 132 710 125 q 678 146 689 139 q 668 150 671 150 q 665 144 663 146 q 668 139 667 142 q 683 127 675 132 q 699 115 692 122 q 704 110 703 113 q 708 94 706 108 m 482 581 q 506 598 499 590 q 519 624 513 606 q 499 605 508 614 q 482 586 490 596 q 481 583 481 583 q 482 581 482 582 q 466 572 469 575 q 454 551 463 568 q 471 565 463 560 q 482 581 479 569 m 358 851 q 324 827 339 842 q 303 793 310 813 q 333 820 318 807 q 360 850 349 833 q 371 857 369 853 q 378 861 375 858 q 379 869 382 864 q 371 864 375 867 q 364 857 367 861 q 361 855 363 857 q 358 851 360 853 m 340 294 q 358 275 339 279 q 351 287 354 282 q 340 294 347 292 q 324 333 332 321 q 296 364 317 346 q 292 350 286 357 q 305 330 297 339 q 319 310 313 321 q 328 300 322 303 q 340 294 333 297 m 532 833 q 489 865 522 865 q 476 864 482 864 q 463 864 469 864 q 436 850 449 863 q 432 846 433 847 q 428 842 431 844 q 398 815 408 831 q 379 781 388 799 q 353 631 349 710 q 355 623 353 626 q 358 617 357 619 q 365 618 364 617 q 417 660 392 639 q 465 703 442 681 q 506 778 497 738 q 511 792 510 785 q 513 806 513 799 q 532 833 514 825 m 161 146 q 197 146 185 143 q 224 161 208 149 q 274 201 250 181 q 322 242 299 222 q 327 248 325 244 q 332 254 329 251 q 302 296 317 275 q 272 336 288 317 q 264 332 265 333 q 223 283 243 308 q 181 233 203 257 q 172 215 175 225 q 164 182 167 199 q 161 146 161 165 m 351 806 q 338 797 343 800 q 326 787 332 793 q 313 769 321 781 q 293 736 306 757 q 286 720 289 729 q 281 704 283 711 q 276 678 279 690 q 279 647 274 665 q 283 669 281 660 q 285 685 285 678 q 297 725 289 707 q 301 736 300 731 q 306 749 303 742 q 312 758 308 753 q 319 765 315 763 q 328 767 322 768 q 339 768 333 765 q 346 785 342 776 q 351 806 350 794 m 61 36 q 65 48 63 44 q 65 54 68 51 q 60 86 60 71 q 63 118 60 101 q 62 122 63 119 q 61 128 61 125 q 42 83 40 100 q 61 36 43 67 m 618 797 q 636 843 636 824 q 621 883 636 863 q 619 842 617 864 q 618 797 621 821 m 144 100 q 133 138 140 124 q 114 167 126 151 q 113 148 114 156 q 113 131 113 140 q 126 103 114 119 q 134 101 129 101 q 144 100 139 101 m 85 236 q 52 198 65 219 q 38 144 39 176 q 42 151 40 149 q 44 157 43 154 q 65 197 56 178 q 85 236 74 217 m 138 47 q 128 51 132 50 q 119 54 124 53 q 111 57 114 56 q 106 60 108 58 q 97 66 101 63 q 88 65 93 69 q 101 39 88 49 q 119 38 110 36 q 138 47 128 39 m 494 953 q 436 954 463 960 q 396 936 410 949 q 420 941 408 939 q 443 946 432 943 q 469 950 457 949 q 494 953 481 951 m 525 761 q 547 788 546 779 q 536 810 549 796 q 531 785 533 797 q 525 761 528 774 m 401 510 q 404 507 403 507 q 407 506 406 507 l 408 504 q 422 515 415 510 q 433 524 428 519 q 436 531 436 526 q 432 539 436 536 q 417 524 424 531 q 401 510 410 517 m 397 449 q 404 419 401 428 q 421 397 407 411 q 420 406 421 403 q 417 415 419 410 q 410 427 415 419 q 397 449 406 435 m 172 119 q 168 114 168 119 l 168 110 q 169 107 168 108 q 186 107 178 107 q 200 119 194 107 l 172 119 z "},"'":{"ha":325,"x_min":81,"x_max":204,"o":"m 124 811 q 124 830 124 822 q 125 844 124 838 q 135 860 126 851 q 142 861 136 861 q 145 858 143 860 q 147 854 147 857 q 148 846 149 850 q 147 838 147 842 q 149 832 149 835 q 151 826 149 829 q 154 822 153 825 q 160 815 156 819 q 158 834 158 826 q 158 850 158 842 q 164 858 158 853 q 168 859 165 860 q 171 856 171 858 q 185 838 176 844 q 204 828 194 832 q 201 792 203 808 q 199 758 200 775 q 194 719 197 739 q 189 679 192 699 q 185 649 188 664 q 172 621 183 635 q 171 606 171 617 q 168 593 169 600 q 164 579 167 586 q 157 579 161 579 q 153 582 153 579 q 143 589 150 589 q 132 593 136 589 q 129 621 126 607 q 132 650 132 635 q 124 613 128 633 q 121 608 124 610 q 115 606 118 606 q 110 608 113 606 q 107 613 107 610 q 99 644 107 629 q 93 675 92 658 q 92 706 93 690 q 88 736 90 721 q 85 766 86 751 q 82 796 85 781 q 88 819 81 810 q 99 838 94 828 q 106 840 101 840 q 113 836 110 839 q 117 824 115 829 q 124 811 119 819 z "},"(":{"ha":501,"x_min":19,"x_max":481,"o":"m 429 1038 q 444 1036 442 1038 q 443 1025 446 1035 l 442 1022 q 442 1017 442 1017 q 447 1004 447 1010 q 444 993 447 999 q 437 982 440 988 q 432 971 433 976 q 426 965 432 968 q 394 943 407 957 q 368 913 381 929 q 291 793 324 854 q 235 664 258 732 q 227 638 229 651 q 222 611 225 624 q 209 502 214 556 q 204 393 204 449 q 210 331 204 358 q 212 318 210 324 q 217 306 214 313 q 241 255 229 281 q 268 204 253 229 q 353 98 303 143 q 468 22 404 53 q 471 21 469 21 q 475 7 478 17 q 463 4 471 0 q 451 8 456 6 q 440 13 446 10 q 427 19 433 15 q 414 26 421 24 q 407 28 413 28 q 406 22 404 24 q 410 18 408 21 q 436 1 422 10 q 463 -18 450 -8 q 466 -20 464 -19 q 468 -24 468 -21 q 469 -31 469 -25 q 463 -36 467 -36 l 446 -36 q 442 -31 443 -33 q 440 -28 442 -29 q 403 -1 421 -14 q 367 26 386 11 q 358 28 364 28 l 358 26 q 446 -36 396 -15 q 456 -43 451 -39 q 464 -50 460 -47 q 458 -72 481 -62 q 456 -73 457 -72 q 453 -74 454 -74 q 454 -79 454 -75 q 449 -95 454 -90 q 438 -94 444 -100 q 406 -81 422 -83 q 374 -74 390 -78 q 400 -91 386 -85 q 429 -101 414 -97 q 453 -112 440 -106 q 457 -119 457 -117 q 449 -126 453 -126 q 440 -126 444 -126 q 432 -125 436 -125 q 432 -130 429 -129 q 436 -132 435 -131 q 440 -136 438 -135 q 443 -140 442 -137 q 443 -148 446 -143 q 436 -153 440 -153 q 424 -151 426 -153 q 369 -126 396 -140 q 319 -94 343 -112 q 247 -31 281 -65 q 181 39 213 3 q 90 178 122 104 q 36 336 57 253 q 26 390 29 363 q 22 446 22 418 q 22 496 19 471 q 28 546 25 521 q 49 670 35 610 q 85 790 64 731 q 148 931 110 865 q 239 1054 186 996 q 267 1081 253 1068 q 299 1104 282 1093 q 351 1128 324 1122 q 363 1129 357 1129 q 375 1129 369 1129 q 387 1124 382 1128 q 392 1113 392 1121 q 404 1076 389 1092 q 401 1065 407 1069 q 404 1054 396 1060 q 408 1053 407 1054 q 408 1054 408 1051 q 426 1066 418 1060 q 442 1078 435 1072 q 450 1067 449 1071 q 449 1060 451 1064 q 435 1046 439 1053 q 431 1041 432 1043 q 429 1036 431 1039 q 415 1031 418 1033 q 408 1017 413 1028 q 419 1028 414 1024 q 429 1038 425 1033 m 325 86 q 341 73 336 75 q 361 67 346 71 q 342 79 350 74 q 328 90 335 85 q 311 111 319 99 q 276 128 300 128 q 300 105 289 117 q 325 86 311 93 m 200 743 q 224 779 213 761 q 249 817 236 797 q 254 833 254 822 q 256 847 256 836 q 221 797 235 822 q 200 743 207 771 m 211 676 q 190 626 199 651 q 175 574 182 600 q 176 535 169 560 q 194 608 183 574 q 211 676 206 642 m 165 382 q 169 342 164 361 q 178 303 174 322 q 187 272 183 283 q 193 252 190 260 q 199 240 196 244 q 208 229 203 235 q 186 306 197 268 q 165 382 175 344 m 278 4 q 244 42 260 25 q 214 74 229 58 q 208 74 214 74 q 213 58 210 63 q 229 39 215 54 q 249 19 240 26 q 278 4 258 13 m 124 322 q 132 289 126 303 q 154 253 138 275 q 160 264 163 254 q 129 319 144 288 q 127 321 129 321 q 124 322 125 321 m 300 1074 q 324 1077 314 1071 q 346 1085 335 1083 q 358 1092 351 1088 q 368 1106 364 1097 q 331 1097 347 1104 q 300 1074 315 1089 m 357 -22 q 333 1 347 -8 q 306 18 319 10 q 301 23 304 21 q 294 21 299 25 q 328 -10 315 0 q 357 -22 342 -19 m 108 442 q 113 426 111 432 q 118 410 115 419 q 120 428 121 421 q 108 442 119 435 z "},")":{"ha":501,"x_min":15,"x_max":476,"o":"m 67 -61 q 52 -60 54 -61 q 53 -49 50 -58 l 54 -46 q 54 -40 54 -40 q 48 -28 47 -33 q 51 -17 49 -22 q 58 -6 54 -11 q 64 6 63 0 q 69 11 64 8 q 102 33 89 19 q 128 64 115 47 q 205 183 172 122 q 261 313 238 244 q 269 339 267 325 q 274 365 271 353 q 287 474 282 421 q 292 583 292 528 q 286 646 292 618 q 284 658 286 653 q 279 671 282 664 q 255 722 267 696 q 228 772 243 747 q 142 878 193 833 q 28 954 92 924 q 25 956 26 956 q 21 969 18 960 q 33 972 25 976 q 45 969 40 971 q 56 964 50 967 q 69 957 63 961 q 82 950 75 953 q 89 949 83 949 q 90 954 92 953 q 86 958 88 956 q 60 976 74 967 q 33 994 46 985 q 30 997 32 996 q 28 1000 28 997 q 26 1007 26 1001 q 33 1013 29 1013 l 50 1013 q 53 1008 53 1010 q 56 1004 54 1006 q 92 978 75 990 q 129 950 110 965 q 138 949 132 949 l 138 950 q 50 1013 100 992 q 40 1019 44 1015 q 32 1026 36 1024 q 38 1049 15 1039 q 40 1049 39 1049 q 43 1050 42 1050 q 42 1056 42 1051 q 47 1072 42 1067 q 58 1071 51 1076 q 90 1057 74 1060 q 122 1050 106 1054 q 96 1067 110 1061 q 67 1078 82 1074 q 43 1089 56 1082 q 39 1096 39 1093 q 47 1103 43 1103 q 56 1102 51 1103 q 64 1101 60 1101 q 64 1106 67 1106 q 60 1108 61 1107 q 56 1113 58 1111 q 53 1117 54 1114 q 53 1124 50 1119 q 60 1129 56 1129 q 72 1128 69 1129 q 126 1103 100 1117 q 176 1071 153 1089 q 249 1008 215 1042 q 315 938 283 974 q 406 798 374 872 q 460 640 439 724 q 470 586 467 614 q 474 531 474 558 q 474 481 476 506 q 468 431 471 456 q 447 306 461 367 q 411 186 432 246 q 348 46 386 111 q 257 -78 310 -19 q 228 -104 243 -92 q 197 -128 214 -117 q 144 -151 172 -146 q 133 -153 139 -153 q 121 -153 126 -153 q 109 -148 114 -151 q 104 -136 104 -144 q 92 -100 107 -115 q 94 -88 89 -93 q 92 -78 100 -83 q 88 -76 89 -78 q 88 -78 88 -75 q 69 -90 78 -83 q 54 -101 61 -96 q 46 -91 47 -94 q 47 -83 44 -87 q 61 -69 57 -76 q 65 -65 64 -67 q 67 -60 65 -62 q 81 -54 78 -57 q 88 -40 83 -51 q 76 -52 82 -47 q 67 -61 71 -57 m 171 890 q 155 903 160 901 q 135 910 150 906 q 153 897 146 903 q 168 886 161 892 q 185 865 176 878 q 219 849 194 849 q 196 872 207 860 q 171 890 185 883 m 296 233 q 272 197 283 215 q 247 160 260 179 q 242 143 242 154 q 240 129 240 140 q 275 180 261 154 q 296 233 289 206 m 285 300 q 306 351 297 325 q 321 403 314 376 q 319 442 326 417 q 301 369 313 403 q 285 300 290 335 m 331 594 q 327 635 332 615 q 318 674 322 654 q 309 705 313 693 q 303 724 306 717 q 297 735 300 731 q 288 747 293 740 q 310 670 299 708 q 331 594 321 632 m 218 972 q 251 935 236 951 q 282 903 267 918 q 288 903 282 903 q 283 917 285 913 q 267 938 281 922 q 247 957 256 950 q 218 972 238 964 m 372 654 q 364 688 369 674 q 342 724 358 701 q 336 713 333 722 q 367 657 351 689 q 369 656 367 656 q 372 654 371 656 m 196 -97 q 172 -101 182 -94 q 150 -108 161 -107 q 138 -116 144 -111 q 128 -129 132 -121 q 165 -120 149 -128 q 196 -97 181 -112 m 139 999 q 163 976 149 985 q 190 958 176 967 q 194 953 192 956 q 201 956 197 951 q 167 986 181 976 q 139 999 154 996 m 388 535 q 383 551 385 544 q 378 567 381 557 q 376 549 375 556 q 388 535 376 542 z "},"*":{"ha":426,"x_min":54,"x_max":376,"o":"m 283 951 q 317 949 300 950 q 351 946 335 949 q 368 944 363 946 q 376 932 371 943 q 351 928 363 925 q 328 926 340 931 q 335 919 331 921 q 346 915 340 918 q 365 886 363 907 q 357 865 365 871 q 335 867 344 857 q 314 878 325 878 q 290 876 303 878 q 290 868 290 872 q 290 861 289 864 q 301 805 296 833 q 313 749 306 776 q 321 720 315 733 q 331 692 326 707 q 335 685 335 689 q 331 678 335 678 q 322 675 326 671 q 306 690 314 682 q 292 706 299 697 q 290 706 290 706 q 286 706 289 707 q 244 719 254 685 q 235 753 239 736 q 228 788 232 771 q 224 819 225 803 q 221 850 224 835 q 219 856 221 853 q 218 860 218 858 q 210 856 210 860 q 207 849 210 851 q 186 801 196 825 q 165 753 176 776 q 153 732 160 742 q 139 711 146 722 q 129 704 133 704 q 115 711 125 704 q 109 706 113 708 q 103 701 106 704 q 93 700 96 697 q 86 707 90 703 q 107 736 96 722 q 126 771 118 750 l 104 754 q 94 749 99 751 q 85 746 90 747 q 60 757 68 742 q 54 773 54 764 q 58 786 54 782 q 75 793 68 793 q 83 797 79 796 q 89 801 86 797 q 149 867 125 832 q 149 870 150 869 q 150 872 149 871 q 126 872 138 872 q 103 871 115 871 q 82 872 88 871 q 69 887 71 876 q 76 904 68 897 q 85 910 81 907 q 94 915 89 913 q 80 917 88 918 q 65 914 72 915 q 58 917 58 914 q 60 928 56 924 q 74 933 64 933 q 172 946 121 942 l 199 946 q 211 983 211 963 q 224 1022 208 1007 q 228 1031 226 1025 q 233 1042 231 1036 q 256 1050 240 1054 q 267 1044 261 1047 q 279 1039 272 1042 q 279 997 283 1018 q 283 951 275 975 z "},"+":{"ha":647,"x_min":24,"x_max":622,"o":"m 374 700 q 379 709 379 704 q 381 719 379 714 q 397 726 385 732 q 401 706 403 715 q 400 685 399 696 q 406 674 403 679 q 415 664 410 669 q 418 671 418 669 q 420 684 419 678 q 422 697 421 690 q 424 715 424 706 q 425 732 425 724 q 446 725 442 740 l 446 717 q 440 647 443 681 q 432 576 436 613 q 430 555 431 565 q 429 532 429 544 q 440 531 435 532 q 450 531 444 531 l 531 531 q 547 529 542 531 q 556 521 554 528 q 553 508 557 514 q 539 501 546 504 q 524 497 532 497 q 501 496 513 497 q 479 496 490 494 q 453 492 465 496 q 428 483 440 489 l 457 483 q 511 482 485 482 q 565 481 538 482 q 582 477 575 481 q 588 463 589 474 q 601 458 594 460 q 614 454 608 457 q 621 444 621 451 q 613 433 621 435 q 604 431 610 431 q 594 429 599 431 q 574 428 583 429 q 557 424 565 428 q 571 422 564 422 q 585 422 578 422 l 600 422 q 610 411 613 422 q 601 401 610 404 q 592 401 597 400 q 583 401 588 401 l 536 401 q 514 396 526 401 q 530 394 522 394 q 544 393 538 394 q 574 392 560 393 q 604 392 589 392 q 611 390 607 390 q 618 388 615 390 q 622 379 622 385 q 619 369 622 372 q 589 353 603 369 q 581 349 586 350 q 569 349 576 349 l 519 349 q 465 352 492 351 q 411 356 439 353 q 407 336 407 343 q 401 284 404 310 q 396 232 399 258 q 394 213 394 222 q 394 193 394 203 q 394 189 393 190 q 393 185 394 188 q 381 175 390 174 q 371 185 372 178 q 370 200 369 192 q 372 218 371 208 q 374 233 372 225 q 376 253 375 242 q 366 231 367 242 q 364 211 365 221 q 362 187 363 199 q 347 167 361 175 q 344 162 344 165 q 344 156 344 158 q 340 110 342 132 q 343 67 339 89 q 338 54 346 57 q 329 54 333 51 q 322 61 325 57 q 322 74 322 68 q 321 88 321 81 q 322 146 322 117 q 324 204 322 175 q 323 209 324 207 q 322 215 322 211 q 312 205 315 210 q 303 197 308 200 q 282 186 294 190 q 272 194 274 188 q 269 207 269 200 q 268 227 268 217 q 267 249 268 238 q 265 290 265 268 q 256 331 264 311 q 253 347 253 339 q 253 361 254 354 q 240 369 246 368 q 226 369 233 369 q 156 375 190 372 q 88 381 121 378 q 74 381 81 382 q 60 382 67 381 q 48 382 53 382 q 36 383 43 382 q 31 388 33 385 q 26 393 28 390 q 32 403 24 400 q 60 411 44 413 q 75 411 67 411 q 92 413 83 411 q 96 426 93 418 q 69 428 82 428 q 44 431 56 429 q 49 450 35 444 q 69 454 57 451 q 67 462 68 458 q 65 469 67 465 q 51 471 58 471 q 36 472 43 471 q 26 486 25 475 q 29 490 28 489 q 31 493 31 490 q 32 504 32 499 q 35 513 32 510 q 45 519 38 519 q 58 518 53 518 l 151 518 q 166 519 158 518 q 179 525 174 519 q 190 528 183 528 q 201 529 196 529 l 260 529 q 261 541 260 536 q 263 551 263 546 q 261 604 261 578 q 260 657 261 631 q 260 669 260 664 q 261 681 260 674 q 264 686 261 683 q 269 690 267 689 q 281 682 275 690 q 290 668 286 674 q 300 681 297 672 q 314 688 303 689 q 328 690 321 686 q 346 696 336 693 q 349 702 347 699 q 351 708 350 706 q 365 717 357 721 q 375 700 378 710 q 364 656 364 678 q 361 613 364 633 q 367 622 367 615 q 372 653 369 638 q 375 683 375 668 q 374 700 376 689 m 378 283 q 378 301 378 292 q 381 318 379 310 q 385 334 381 326 q 383 351 389 342 q 377 317 374 333 q 378 283 381 300 m 307 356 l 307 303 l 308 303 l 308 356 l 307 356 z "},",":{"ha":217,"x_min":47,"x_max":169,"o":"m 135 -8 q 122 -31 125 -19 q 115 -56 118 -43 q 106 -90 111 -72 q 94 -124 101 -107 q 91 -131 93 -128 q 86 -137 89 -135 q 78 -140 83 -140 q 74 -136 76 -137 q 72 -132 72 -135 q 74 -126 72 -129 q 76 -119 75 -122 q 83 -97 79 -108 q 92 -74 88 -86 q 78 -72 85 -69 q 69 -67 72 -74 q 60 -60 67 -62 q 49 -53 54 -57 q 72 29 68 -14 q 65 28 68 29 q 60 26 63 26 q 50 33 53 29 q 47 44 47 36 q 47 81 47 63 q 49 118 47 99 q 76 129 50 143 q 87 144 81 138 q 106 153 93 150 q 111 147 108 150 q 118 140 114 144 q 128 153 122 146 q 144 153 133 160 q 146 153 144 151 q 156 159 150 156 q 165 157 161 163 q 167 136 169 150 q 160 84 164 110 q 154 32 157 58 q 151 15 151 24 q 151 -1 151 7 q 148 -8 150 -7 q 135 -8 146 -8 z "},"-":{"ha":747,"x_min":50,"x_max":733,"o":"m 550 464 q 566 456 558 457 q 581 454 574 454 q 606 455 593 454 q 632 454 618 456 q 652 452 643 454 q 660 435 661 450 q 678 433 669 433 q 693 432 686 432 q 699 414 699 432 q 674 410 688 408 q 646 410 661 413 q 657 396 650 399 q 672 394 664 394 q 689 393 681 394 q 706 390 697 390 q 724 386 715 389 q 731 371 733 385 q 715 365 725 364 q 667 374 692 371 q 617 375 643 376 q 623 367 619 369 q 628 361 626 365 q 628 355 629 358 q 626 346 626 351 q 648 342 638 343 q 668 339 658 342 q 678 328 678 336 q 668 318 675 322 q 663 317 667 317 q 549 325 606 324 q 436 328 493 326 q 349 333 393 331 q 263 339 306 336 q 223 340 243 340 q 183 342 203 340 q 104 346 143 342 l 103 346 q 96 349 100 347 q 92 356 92 351 q 92 363 89 358 q 100 368 94 367 q 122 371 111 369 q 143 375 132 372 q 156 376 147 376 q 142 388 151 386 q 133 401 133 390 q 137 418 132 413 q 150 428 142 424 q 113 429 131 429 q 76 431 96 429 q 57 433 65 431 q 50 442 50 436 q 54 451 50 449 q 62 456 58 454 q 71 458 65 457 q 78 460 74 460 q 89 461 83 460 q 128 465 108 463 q 163 483 147 468 q 172 487 165 486 q 185 488 178 488 q 282 491 233 490 q 379 494 331 492 q 487 501 433 497 q 593 507 540 504 q 606 509 600 507 q 618 513 613 511 q 640 515 632 515 q 647 508 644 514 q 646 499 650 503 q 635 485 639 492 q 642 464 632 479 l 550 464 m 483 356 q 470 356 476 356 q 457 357 464 357 l 431 357 q 418 356 424 357 q 407 356 413 356 q 445 352 426 353 q 483 356 464 351 m 601 347 q 572 351 586 350 q 543 347 558 353 l 601 347 m 272 358 l 315 358 l 315 361 l 272 361 l 272 358 m 415 456 l 388 456 l 388 454 l 415 454 l 415 456 m 400 413 l 417 413 l 417 414 l 400 414 l 400 413 z "},".":{"ha":249,"x_min":60,"x_max":193,"o":"m 111 172 q 115 178 114 175 q 118 182 115 181 q 133 176 131 190 l 133 149 q 141 165 140 157 q 144 181 142 174 q 147 185 144 183 q 151 188 150 188 q 161 178 161 188 q 162 176 163 176 q 163 172 161 175 l 163 167 q 178 156 171 160 q 193 144 186 151 q 192 126 193 135 q 190 108 190 117 q 188 94 189 101 q 188 79 188 86 q 186 61 185 71 q 185 43 188 51 q 177 29 182 36 q 168 14 172 22 l 143 14 l 142 13 q 140 11 140 13 q 138 2 139 7 q 129 -3 136 -3 q 122 2 122 -3 q 121 13 121 7 q 119 18 121 15 q 117 25 118 21 q 99 10 107 17 q 83 -3 90 4 q 67 14 71 1 q 63 31 65 22 q 61 49 61 39 q 60 91 61 69 q 61 133 60 113 q 64 154 61 144 q 69 175 67 164 q 89 183 74 189 q 100 178 96 181 q 111 172 104 175 z "},";":{"ha":235,"x_min":47,"x_max":193,"o":"m 135 -8 q 122 -31 125 -19 q 115 -56 118 -43 q 106 -90 111 -72 q 94 -124 101 -107 q 91 -131 93 -128 q 86 -137 89 -135 q 78 -140 83 -140 q 74 -136 76 -137 q 72 -132 72 -135 q 74 -126 72 -129 q 76 -119 75 -122 q 83 -97 79 -108 q 92 -74 88 -86 q 78 -72 85 -69 q 69 -67 72 -74 q 60 -60 67 -62 q 49 -53 54 -57 q 72 29 68 -14 q 65 28 68 29 q 60 26 63 26 q 50 33 53 29 q 47 44 47 36 q 47 81 47 63 q 49 118 47 99 q 76 129 50 143 q 87 144 81 138 q 106 153 93 150 q 111 147 108 150 q 118 140 114 144 q 128 153 122 146 q 144 153 133 160 q 146 153 144 151 q 156 159 150 156 q 165 157 161 163 q 167 136 169 150 q 160 84 164 110 q 154 32 157 58 q 151 15 151 24 q 151 -1 151 7 q 148 -8 150 -7 q 135 -8 146 -8 m 111 508 q 115 514 114 511 q 118 518 115 517 q 133 513 131 526 l 133 485 q 141 501 140 493 q 144 517 142 510 q 147 522 144 519 q 151 524 150 524 q 161 514 161 524 q 162 512 163 513 q 163 508 161 511 l 163 503 q 178 492 171 496 q 193 481 186 488 q 192 462 193 471 q 190 444 190 453 q 188 430 189 438 q 188 415 188 422 q 186 397 185 407 q 185 379 188 388 q 177 365 182 372 q 168 350 172 358 l 143 350 l 142 349 q 140 347 140 349 q 138 338 139 343 q 129 333 136 333 q 122 338 122 333 q 121 349 121 343 q 119 354 121 351 q 117 361 118 357 q 99 347 107 353 q 83 333 90 340 q 67 350 71 338 q 63 367 65 358 q 61 385 61 375 q 60 427 61 406 q 61 469 60 449 q 64 490 61 481 q 69 511 67 500 q 89 519 74 525 q 100 514 96 517 q 111 508 104 511 z "},"=":{"ha":638,"x_min":6,"x_max":622,"o":"m 74 339 q 80 356 78 349 q 85 372 82 364 q 103 376 99 375 q 123 384 118 379 q 126 406 128 389 l 126 417 q 136 420 132 418 q 144 422 140 422 q 344 430 244 432 q 546 429 444 428 q 553 430 549 429 q 563 428 558 431 q 568 425 565 428 l 571 422 q 564 410 568 413 q 556 408 561 408 q 547 408 551 408 q 528 408 538 407 q 511 407 519 408 q 496 401 503 407 q 507 401 503 401 q 517 399 511 400 q 538 399 528 399 q 560 397 549 399 q 573 394 567 397 q 578 381 579 392 q 582 374 578 378 q 594 368 589 371 q 600 356 600 365 q 604 351 600 353 q 613 349 608 350 q 619 343 615 346 q 619 335 622 340 q 607 326 614 326 q 592 327 600 326 q 578 328 585 328 q 567 328 572 328 q 557 326 561 329 q 528 322 542 321 q 501 322 515 322 l 375 322 q 365 322 369 322 q 356 317 360 321 q 387 316 371 317 q 418 314 403 315 q 499 308 458 311 q 579 303 539 306 q 589 301 585 303 q 600 299 593 300 q 603 292 601 296 q 604 286 606 289 q 594 279 604 279 q 574 282 588 279 q 537 284 554 283 q 500 286 519 285 q 335 294 418 288 q 222 302 278 299 q 107 306 165 306 q 90 305 99 306 q 74 304 82 304 q 67 303 71 304 q 61 306 64 303 q 42 315 53 315 q 21 317 32 315 q 14 321 15 317 q 7 329 6 326 q 14 339 7 335 q 29 341 21 340 q 46 342 38 342 q 60 341 53 342 q 74 339 67 340 m 526 372 q 543 369 535 369 q 560 374 551 369 q 542 376 550 375 q 526 372 533 378 m 104 540 q 99 544 101 543 q 93 549 96 546 q 63 551 81 563 q 56 550 60 550 q 44 563 44 558 q 44 569 43 565 q 49 574 46 572 q 72 585 60 581 q 96 597 83 590 q 97 614 97 606 q 99 629 97 622 q 113 636 106 636 q 126 636 119 636 q 231 638 179 638 q 336 639 283 638 q 420 642 378 640 q 504 646 463 643 l 513 646 q 521 645 517 646 q 526 639 525 644 q 524 628 528 631 q 515 625 519 626 l 511 625 q 513 610 508 617 q 521 599 518 604 q 530 585 525 592 q 539 572 535 579 q 557 572 547 572 q 576 571 567 572 q 588 551 592 567 q 571 548 579 546 q 554 549 563 550 q 539 548 547 549 q 524 540 531 547 q 514 538 521 538 q 501 538 507 538 l 364 538 q 340 535 351 536 q 315 531 328 535 q 330 530 322 531 q 344 529 338 529 q 437 528 392 529 q 529 525 482 526 q 546 526 538 525 q 561 524 554 526 q 573 519 568 522 q 583 514 578 517 q 585 506 586 511 q 581 499 585 500 q 565 497 575 497 q 503 498 533 497 q 440 500 472 499 q 410 501 425 501 q 381 503 394 501 q 271 507 325 506 q 163 507 217 508 q 146 506 154 507 q 129 504 138 506 q 113 502 121 503 q 97 510 104 501 q 89 512 94 513 q 78 511 83 511 q 67 510 72 511 q 58 511 61 508 q 49 522 51 514 q 51 527 49 525 q 57 531 54 529 q 71 533 64 532 q 85 533 78 533 q 94 534 89 535 q 101 533 99 533 q 103 538 103 536 q 104 540 103 539 z "},"¢":{"ha":701,"x_min":22,"x_max":700,"o":"m 376 763 q 396 831 388 796 q 428 900 404 867 q 443 904 435 903 q 453 917 451 906 q 463 924 453 924 q 476 914 476 924 l 476 896 q 492 904 488 903 q 514 906 497 906 q 528 907 522 906 q 546 892 550 913 q 542 877 544 885 q 539 860 540 869 q 559 852 550 857 q 561 838 568 847 q 570 818 572 826 q 564 801 568 810 q 558 776 561 789 q 556 751 554 764 q 569 742 560 744 q 586 738 578 740 q 614 726 601 731 q 640 715 626 721 q 663 700 653 708 q 676 678 674 692 q 681 667 676 672 q 693 656 686 663 q 679 639 700 644 q 654 654 667 646 q 625 672 642 663 q 627 653 622 661 q 638 639 632 646 q 649 628 644 633 q 661 617 654 624 q 657 604 664 606 q 643 604 650 601 q 628 614 636 606 q 623 613 625 614 q 617 611 621 611 q 638 590 629 600 q 649 567 647 576 q 649 562 651 564 q 646 558 647 560 q 637 556 642 556 q 631 558 632 556 q 623 565 626 561 q 615 571 619 568 q 582 596 600 586 q 540 614 564 606 q 538 608 539 611 q 536 603 536 606 q 521 424 526 514 q 522 244 515 335 q 565 249 544 246 q 606 258 586 251 q 613 263 608 261 q 622 267 618 264 q 635 264 629 268 q 638 253 640 260 q 635 250 638 251 q 632 246 632 249 q 643 245 639 242 q 653 249 647 249 q 660 249 656 249 q 668 246 665 249 q 671 239 671 243 q 668 232 671 235 q 647 221 660 226 q 629 213 639 217 q 613 201 619 210 q 619 199 615 200 q 625 196 622 199 q 631 194 628 194 q 636 190 633 193 q 628 174 632 182 q 621 158 624 165 q 600 144 611 149 q 568 133 585 138 q 536 122 551 129 q 532 104 531 113 q 536 88 533 96 q 540 64 540 72 q 538 53 543 56 q 515 50 533 50 l 515 26 q 517 21 515 24 q 519 15 519 18 q 507 4 519 4 q 499 6 501 4 q 493 10 496 8 q 488 23 490 17 q 482 36 485 29 q 471 32 471 31 q 472 24 471 28 q 474 17 474 19 q 468 4 474 7 q 462 -4 463 0 q 458 -12 461 -8 q 455 -17 458 -14 q 447 -19 451 -19 q 442 -17 446 -19 q 436 -14 438 -15 q 427 1 432 -7 q 421 15 422 8 q 407 63 413 39 q 392 110 401 86 q 365 119 381 117 q 338 128 350 122 q 324 128 332 133 q 293 128 307 124 q 268 139 279 132 q 200 182 229 160 q 186 190 193 186 q 168 196 179 194 q 155 201 161 196 q 144 210 149 206 q 128 226 136 217 q 113 243 119 235 q 84 288 97 265 q 61 335 71 311 q 57 349 58 342 q 51 364 56 356 l 36 364 q 25 375 25 368 q 24 382 22 378 q 25 390 25 386 q 65 538 35 465 q 91 592 76 565 q 128 644 106 619 q 190 700 156 676 q 272 739 224 724 q 295 749 283 743 q 322 756 307 754 q 349 758 335 757 q 376 763 363 760 m 365 269 q 356 376 361 322 q 346 482 351 429 q 345 511 346 497 q 360 539 344 525 l 360 542 q 360 543 360 543 q 361 544 361 543 q 363 583 361 564 q 361 625 364 603 q 352 621 356 622 q 344 617 349 619 q 316 595 329 607 q 292 571 303 583 q 258 517 272 544 q 238 460 244 489 q 238 432 235 447 q 269 353 246 389 q 324 281 293 317 q 365 261 339 265 l 365 269 m 118 342 q 113 391 115 369 q 113 432 110 413 q 117 477 114 456 q 128 522 121 499 q 114 510 114 511 q 102 465 111 486 q 97 419 93 443 q 103 383 99 401 q 118 342 107 365 m 319 204 q 267 249 293 225 q 254 244 260 246 q 242 240 249 243 q 271 216 254 224 q 319 204 288 208 m 482 253 q 489 243 482 250 q 490 294 492 278 q 482 329 489 310 l 482 253 m 206 458 q 194 403 193 424 q 206 364 194 383 l 206 458 m 529 207 q 590 229 563 213 q 561 226 575 228 q 533 222 547 225 q 529 207 518 219 m 293 688 q 276 678 286 685 q 263 675 269 674 q 253 669 256 676 q 261 665 257 667 q 268 660 265 663 q 293 688 292 671 m 367 693 q 353 687 356 689 q 344 675 351 685 q 364 675 361 672 q 367 693 367 678 m 206 211 q 215 199 211 203 q 223 194 219 196 q 231 190 226 192 q 242 188 235 189 q 206 211 232 204 z "},"€":{"ha":796,"x_min":0,"x_max":792,"o":"m 631 924 q 643 915 635 919 q 665 910 654 913 q 688 903 676 908 q 707 894 699 900 q 724 883 715 889 q 729 876 726 881 q 732 868 732 871 q 727 860 732 861 q 715 861 722 860 q 703 859 706 864 q 697 850 701 854 q 717 835 708 843 q 736 821 726 828 q 751 801 744 811 q 756 779 758 792 q 758 767 756 772 q 763 756 760 763 q 758 747 763 751 q 749 747 751 744 q 741 751 744 749 q 735 757 738 754 q 685 786 710 776 q 628 800 660 796 q 613 801 621 801 q 599 794 606 800 q 592 793 596 793 q 583 793 588 793 q 531 788 556 796 q 481 774 507 781 q 440 751 457 767 q 404 721 422 736 q 388 703 396 711 q 374 685 381 694 q 356 663 364 674 q 349 638 349 651 q 353 635 350 635 q 357 635 356 635 q 399 636 379 635 q 439 638 419 638 q 522 640 481 639 q 606 642 563 642 q 626 639 617 642 q 643 629 636 636 q 646 619 646 625 q 638 615 646 615 l 606 615 q 598 606 601 611 q 590 599 594 601 q 581 593 588 594 q 567 590 574 592 q 572 578 572 583 q 568 567 571 572 q 562 557 565 563 q 560 546 558 551 l 590 546 q 606 544 601 546 q 610 539 608 542 q 613 532 613 536 q 610 526 613 529 q 606 521 608 524 q 590 520 599 521 q 575 519 582 519 l 353 519 q 337 518 346 518 q 317 518 328 518 q 312 478 313 496 q 321 442 311 461 l 344 442 q 445 442 394 442 q 549 443 496 443 l 564 443 q 584 436 581 442 q 581 415 588 431 q 578 410 581 411 l 578 408 q 577 406 578 407 q 576 404 576 406 q 558 403 567 403 q 540 401 549 403 q 539 382 539 394 q 554 360 532 360 l 586 360 q 599 359 593 360 q 613 358 606 358 q 627 351 622 356 q 629 343 632 346 q 623 335 628 336 q 611 335 618 335 q 608 333 610 335 l 606 331 q 606 326 606 329 q 607 322 607 324 q 606 311 610 315 q 596 307 603 307 l 583 307 q 468 316 525 311 q 353 324 411 321 q 351 304 340 315 q 364 288 357 296 q 381 272 371 279 q 448 230 413 249 q 525 199 483 211 q 569 188 544 190 q 617 188 593 185 q 672 192 644 189 q 726 199 699 196 l 736 199 q 744 190 744 196 q 744 176 744 183 q 725 164 740 164 q 682 159 703 161 q 642 156 661 157 q 627 153 633 154 q 617 144 621 151 q 672 135 646 138 q 726 149 699 132 q 735 143 731 146 q 744 136 739 140 q 758 142 751 140 q 771 147 764 144 q 778 146 775 147 q 785 143 781 144 q 783 128 792 136 q 771 119 776 124 q 758 110 765 114 q 762 94 761 101 q 750 79 763 86 q 713 67 732 72 q 671 56 694 61 q 689 51 682 53 q 701 47 696 50 q 711 39 710 44 q 707 29 713 33 q 694 19 704 19 q 678 15 688 18 q 660 13 668 13 q 588 11 624 13 q 518 13 553 10 q 429 26 474 17 q 344 53 385 35 q 317 66 331 60 q 293 79 304 72 q 276 89 283 83 q 261 101 269 94 q 233 130 247 117 q 204 161 219 143 q 190 185 194 172 q 183 208 186 197 q 183 238 181 224 q 200 265 185 253 q 183 299 192 282 q 168 335 175 315 l 136 335 l 100 335 q 93 337 97 335 q 88 343 89 339 q 88 351 85 349 q 96 356 90 353 q 106 363 96 356 q 92 367 99 368 q 79 365 86 365 q 66 367 72 368 q 53 369 60 367 l 24 369 q 20 388 24 379 q 13 407 17 396 q 73 425 43 422 q 135 428 103 428 q 132 456 139 443 q 131 469 132 463 q 129 483 129 476 q 126 497 126 490 q 125 511 126 503 q 93 507 106 507 q 68 509 78 506 q 51 526 58 513 q 54 551 43 543 q 46 562 51 557 q 38 571 40 567 q 42 579 38 574 q 51 590 47 585 q 33 599 43 597 q 11 600 22 600 q 4 602 8 600 q 0 610 0 604 q 17 619 0 619 q 38 621 28 622 q 60 622 49 619 q 96 623 78 622 q 135 625 114 624 q 142 644 136 638 q 176 733 154 692 q 225 815 197 775 q 254 847 239 832 q 290 871 269 861 q 304 879 297 874 q 317 890 311 885 q 378 930 347 913 q 444 960 408 947 q 459 965 451 963 q 476 969 467 967 q 494 971 485 971 q 513 964 504 971 q 551 956 531 951 q 586 956 569 956 q 622 960 603 957 q 678 963 650 963 q 736 956 707 963 l 749 956 q 768 947 761 951 q 771 936 775 942 q 756 929 764 928 q 742 932 749 931 q 719 936 731 936 q 721 927 715 931 q 726 919 726 924 q 724 903 726 917 q 676 919 694 914 q 653 922 664 922 q 629 924 642 922 q 594 930 613 931 q 558 925 576 929 q 594 922 576 922 q 631 924 613 922 m 353 83 q 332 99 342 92 q 311 114 322 106 q 295 130 304 121 q 275 149 286 139 q 258 169 265 160 q 244 188 251 178 q 231 209 236 199 q 218 231 225 219 q 210 228 213 228 l 210 221 q 217 192 213 206 q 232 168 221 179 q 246 153 239 160 q 260 142 253 147 q 297 106 275 118 q 346 82 319 93 l 349 82 q 353 83 351 82 m 406 779 q 426 781 417 776 q 446 788 436 785 q 461 796 454 792 q 475 806 468 800 q 490 814 483 810 q 504 826 497 818 q 469 822 486 826 q 438 815 453 818 q 416 803 422 813 q 406 779 410 794 m 600 121 q 579 130 589 128 q 563 135 569 132 q 544 143 551 140 q 525 149 536 146 q 507 160 515 154 q 489 168 499 165 q 471 178 479 174 q 446 183 463 183 q 488 156 467 167 q 531 135 508 144 q 560 123 543 128 q 600 121 578 118 m 428 868 q 414 867 419 867 q 406 864 408 867 q 387 849 396 854 q 364 851 378 843 q 349 847 357 850 q 332 832 340 843 q 356 828 346 835 q 382 828 367 821 q 408 842 394 835 q 428 868 421 849 m 203 651 q 235 697 222 669 q 249 749 249 725 q 220 703 231 728 q 203 651 210 679 m 339 203 q 354 176 342 188 q 381 157 367 165 q 393 163 392 154 q 368 183 383 175 q 339 203 353 192 m 453 135 q 483 107 464 111 q 524 104 501 103 q 496 117 508 111 q 468 128 483 124 q 453 135 461 133 m 250 456 q 250 482 250 471 q 251 506 250 493 q 248 515 251 513 q 243 515 244 518 q 239 511 242 514 q 238 506 236 508 q 237 481 236 493 q 250 456 238 469 m 339 721 q 312 707 324 714 q 307 676 300 700 q 326 697 318 688 q 339 721 333 707 m 368 779 q 349 770 356 776 q 333 757 342 764 q 331 751 332 754 q 333 746 329 749 q 356 757 344 753 q 368 779 368 761 m 560 881 l 513 881 q 497 880 506 881 q 492 874 489 879 q 501 867 494 864 q 517 872 508 871 q 538 874 528 872 q 560 878 549 875 l 560 881 m 700 808 q 664 832 685 826 q 656 828 660 832 q 658 821 656 825 q 678 813 667 814 q 700 808 689 813 m 499 44 q 550 38 535 38 q 582 44 565 38 q 538 48 558 49 q 499 44 518 47 m 107 553 q 89 564 93 564 q 69 553 85 564 l 107 553 m 665 111 q 636 111 651 117 l 635 110 l 635 107 q 640 103 635 103 q 665 111 656 100 m 422 82 q 430 78 426 79 q 438 75 433 76 l 439 76 q 442 79 442 76 q 439 83 442 83 q 422 85 435 85 l 422 82 z "},"¥":{"ha":806,"x_min":4,"x_max":817,"o":"m 786 903 q 793 906 789 904 q 801 910 797 908 q 810 909 806 910 q 815 904 815 908 q 817 899 817 903 q 815 894 817 896 q 807 885 813 889 q 797 876 801 882 q 769 847 783 861 q 739 818 754 833 q 751 801 747 811 q 747 794 750 799 q 739 785 743 790 q 636 693 686 739 q 540 599 586 647 q 513 567 526 583 q 488 535 500 550 q 476 479 458 507 q 499 476 488 476 q 524 476 511 476 q 588 475 556 475 q 653 468 621 475 q 667 465 663 468 q 674 460 671 464 q 679 451 676 456 q 673 444 678 446 q 664 442 668 443 l 651 442 q 625 436 638 438 q 601 432 613 435 q 599 422 597 425 q 607 418 601 418 q 636 418 622 418 q 664 417 650 418 q 683 415 675 417 q 700 410 690 413 q 708 396 711 410 q 694 386 704 389 q 677 383 685 383 q 661 382 669 382 l 522 382 l 482 382 q 476 351 475 367 q 476 319 476 336 q 523 322 500 322 q 569 322 546 322 q 613 325 593 325 q 653 325 633 325 q 672 313 672 325 q 668 300 675 306 q 651 294 661 294 l 631 294 q 616 294 624 294 q 597 292 608 294 q 610 288 604 289 q 622 288 617 288 l 657 288 q 667 279 668 288 q 658 269 669 272 q 650 263 656 265 q 638 257 644 261 q 628 249 633 254 q 617 239 624 244 q 643 235 628 233 q 663 224 658 238 q 658 206 660 214 q 651 190 656 199 q 642 185 646 185 q 597 183 618 188 q 551 185 575 179 q 515 188 533 189 q 474 188 496 188 q 469 175 474 179 q 467 119 468 147 q 467 65 467 92 q 466 43 464 54 q 467 19 468 32 q 466 10 469 14 q 457 4 463 6 q 448 7 450 4 q 443 13 446 10 q 441 27 442 19 q 438 43 440 35 q 442 163 442 101 q 442 174 442 169 q 443 183 443 179 q 433 183 435 186 q 431 176 432 179 q 427 81 428 129 q 425 -15 426 33 q 426 -32 425 -22 q 428 -50 428 -42 q 424 -56 426 -53 q 418 -61 421 -58 l 417 -62 l 417 -61 q 399 -58 408 -54 q 379 -58 389 -61 q 374 -54 376 -58 q 371 -47 371 -50 q 369 -8 365 -31 q 367 6 367 -1 q 365 22 368 14 q 354 23 360 22 q 346 24 349 24 q 344 22 344 22 q 342 21 343 22 l 340 19 q 338 3 339 11 q 335 -15 338 -6 q 332 -30 335 -22 q 328 -46 329 -37 q 322 -56 328 -50 q 310 -58 317 -61 q 303 -54 304 -58 q 303 -46 303 -50 q 292 -31 300 -37 q 286 -11 283 -24 q 290 5 290 -4 q 288 24 289 14 q 287 27 288 26 q 288 31 286 28 q 278 17 279 25 q 271 4 278 10 q 265 -1 268 1 q 258 -3 261 -3 q 251 8 251 0 q 252 26 249 17 q 256 46 256 35 q 260 105 258 75 q 263 163 263 135 q 263 178 263 172 q 264 192 264 185 q 247 201 257 200 q 226 201 238 201 q 183 203 203 203 q 140 203 163 203 q 118 207 129 206 q 97 210 107 208 q 90 220 90 211 q 94 231 89 229 q 117 244 108 236 q 133 263 125 253 q 125 280 131 274 q 104 288 119 286 q 100 291 103 288 q 97 297 97 294 q 110 311 97 311 q 128 314 119 313 q 144 315 138 315 l 243 315 q 257 317 250 315 q 274 318 264 318 q 278 353 276 336 q 276 388 281 371 q 252 392 265 393 q 228 390 239 390 q 152 388 192 389 q 74 386 113 388 q 58 389 69 386 q 56 397 56 390 q 58 404 56 403 q 72 410 65 408 q 86 417 79 413 q 88 436 86 429 q 97 444 90 442 q 113 449 104 446 q 117 449 115 449 q 124 451 119 450 q 101 457 108 457 q 73 456 86 457 q 47 456 60 456 q 35 463 39 456 q 37 469 32 465 q 47 475 42 472 q 63 476 51 476 q 84 481 74 479 q 104 482 94 482 l 231 482 l 268 482 q 281 493 279 488 q 286 506 283 499 q 266 540 279 525 q 238 568 253 556 q 157 631 197 600 q 78 694 117 663 q 70 701 74 697 q 63 708 67 706 q 71 719 67 717 q 81 720 75 721 q 92 718 86 719 q 103 719 97 717 q 72 751 88 735 q 36 782 56 767 q 18 805 25 792 q 7 831 11 818 q 15 847 4 843 q 26 847 21 847 q 35 842 32 846 q 47 831 42 838 q 58 818 53 825 q 67 823 63 821 q 74 829 72 825 q 65 842 68 836 q 56 856 61 849 q 61 874 50 868 q 83 871 74 881 q 90 864 86 868 q 97 856 93 860 q 145 800 121 828 q 196 744 169 772 q 202 735 197 740 q 210 728 207 731 q 217 734 217 731 q 215 740 217 738 q 187 780 201 760 q 160 822 172 800 q 139 851 153 838 q 114 881 125 865 q 94 910 99 894 q 77 932 86 921 q 61 954 68 943 q 42 985 49 968 q 51 1000 39 992 q 68 994 63 1003 q 142 894 101 942 q 222 800 182 847 q 294 719 258 760 q 365 638 329 678 q 369 632 367 635 q 375 624 372 629 q 385 634 379 629 q 392 643 390 639 q 453 731 422 689 q 519 815 483 774 q 542 842 531 829 q 565 869 554 854 q 597 874 582 883 q 624 897 613 885 q 647 922 635 908 q 667 941 658 931 q 688 964 676 951 q 728 985 704 978 q 740 972 738 985 q 710 944 725 958 q 678 917 694 929 q 687 910 682 910 q 694 911 692 910 q 699 914 697 911 q 706 918 701 917 q 720 922 717 924 q 735 908 724 921 q 751 919 743 914 q 767 931 758 925 q 776 935 771 933 q 788 933 782 936 q 792 915 797 931 q 786 901 792 906 q 774 901 781 901 q 764 896 768 900 q 718 847 733 876 q 735 849 724 842 q 759 876 747 864 q 786 903 771 889 m 443 322 q 448 354 446 338 q 443 389 450 371 q 436 349 436 363 q 443 322 436 336 m 238 424 l 206 424 q 222 418 214 418 q 230 419 226 418 q 238 421 233 421 l 238 424 z "},"×":{"ha":568,"x_min":11,"x_max":544,"o":"m 486 218 q 473 208 478 214 q 461 199 468 203 q 440 209 444 201 q 422 221 435 217 q 407 217 418 219 l 407 211 q 426 188 418 200 q 444 164 435 175 q 451 157 447 160 q 447 149 451 149 q 440 147 444 147 q 435 147 436 146 q 424 154 428 150 q 415 161 419 158 q 394 188 404 175 q 374 214 385 200 q 368 222 369 218 q 361 229 367 226 q 332 253 342 240 q 308 279 322 265 q 303 283 306 281 q 297 289 300 286 q 286 281 290 283 q 278 272 282 278 q 224 214 251 244 q 169 154 197 183 q 159 142 165 149 q 147 131 153 136 q 132 124 143 126 q 118 125 129 122 q 115 126 117 125 q 115 131 113 128 q 120 136 118 133 q 125 142 122 139 q 158 176 142 160 q 192 213 174 193 l 163 213 q 144 196 153 204 q 128 179 136 188 q 108 167 118 172 q 79 168 99 161 q 72 168 76 168 q 60 167 67 168 q 62 181 58 175 q 71 194 65 188 q 81 206 76 200 q 89 219 86 213 q 81 218 85 218 q 76 218 78 218 q 71 213 71 217 q 41 198 54 196 q 11 213 28 200 q 18 231 13 222 q 31 247 24 239 q 91 321 58 286 q 161 390 124 356 q 174 405 167 397 q 189 421 182 413 q 158 458 174 440 q 125 494 143 476 q 118 501 122 497 q 111 510 114 506 q 121 519 111 514 q 138 517 128 522 q 149 509 144 514 q 161 499 154 504 q 166 494 164 496 q 175 492 168 493 q 172 497 174 494 q 169 504 171 500 q 149 538 158 519 q 128 571 139 556 q 124 588 121 582 q 144 600 126 594 q 138 609 140 604 q 132 618 136 614 q 144 639 119 632 q 136 653 140 646 q 129 668 132 660 q 128 674 128 671 q 136 679 129 678 q 157 674 147 683 q 171 655 164 664 q 183 636 178 646 q 188 633 186 635 q 192 629 189 631 q 206 622 199 625 q 217 613 213 618 q 222 601 221 607 q 228 590 224 596 q 256 553 243 571 q 283 514 268 535 q 295 523 290 519 q 303 531 300 526 q 343 569 324 550 q 382 607 363 588 q 401 622 390 615 q 419 622 410 628 q 422 617 422 621 q 422 613 422 614 q 414 601 419 606 q 406 590 408 596 q 418 585 411 583 q 432 589 425 588 q 444 586 439 589 q 444 575 449 579 q 432 565 438 569 q 422 556 426 561 q 467 570 446 563 q 504 593 489 578 q 521 604 510 601 q 533 606 528 608 q 541 603 538 604 q 542 600 544 601 q 537 578 536 589 q 525 557 538 567 q 504 526 510 546 q 497 515 501 519 q 489 506 492 510 q 447 458 468 482 q 406 410 426 435 q 418 386 411 399 q 432 361 425 374 q 525 246 458 296 q 526 228 533 239 q 500 225 514 213 q 484 240 492 232 q 465 254 476 247 q 476 236 467 243 q 486 218 485 229 m 197 225 q 232 257 217 240 q 257 290 247 274 q 211 257 225 275 q 199 241 206 249 q 197 225 193 233 m 382 519 q 385 519 382 519 l 386 519 q 400 532 394 528 q 396 536 401 533 q 389 528 393 532 q 381 521 385 525 l 382 519 z "},"÷":{"ha":719,"x_min":33,"x_max":693,"o":"m 672 421 q 683 417 681 418 q 690 403 693 411 q 679 394 689 397 q 676 394 679 394 q 637 391 657 392 q 597 388 617 390 q 574 357 567 386 q 575 351 575 354 q 576 344 575 349 q 558 340 565 340 q 524 340 540 340 q 490 342 507 340 q 444 344 467 343 q 397 347 421 346 q 299 353 347 350 q 201 357 250 356 q 163 358 182 358 q 124 356 143 357 l 115 356 q 107 367 107 361 q 111 375 104 372 q 128 381 118 381 q 138 381 133 381 q 149 382 142 381 q 97 385 119 393 q 76 383 86 381 q 54 389 65 385 q 51 393 51 390 q 49 399 50 396 q 54 406 49 403 q 64 409 58 408 q 76 413 69 410 q 75 428 75 418 q 52 432 64 433 q 33 446 40 431 q 65 458 47 460 q 99 464 83 457 q 101 469 100 465 q 107 476 103 474 q 117 481 111 479 q 128 486 124 482 q 131 494 131 489 q 138 503 131 500 q 144 514 140 506 q 151 527 149 525 q 165 529 154 529 q 261 524 214 526 q 357 518 308 521 q 460 512 410 513 q 561 511 510 511 l 567 511 q 587 503 583 508 q 586 478 590 497 q 390 481 488 476 q 190 482 292 485 q 200 476 197 476 l 208 476 q 511 468 358 475 q 557 467 535 468 q 603 465 579 465 q 624 463 614 464 q 644 453 635 461 q 654 450 649 450 q 665 450 660 450 q 674 448 669 449 q 681 440 679 447 q 678 435 681 438 q 674 428 676 432 q 673 424 674 425 q 672 421 672 424 m 411 533 q 397 532 400 531 q 392 540 394 533 q 389 549 389 544 q 388 561 389 554 q 358 563 372 561 q 331 550 343 565 q 324 544 329 546 q 317 540 319 543 q 296 550 300 531 q 294 563 294 557 q 289 572 294 568 q 285 576 285 572 q 284 594 285 585 q 286 613 283 603 q 288 636 289 624 q 297 660 286 649 q 304 678 301 665 q 317 680 311 681 q 331 686 324 679 q 339 690 333 693 q 347 681 344 688 l 347 678 q 349 669 344 671 q 360 664 354 667 q 368 665 365 661 q 374 672 371 669 q 384 681 381 681 q 394 671 388 681 q 408 658 401 664 q 422 644 415 651 q 417 590 419 617 q 411 533 414 563 m 303 168 q 292 179 292 171 q 289 193 292 188 q 274 198 281 196 q 260 203 268 200 q 259 244 257 224 q 263 282 261 264 q 274 292 265 292 q 285 301 282 292 q 292 313 288 308 q 300 322 297 318 q 322 314 313 319 q 343 314 332 308 q 353 294 351 317 q 368 289 361 292 q 385 283 375 286 q 379 238 382 260 q 385 193 376 217 q 376 190 379 192 q 369 190 372 189 q 347 197 357 201 q 329 182 338 193 q 316 173 322 175 q 303 168 310 171 z "},"O":{"ha":764,"x_min":15,"x_max":750,"o":"m 208 35 q 211 28 211 32 q 213 22 211 25 q 195 7 201 8 q 178 15 189 6 q 143 51 158 32 q 117 94 128 71 q 85 165 99 129 q 65 239 72 201 q 60 258 63 249 q 56 279 58 268 q 43 321 54 297 q 36 338 39 329 q 31 356 33 347 q 31 556 15 460 q 94 744 46 653 q 99 753 97 749 q 106 761 101 758 q 140 800 126 778 q 172 842 153 822 q 191 863 182 853 q 208 886 200 874 q 217 899 214 890 q 149 838 175 881 q 140 823 144 831 q 131 808 136 815 q 128 806 131 806 q 124 806 125 806 q 120 812 122 808 q 117 817 118 815 l 117 821 q 138 860 126 842 q 167 894 149 879 q 208 925 186 910 q 251 956 229 940 q 292 975 271 968 q 335 988 313 982 q 373 996 354 993 q 411 997 392 999 q 452 995 432 994 q 492 990 472 996 q 566 958 532 979 q 625 901 600 938 q 633 892 633 896 q 648 855 635 868 q 672 825 661 842 q 680 813 676 819 q 685 799 683 807 q 692 781 689 794 q 721 695 713 739 q 733 606 729 651 q 735 586 735 596 q 738 567 735 576 q 738 560 738 564 q 739 554 738 556 q 749 533 750 544 q 744 511 749 522 q 716 378 732 444 q 676 246 700 313 q 644 173 663 208 q 603 104 626 138 q 584 86 593 94 q 564 68 575 78 q 558 63 561 65 q 551 56 554 61 q 535 38 546 43 q 514 29 525 33 q 486 18 499 24 q 441 -6 464 4 q 392 -15 418 -15 q 373 -17 382 -15 q 357 -22 364 -19 q 281 0 313 -32 q 265 11 275 10 q 238 23 251 18 q 208 35 224 28 q 186 71 196 50 q 178 85 185 79 q 167 96 171 90 q 157 108 161 103 q 147 121 153 114 q 165 80 154 97 q 190 44 175 63 q 199 40 193 42 q 208 35 204 38 m 614 854 q 615 867 615 860 q 615 882 615 875 q 601 880 607 881 q 589 876 596 879 q 601 863 596 869 q 614 854 606 856 q 632 820 621 835 q 654 790 643 806 q 658 797 660 797 q 643 823 650 811 q 628 847 636 835 q 622 850 625 849 q 614 854 618 851 m 460 190 q 444 182 450 185 q 429 175 438 179 q 410 172 418 172 q 401 175 401 172 q 401 186 397 182 q 411 194 404 190 q 450 240 435 214 q 479 294 465 267 q 503 357 493 326 q 519 422 513 388 q 526 453 525 438 q 529 486 528 469 q 528 558 532 522 q 519 628 525 593 q 499 690 513 661 q 471 744 486 718 q 429 769 456 768 q 351 743 383 778 q 283 649 311 699 q 235 543 254 600 q 229 517 229 532 q 224 428 222 472 q 231 340 225 383 q 235 315 233 328 q 242 288 238 301 q 286 221 250 243 q 317 202 301 211 q 347 183 332 193 q 354 181 350 182 q 361 179 358 181 q 363 169 363 175 q 357 163 360 163 q 347 163 350 160 q 328 171 338 167 q 308 181 318 175 q 296 187 301 183 q 281 193 290 190 q 294 163 286 174 q 321 149 303 153 q 370 142 346 142 q 422 146 394 142 q 446 154 435 149 q 465 174 457 160 q 462 181 463 178 q 460 190 461 183 m 653 403 q 671 449 664 419 q 678 513 678 479 q 672 578 678 546 q 653 632 667 611 q 654 606 653 613 q 659 528 660 567 q 651 451 658 490 q 649 437 650 444 q 647 422 647 429 q 649 412 646 417 q 653 403 651 407 m 243 718 q 219 667 229 694 q 203 610 208 639 q 196 554 197 581 q 199 507 194 528 q 221 613 210 561 q 243 718 232 665 m 379 38 q 444 38 413 32 q 504 64 476 44 q 499 89 501 78 q 440 56 469 69 q 379 38 411 43 m 147 596 q 126 550 129 575 q 118 501 122 525 q 120 451 115 475 q 128 400 125 426 q 128 451 128 426 q 131 501 128 476 q 138 549 133 525 q 147 596 143 572 m 578 585 q 578 653 588 638 q 560 685 574 668 q 535 714 546 703 q 547 680 542 696 q 558 647 551 664 q 565 616 563 632 q 578 585 568 600 m 604 425 q 592 372 597 397 q 583 321 588 347 q 604 425 613 365 m 515 894 q 547 869 533 881 q 572 847 561 858 q 579 849 576 847 q 574 859 578 856 q 564 868 569 863 q 556 880 560 875 q 546 894 553 885 l 515 894 m 460 932 q 424 939 440 935 q 392 932 408 943 q 424 921 408 918 q 460 932 440 924 m 515 101 q 556 120 542 107 q 572 153 569 133 q 543 126 557 138 q 515 101 529 114 m 303 750 q 290 722 296 735 q 278 697 285 710 q 275 685 275 694 q 297 712 285 699 q 303 750 308 725 m 88 660 q 101 688 94 674 q 115 714 108 701 q 113 729 117 715 q 96 695 101 711 q 88 660 90 679 m 565 357 q 570 373 568 365 q 574 390 572 381 q 579 425 576 406 q 567 393 572 410 q 565 357 563 376 m 414 114 q 376 119 393 119 q 336 114 358 119 q 376 107 358 107 q 414 114 393 107 m 622 654 q 621 622 618 635 q 632 593 624 608 q 631 623 635 608 q 622 654 626 638 m 213 257 q 211 278 215 269 q 204 294 207 286 q 202 275 203 286 q 213 257 201 264 m 540 393 q 531 372 532 376 q 533 357 531 368 q 540 376 535 368 q 540 393 544 385 m 318 4 q 360 4 340 -4 l 318 4 m 550 293 q 540 279 546 286 q 540 261 533 272 q 545 278 543 271 q 550 293 547 286 m 235 831 q 226 823 231 826 q 217 817 221 819 q 235 831 233 815 m 635 529 q 634 524 635 526 q 635 517 633 521 l 635 504 l 638 504 l 638 529 l 635 529 m 558 226 q 566 238 563 233 q 572 247 569 243 q 571 250 571 249 l 571 253 q 564 245 567 249 q 558 239 561 242 l 558 226 z "},"N":{"ha":806,"x_min":18,"x_max":874,"o":"m 118 326 q 113 260 115 293 q 106 194 110 226 q 107 97 101 142 q 108 84 107 90 q 111 72 108 78 q 109 65 110 69 q 106 61 108 61 q 93 42 92 53 q 93 18 94 31 q 90 14 93 17 q 85 13 88 11 q 74 18 79 13 q 69 31 71 25 q 60 42 67 36 q 53 50 56 44 q 51 63 51 56 q 51 75 49 69 q 54 88 54 81 q 46 86 46 85 q 44 79 44 83 q 43 71 44 75 q 41 35 42 54 q 40 0 40 17 q 39 -10 40 -6 q 32 -17 38 -15 q 21 1 18 -21 q 19 67 18 33 q 22 135 19 100 q 26 200 25 167 q 28 267 28 233 q 32 367 31 317 q 33 467 33 418 q 35 492 35 479 q 36 518 35 506 q 35 599 36 558 q 35 681 35 639 q 33 699 33 690 q 42 715 33 707 q 45 752 44 735 q 39 788 46 769 q 37 801 38 794 q 40 814 36 807 q 43 839 47 828 q 35 936 42 883 q 42 953 31 956 q 51 951 49 956 q 57 939 54 947 q 58 926 58 932 q 60 915 58 921 q 63 917 61 917 q 65 919 65 917 q 80 927 75 928 q 90 914 85 926 q 96 900 93 907 q 101 885 99 893 q 113 894 113 893 q 113 907 113 901 q 110 919 113 913 q 111 946 107 932 q 114 951 111 949 q 119 953 117 953 q 129 946 126 953 q 133 933 132 940 q 139 921 135 926 q 156 915 153 917 q 169 903 160 913 q 174 900 172 901 q 179 899 176 899 q 191 892 188 896 q 197 881 194 888 q 203 861 197 872 q 296 730 250 796 q 390 597 342 664 q 479 485 435 540 q 568 374 524 431 q 581 364 569 369 q 583 408 582 388 q 586 450 583 429 q 598 565 590 508 q 615 681 606 622 q 636 792 626 738 q 657 906 646 847 q 666 930 661 917 q 675 954 671 943 q 679 963 675 958 q 692 964 685 964 q 696 956 696 961 q 690 947 696 953 q 693 936 690 938 q 701 922 701 929 q 700 906 701 914 q 701 890 700 899 q 703 874 701 882 q 718 935 711 906 q 735 994 725 964 q 738 1004 736 1000 q 743 1014 739 1008 q 756 1024 749 1028 q 760 1008 765 1017 q 752 984 756 997 q 746 957 749 971 q 745 948 746 953 q 744 938 744 943 q 752 940 747 940 q 760 942 757 940 q 764 963 765 953 q 765 983 763 972 q 769 1001 765 993 q 773 1005 769 1003 q 779 1006 776 1007 q 786 1004 782 1007 q 790 999 790 1001 q 788 983 789 992 q 785 965 786 975 q 806 963 796 963 q 821 951 817 963 q 825 937 824 944 q 829 921 826 929 q 834 918 832 919 q 842 914 836 917 q 839 901 839 907 q 839 890 839 896 l 840 890 q 846 904 843 897 q 853 919 849 911 q 858 929 853 924 q 868 933 861 936 q 872 925 874 929 q 867 894 872 910 q 838 792 853 843 q 807 692 822 742 q 796 651 801 671 q 785 607 790 631 q 777 564 781 586 q 771 518 774 542 q 766 460 768 488 q 758 403 764 432 q 748 277 753 339 q 736 153 743 215 q 731 125 733 136 q 726 122 731 124 q 719 121 722 121 q 716 124 718 121 q 714 129 714 126 q 715 148 714 139 q 717 165 717 157 q 713 170 715 168 q 708 178 710 172 q 703 165 703 168 q 699 109 700 138 q 696 51 697 81 q 696 31 694 40 q 697 11 697 22 l 697 -1 q 689 -11 694 -8 q 682 -6 682 -11 q 676 7 679 1 q 669 22 672 13 q 670 -4 669 7 q 672 -26 671 -15 q 671 -42 671 -32 q 664 -49 667 -49 q 653 -42 654 -46 q 650 -36 651 -39 q 650 -29 649 -33 q 650 5 650 -12 q 647 40 650 22 q 646 53 646 47 q 643 67 646 60 q 613 73 624 63 q 592 94 603 83 q 592 82 589 86 q 597 72 594 78 q 618 28 607 50 q 640 -15 629 7 q 647 -28 646 -22 q 646 -37 647 -33 q 642 -42 646 -40 q 636 -44 639 -44 q 631 -44 635 -46 q 628 -40 628 -42 q 621 -21 625 -32 q 613 0 617 -10 q 607 9 610 6 q 596 13 604 13 q 589 15 592 11 q 583 21 586 18 q 533 89 558 56 q 523 103 529 96 q 510 117 517 110 q 503 123 507 119 q 496 131 499 126 q 371 312 438 225 q 243 490 304 399 q 229 511 236 501 q 215 531 222 521 q 212 535 214 533 q 207 540 210 538 q 203 518 203 529 q 204 496 204 507 q 205 418 204 457 q 206 340 206 379 q 203 253 204 296 q 203 165 203 210 q 201 126 203 146 q 194 88 200 107 q 192 83 193 85 q 192 79 192 82 q 183 74 189 74 q 179 77 182 76 q 175 79 176 78 q 176 90 175 85 q 176 99 176 94 q 181 127 179 114 q 182 151 183 140 q 185 213 185 183 q 188 274 186 243 q 186 281 188 276 q 185 290 185 285 q 169 289 175 290 q 167 274 169 282 q 168 258 165 265 q 164 165 165 211 q 161 72 163 119 q 159 56 160 64 q 150 43 158 49 q 147 36 147 42 q 146 26 147 31 q 144 9 144 18 q 143 -7 144 0 q 137 -17 142 -14 q 128 -18 132 -19 q 114 -6 118 -17 l 114 76 q 115 83 114 81 q 115 90 117 86 q 114 183 113 139 q 118 272 115 226 q 120 299 119 288 q 122 325 121 311 l 121 325 q 118 326 119 325 m 683 658 q 690 668 689 665 q 688 682 690 671 q 683 657 688 667 q 682 631 674 643 q 683 644 682 638 q 683 658 683 651 m 574 229 q 574 253 585 242 q 546 292 560 272 q 518 332 532 313 q 511 315 501 325 q 539 273 525 293 q 567 231 553 253 q 574 229 568 229 m 453 254 q 442 280 450 264 q 422 313 433 296 q 397 347 410 331 q 374 375 383 364 q 409 310 389 339 q 453 254 429 281 m 649 440 q 636 373 639 406 q 632 308 633 340 q 645 373 644 340 q 649 440 646 406 m 472 208 q 498 174 486 190 q 525 142 510 157 q 510 178 521 161 q 481 218 500 194 q 472 208 479 215 m 65 519 q 64 501 61 510 q 67 483 67 493 q 63 463 65 472 q 67 442 60 454 q 70 478 71 461 q 71 511 69 496 q 69 515 69 513 q 65 519 68 517 m 736 425 q 734 391 735 408 q 731 356 733 374 l 733 356 q 737 390 736 374 q 739 424 738 407 l 736 425 m 606 182 q 609 191 610 186 q 608 203 608 196 q 603 208 607 206 q 597 213 600 210 q 596 194 596 201 q 606 182 596 188 m 215 758 q 219 738 213 744 q 233 719 226 731 q 228 739 231 735 q 215 758 226 743 z "},"M":{"ha":1035,"x_min":36,"x_max":1099,"o":"m 772 107 q 767 102 769 104 q 765 96 765 100 q 755 59 758 76 q 746 22 751 42 q 738 2 742 13 q 722 -11 735 -8 q 719 -21 719 -15 q 715 -29 718 -26 q 707 -37 713 -37 q 701 -28 699 -35 q 704 7 703 -11 q 707 42 706 25 q 709 56 708 49 q 713 71 710 64 q 728 170 719 121 q 744 271 738 219 q 764 388 754 329 q 783 506 774 446 q 793 558 789 531 q 803 615 797 585 q 795 607 799 608 q 788 601 792 606 q 731 529 760 565 q 674 457 701 493 q 644 419 658 438 q 619 381 631 400 q 576 318 596 350 q 540 250 556 286 q 522 246 533 249 q 508 244 513 242 q 507 260 504 250 q 515 276 511 268 q 522 290 518 283 q 526 306 522 299 q 515 310 521 315 q 506 311 510 306 q 497 317 501 314 q 489 326 493 321 q 485 314 486 319 q 482 301 485 308 q 480 297 482 299 q 476 293 478 294 q 472 294 475 294 q 469 296 469 294 q 453 322 464 311 q 435 344 443 332 q 400 400 417 372 q 367 456 383 428 q 337 508 351 482 q 307 561 322 535 q 303 569 304 565 q 294 575 301 574 q 292 544 292 560 q 293 511 293 528 q 292 462 292 486 q 292 411 293 438 q 292 283 289 346 q 299 154 294 219 q 301 96 300 125 q 304 36 301 67 q 303 31 303 33 q 300 24 303 28 q 293 22 300 22 q 290 22 290 19 q 288 24 289 24 q 275 33 281 31 q 267 40 269 35 q 260 74 260 53 q 256 121 257 97 q 256 168 254 144 q 253 242 254 204 q 253 317 253 281 q 252 365 251 342 q 254 411 253 388 q 247 371 249 390 q 246 332 246 351 q 246 301 246 317 q 244 269 246 285 q 244 186 246 228 q 246 104 242 144 q 244 97 246 99 q 242 94 243 94 q 239 93 240 94 q 229 96 235 93 q 225 110 228 103 q 219 126 222 117 q 222 108 221 115 q 221 92 222 100 q 218 69 219 81 q 215 46 217 57 q 213 26 214 36 q 213 4 213 15 q 213 -14 213 -4 q 210 -32 213 -24 q 208 -36 210 -35 q 203 -40 206 -37 q 197 -38 200 -42 q 193 -32 193 -35 q 191 -17 192 -25 q 190 -1 190 -8 q 190 6 190 3 q 188 17 189 10 q 183 12 185 14 q 181 7 182 10 q 181 -3 181 1 q 182 -15 182 -8 q 181 -40 181 -29 q 179 -65 181 -51 q 176 -69 179 -67 q 172 -71 174 -72 q 165 -72 168 -74 q 161 -68 161 -71 q 151 -51 154 -58 q 156 -33 149 -44 q 159 -25 158 -29 q 161 -17 160 -21 q 158 15 158 -1 q 154 46 157 31 q 151 67 151 57 q 153 89 151 78 q 155 188 157 138 q 153 288 153 239 q 151 354 151 321 q 150 422 151 388 q 150 467 151 446 q 149 511 149 489 q 148 529 147 519 q 149 547 149 539 q 147 553 149 550 q 144 560 144 557 q 147 584 146 572 q 149 607 147 596 q 143 585 146 596 q 146 560 140 574 q 142 486 143 524 q 142 413 142 449 q 142 364 143 388 q 140 315 142 340 q 142 207 142 260 q 142 101 142 154 q 139 85 142 88 q 131 54 128 74 q 131 30 131 43 q 132 3 131 17 q 128 -11 131 -6 q 121 -15 125 -17 q 113 -8 114 -12 q 111 1 111 -3 q 112 46 113 25 q 108 90 111 67 q 108 154 111 122 q 100 155 104 156 q 92 154 96 154 q 86 153 89 154 q 81 150 83 151 q 77 153 78 151 q 75 157 76 156 q 69 172 69 164 q 69 186 69 179 q 70 229 69 208 q 72 272 71 250 q 73 338 74 304 q 68 403 72 371 q 65 503 68 451 q 61 603 63 554 q 55 708 58 656 q 49 813 51 760 q 45 903 47 857 q 36 996 43 949 q 38 1001 36 1000 q 42 1006 38 1006 q 53 1003 49 1008 q 56 997 56 1000 q 58 990 57 993 q 60 969 58 979 q 64 949 61 958 q 68 949 69 946 q 68 956 67 953 q 70 963 71 958 q 72 969 69 967 q 79 978 72 978 q 89 969 89 978 q 92 959 90 965 q 94 943 93 953 q 97 955 96 951 q 99 961 99 958 q 100 981 100 967 q 99 998 99 990 q 99 1014 99 1006 q 104 1026 99 1022 q 115 1025 110 1029 q 132 1022 124 1015 q 136 1022 133 1024 q 140 1017 139 1019 q 144 1009 143 1014 q 146 1001 144 1004 q 151 998 149 999 q 157 996 154 997 q 161 1008 160 1003 q 164 1018 163 1013 q 181 1008 176 1017 q 194 997 186 1000 q 204 1009 201 1007 q 222 1017 207 1011 q 219 1026 221 1024 q 218 1033 218 1029 q 217 1040 215 1036 q 221 1044 219 1043 q 226 1044 224 1044 q 232 1043 229 1043 q 236 1039 235 1042 q 239 1033 238 1036 q 269 994 251 1011 q 299 953 288 976 q 306 956 301 956 q 315 960 311 957 q 324 950 318 958 q 334 926 329 939 q 344 903 339 914 q 390 819 368 861 q 435 735 411 776 q 448 710 440 722 q 463 689 456 697 q 505 639 485 663 q 549 588 525 615 q 552 592 550 590 q 556 596 554 594 q 682 769 617 686 q 815 933 747 851 q 841 963 829 949 q 865 993 853 978 q 874 999 869 996 q 882 1006 878 1003 q 888 1008 885 1008 q 893 1004 892 1007 q 896 993 896 999 q 890 985 893 989 q 881 976 886 981 q 893 974 889 972 q 901 975 896 974 q 907 969 906 976 q 903 956 907 960 q 897 948 900 951 q 889 940 893 944 q 887 933 888 938 q 883 921 886 929 q 917 949 903 936 q 949 976 932 963 q 954 987 953 981 q 957 999 956 993 q 963 1002 958 1001 q 969 1000 967 1003 q 976 991 972 996 q 989 989 979 986 q 995 983 994 989 q 1001 971 996 976 q 1021 992 1008 982 q 1029 994 1024 994 q 1036 989 1035 993 q 1035 983 1036 986 q 1035 979 1035 981 q 1018 964 1029 969 q 1011 954 1015 958 q 1001 944 1007 950 q 1015 947 1008 946 q 1026 950 1021 949 q 1049 951 1033 951 q 1061 989 1056 971 q 1072 1026 1067 1007 q 1087 1023 1083 1025 q 1088 1013 1090 1021 q 1081 991 1085 1001 q 1074 967 1078 981 q 1072 958 1072 963 q 1071 946 1072 953 q 1082 960 1079 958 q 1087 963 1083 961 q 1093 963 1090 965 q 1097 958 1094 961 q 1099 953 1099 956 q 1094 930 1096 942 q 1089 907 1092 918 q 1055 761 1071 833 q 1024 615 1039 689 q 998 503 1010 558 q 975 394 986 449 q 961 320 968 358 q 947 244 954 282 q 933 175 940 210 q 921 104 926 140 q 906 19 913 63 q 892 -67 899 -24 q 890 -92 890 -79 q 892 -118 889 -104 q 893 -122 894 -119 q 889 -126 892 -125 q 882 -128 886 -129 q 875 -124 878 -126 q 872 -112 874 -118 q 871 -100 871 -106 q 867 -94 869 -97 q 861 -86 864 -90 q 858 -101 857 -94 q 858 -117 858 -108 q 860 -122 861 -119 q 857 -128 858 -125 q 851 -129 854 -131 q 844 -126 847 -128 q 835 -112 835 -122 q 835 -101 835 -106 q 836 -93 836 -96 q 843 -19 839 -57 q 851 57 847 19 q 853 87 853 72 q 856 117 854 101 q 842 63 849 90 q 828 8 835 36 q 824 -1 825 4 q 821 -11 824 -7 q 803 -27 814 -26 q 781 -21 792 -28 q 771 -8 776 -11 q 764 -6 768 -7 q 756 -3 760 -6 q 757 23 754 10 q 761 49 760 36 q 765 79 764 64 q 771 108 767 94 q 778 124 778 115 q 775 140 778 132 q 773 124 774 132 q 772 107 772 117 m 357 540 q 340 567 357 556 q 347 552 344 558 q 357 543 349 546 l 357 533 q 388 481 372 507 q 419 428 404 454 q 429 422 422 419 q 428 426 429 425 q 426 431 426 428 q 397 483 411 457 q 367 533 382 508 q 361 538 364 538 q 357 540 358 539 m 888 74 q 899 110 894 92 q 906 149 903 129 q 907 167 906 160 q 924 247 914 207 q 931 331 933 288 q 932 355 931 343 q 935 379 933 367 q 905 228 915 304 q 888 74 894 153 m 668 486 q 680 499 675 494 q 689 511 685 504 q 742 574 717 543 q 792 638 767 606 q 800 646 796 642 q 808 656 804 650 q 813 668 811 663 q 811 681 814 674 q 746 601 778 640 q 685 518 714 561 q 675 505 679 511 q 668 486 671 499 m 442 403 q 437 390 439 396 q 433 382 435 385 q 448 359 440 371 q 467 336 456 347 q 471 354 478 344 q 458 377 464 367 q 442 403 451 388 m 106 200 q 106 236 107 219 q 107 272 106 253 q 106 277 107 275 q 107 286 106 279 q 101 240 100 260 q 106 200 103 219 m 251 431 q 254 472 253 450 q 258 513 256 493 l 257 513 q 253 473 254 493 q 250 431 253 453 l 251 431 m 938 921 q 906 883 901 897 q 928 902 922 896 q 938 921 933 908 m 256 542 q 258 570 257 556 q 260 600 260 585 q 256 570 256 585 q 256 542 256 556 m 129 917 q 124 899 124 906 q 126 882 124 892 q 129 878 126 878 q 133 882 133 882 q 129 917 136 896 m 869 735 q 878 746 876 742 q 881 765 879 750 q 872 753 874 757 q 869 735 871 750 m 158 929 q 160 947 160 940 q 153 964 160 954 q 151 947 151 954 q 158 929 151 940 z "},"L":{"ha":583,"x_min":-33,"x_max":574,"o":"m 481 71 q 488 58 482 60 q 499 56 493 57 q 507 49 506 53 q 504 38 508 46 q 479 35 493 35 q 449 33 465 36 q 461 31 456 32 q 469 28 467 29 q 474 25 472 28 q 476 21 476 22 q 469 11 476 14 q 453 10 464 10 q 367 6 410 7 q 282 3 325 6 q 235 -1 258 0 q 189 -6 213 -3 q 181 -6 185 -6 q 171 -8 178 -7 q 169 -28 169 -19 q 169 -47 169 -37 q 168 -81 168 -64 q 168 -115 168 -97 q 169 -121 168 -118 q 168 -126 169 -124 q 158 -135 165 -129 q 153 -131 153 -135 q 149 -117 150 -124 q 146 -104 147 -111 q 147 -83 146 -93 q 147 -62 147 -74 q 150 -37 149 -50 q 149 -14 151 -25 q 131 -11 139 -10 q 114 -12 122 -12 q 110 -31 110 -22 q 108 -50 110 -39 q 106 -70 107 -60 q 103 -90 104 -81 q 99 -94 101 -93 q 96 -99 97 -96 q 90 -100 93 -101 q 86 -96 86 -99 l 86 -75 q 90 -53 89 -64 q 92 -31 90 -42 q 91 -25 92 -28 q 90 -18 90 -22 q 74 -17 82 -18 q 58 -22 65 -15 q 44 -28 51 -29 q 31 -25 38 -28 q 25 -25 31 -25 q 21 -39 22 -32 q 17 -53 19 -46 q 7 -57 17 -57 q 5 -55 6 -57 q 1 -51 4 -53 l 1 -33 q -8 -30 -3 -31 q -17 -28 -12 -29 q -11 -6 -21 -12 q 8 11 -1 1 q -10 8 -3 10 q -24 7 -17 7 q -29 9 -26 7 q -33 13 -32 11 q -33 18 -33 15 q -32 22 -32 21 q -18 33 -24 26 q -1 40 -12 39 q 13 61 13 46 q 16 94 14 78 q 18 125 18 110 q 26 219 22 172 q 33 311 29 267 q 39 375 36 343 q 44 439 42 407 q 53 540 49 489 q 61 639 57 590 q 67 733 64 688 q 72 825 69 778 q 72 839 72 832 q 75 851 71 846 q 83 852 79 851 q 92 853 86 853 q 92 886 92 869 q 93 918 93 903 q 94 931 93 928 q 107 936 96 935 q 115 940 114 936 q 119 945 118 943 q 124 949 121 947 q 142 955 132 956 q 157 943 153 954 q 160 932 160 938 q 163 919 160 926 q 165 908 164 914 q 168 897 165 903 q 168 915 168 906 q 169 932 168 924 q 172 948 171 940 q 176 963 174 956 q 183 965 176 965 q 189 960 189 965 q 192 940 192 954 q 180 857 185 899 q 169 772 175 815 q 167 747 168 760 q 164 721 165 733 q 164 707 164 714 q 165 693 164 700 q 174 741 169 717 q 181 789 178 765 q 190 853 186 821 q 200 918 194 885 q 203 932 200 925 q 214 946 206 939 q 221 958 218 949 q 232 965 224 965 q 239 951 239 965 q 238 940 239 944 q 238 929 238 935 q 236 914 236 924 q 244 911 240 913 q 253 908 249 910 q 256 914 256 911 q 260 940 258 926 q 265 965 263 953 q 268 969 265 968 q 272 971 271 971 q 279 964 279 971 q 279 935 283 950 q 270 872 275 903 q 260 808 265 840 q 256 780 258 794 q 253 750 254 765 q 256 733 253 739 q 260 748 258 740 q 267 763 263 756 q 276 767 267 769 q 280 764 278 767 q 282 760 282 761 q 276 739 282 750 q 262 674 265 707 q 256 608 258 642 q 247 478 256 544 q 238 394 243 436 q 228 310 232 353 q 221 262 224 286 q 214 214 218 238 q 210 192 211 203 q 208 168 210 181 q 215 167 213 168 q 222 167 218 167 q 278 174 250 171 q 333 181 306 178 q 365 185 350 183 q 397 188 381 186 q 442 192 421 188 q 485 203 464 197 q 493 204 488 204 q 501 199 499 201 q 490 174 517 179 q 457 165 474 169 q 422 157 440 161 q 434 149 428 150 q 447 150 440 147 q 501 156 474 153 q 554 164 528 160 l 561 164 q 571 156 571 164 q 561 142 574 146 q 547 142 554 142 q 533 140 540 142 q 531 133 531 136 q 532 128 532 131 q 533 115 533 121 q 533 103 533 110 q 539 100 536 101 q 544 96 542 99 q 547 90 547 94 q 544 85 547 85 q 515 78 529 79 q 498 76 507 76 q 481 71 489 76 m 317 54 q 358 57 340 50 q 321 57 343 63 q 319 55 321 56 q 317 51 318 54 q 299 54 303 54 q 289 49 296 54 q 305 47 301 46 q 317 54 308 47 m 219 44 q 247 41 236 40 q 268 46 258 42 q 247 48 257 49 q 219 44 236 47 m 163 675 q 158 676 158 675 l 158 653 l 158 649 q 163 664 163 654 l 163 675 m 153 628 l 153 604 l 154 604 l 154 628 l 153 628 m 400 63 l 375 63 l 375 61 l 400 61 l 400 63 z "}}}
